<?xml version="1.0" encoding="utf-8"?>
<!-- Generator: Adobe Illustrator 16.0.0, SVG Export Plug-In . SVG Version: 6.00 Build 0)  -->
<!DOCTYPE svg PUBLIC "-//W3C//DTD SVG 1.1//EN" "http://www.w3.org/Graphics/SVG/1.1/DTD/svg11.dtd">
<svg version="1.1" id="Calque_1" xmlns="http://www.w3.org/2000/svg" xmlns:xlink="http://www.w3.org/1999/xlink" x="0px" y="0px"
	 width="200.293px" height="190.514px" viewBox="0 0 200.293 190.514" enable-background="new 0 0 200.293 190.514"
	 xml:space="preserve">
<g>
	<path fill="#F0FFFF" stroke="#C8FFF0" stroke-width="6" stroke-miterlimit="10" d="M30.808,72.854
		C11.73,68.682-0.345,49.852,3.822,30.793l0,0C7.992,11.727,26.824-0.347,45.9,3.823l41.22,9.014
		c19.077,4.171,31.159,23.005,26.991,42.072l0,0c-4.168,19.059-23.009,31.129-42.084,26.958L30.808,72.854z"/>
	<g>
		<path fill="#C8FFF0" d="M200.294,190.512c-1.834-1.191-7.147-1.756-10.286-1.792c-13.893-0.16-24.221-6.793-22.511-56.767
			c0.905-26.43-7.901-46.925-26.176-60.916c-13.657-10.456-27.64-13.158-27.779-13.185l1.103-5.897
			c0.627,0.116,15.541,3,30.324,14.317c13.684,10.478,29.74,30.411,28.524,65.886c-0.763,22.285,0.891,36.681,5.055,44.007
			c3.156,5.553,7.324,6.035,12.15,6.595c3.233,0.374,6.579-0.15,9.596,1.809V190.512z"/>
	</g>
	<line fill="none" stroke="#C8FFF0" stroke-width="6" stroke-miterlimit="10" x1="93.875" y1="48.608" x2="74.143" y2="44.293"/>
</g>
</svg>
