<?xml version="1.0" encoding="utf-8"?>
<!-- Generator: Adobe Illustrator 16.0.0, SVG Export Plug-In . SVG Version: 6.00 Build 0)  -->
<!DOCTYPE svg PUBLIC "-//W3C//DTD SVG 1.1//EN" "http://www.w3.org/Graphics/SVG/1.1/DTD/svg11.dtd">
<svg version="1.1" id="Calque_1" xmlns="http://www.w3.org/2000/svg" xmlns:xlink="http://www.w3.org/1999/xlink" x="0px" y="0px"
	 width="249.611px" height="301.695px" viewBox="0 0 249.611 301.695" enable-background="new 0 0 249.611 301.695"
	 xml:space="preserve">
<g>
	<polyline fill="#F0FFFF" stroke="#C8FFF0" stroke-width="6" stroke-miterlimit="10" points="234.041,161.712 149.38,29.5 
		106.247,5.23 107.881,53.893 189.832,181.299 	"/>
	<g>
		<path fill="#F0FFFF" stroke="#C8FFF0" stroke-width="6" stroke-miterlimit="10" d="M171.753,297.611
			c-3.175,2.043-7.461,1.116-9.507-2.063L4.087,49.663c-2.049-3.188-1.11-7.464,2.064-9.508l33.99-21.862
			c3.187-2.05,7.457-1.121,9.506,2.063l158.16,245.886c2.046,3.18,1.123,7.457-2.063,9.507L171.753,297.611z"/>
	</g>
	<line fill="none" stroke="#C8FFF0" stroke-width="6" stroke-miterlimit="10" x1="53.641" y1="31.335" x2="43.518" y2="37.847"/>
	<line fill="none" stroke="#C8FFF0" stroke-width="6" stroke-miterlimit="10" x1="89.524" y1="86.724" x2="70.179" y2="99.167"/>
	<line fill="none" stroke="#C8FFF0" stroke-width="6" stroke-miterlimit="10" x1="68.604" y1="53.406" x2="49.078" y2="65.965"/>
	<line fill="none" stroke="#C8FFF0" stroke-width="6" stroke-miterlimit="10" x1="60.735" y1="42.364" x2="50.612" y2="48.875"/>
	<line fill="none" stroke="#C8FFF0" stroke-width="6" stroke-miterlimit="10" x1="74.794" y1="65.015" x2="64.669" y2="71.528"/>
	<line fill="none" stroke="#C8FFF0" stroke-width="6" stroke-miterlimit="10" x1="82.004" y1="76.224" x2="71.879" y2="82.738"/>
	<line fill="none" stroke="#C8FFF0" stroke-width="6" stroke-miterlimit="10" x1="95.959" y1="97.919" x2="85.834" y2="104.433"/>
	<line fill="none" stroke="#C8FFF0" stroke-width="6" stroke-miterlimit="10" x1="102.705" y1="108.406" x2="92.579" y2="114.918"/>
	<line fill="none" stroke="#C8FFF0" stroke-width="6" stroke-miterlimit="10" x1="110.353" y1="118.311" x2="91.008" y2="130.755"/>
	<line fill="none" stroke="#C8FFF0" stroke-width="6" stroke-miterlimit="10" x1="117.135" y1="130.307" x2="107.01" y2="136.82"/>
	<line fill="none" stroke="#C8FFF0" stroke-width="6" stroke-miterlimit="10" x1="124.464" y1="141.441" x2="114.34" y2="147.953"/>
	<line fill="none" stroke="#C8FFF0" stroke-width="6" stroke-miterlimit="10" x1="132.2" y1="152.647" x2="113.148" y2="164.901"/>
	<line fill="none" stroke="#C8FFF0" stroke-width="6" stroke-miterlimit="10" x1="138.947" y1="163.82" x2="128.822" y2="170.333"/>
	
		<line fill="none" stroke="#C8FFF0" stroke-width="6" stroke-miterlimit="10" x1="146.158" y1="175.029" x2="136.032" y2="181.542"/>
	
		<line fill="none" stroke="#C8FFF0" stroke-width="6" stroke-miterlimit="10" x1="153.272" y1="186.299" x2="134.412" y2="198.431"/>
	<line fill="none" stroke="#C8FFF0" stroke-width="6" stroke-miterlimit="10" x1="160.134" y1="197.566" x2="150.01" y2="204.078"/>
	
		<line fill="none" stroke="#C8FFF0" stroke-width="6" stroke-miterlimit="10" x1="167.312" y1="208.453" x2="157.189" y2="214.964"/>
	<line fill="none" stroke="#C8FFF0" stroke-width="6" stroke-miterlimit="10" x1="182.336" y1="232.863" x2="172.21" y2="239.376"/>
	<line fill="none" stroke="#C8FFF0" stroke-width="6" stroke-miterlimit="10" x1="189.51" y1="243.758" x2="179.385" y2="250.271"/>
	<line fill="none" stroke="#C8FFF0" stroke-width="6" stroke-miterlimit="10" x1="175.135" y1="220.29" x2="156.275" y2="232.421"/>
	
		<line fill="none" stroke="#C8FFF0" stroke-width="6" stroke-miterlimit="10" x1="197.696" y1="255.363" x2="178.834" y2="267.495"/>
	<path fill="none" stroke="#C8FFF0" stroke-width="6" stroke-miterlimit="10" d="M115.814,42.481"/>
	<polyline fill="none" stroke="#C8FFF0" stroke-width="6" stroke-miterlimit="10" points="140.841,25.535 138.179,37.791 
		128.172,35.617 	"/>
	<polyline fill="none" stroke="#C8FFF0" stroke-width="6" stroke-miterlimit="10" points="123.802,38.572 121.667,48.404 
		109.835,45.831 	"/>
	<polygon fill="#D3FFEF" points="127.554,39.114 120.543,37.49 122.129,30.669 129.135,32.297 	"/>
	<path fill="#F0FFFF" stroke="#C8FFF0" stroke-width="6" stroke-miterlimit="10" d="M201.675,199.56l-10.233-15.91l40.192-25.854
		l10.233,15.911c8.075,12.553,5.576,28.475-5.485,35.59c-5.561,3.577-12.243,4.273-18.497,2.488
		C211.567,210.035,205.695,205.809,201.675,199.56z"/>
	
		<line fill="none" stroke="#C8FFF0" stroke-width="6" stroke-miterlimit="10" x1="223.672" y1="146.576" x2="186.547" y2="170.456"/>
	
		<line fill="none" stroke="#C8FFF0" stroke-width="6" stroke-miterlimit="10" x1="216.063" y1="135.799" x2="178.938" y2="159.679"/>
	<line fill="none" stroke="#C8FFF0" stroke-width="6" stroke-miterlimit="10" x1="125.513" y1="16.608" x2="108.248" y2="27.714"/>
</g>
</svg>
