<?xml version="1.0" encoding="utf-8"?>
<!-- Generator: Adobe Illustrator 16.0.0, SVG Export Plug-In . SVG Version: 6.00 Build 0)  -->
<!DOCTYPE svg PUBLIC "-//W3C//DTD SVG 1.1//EN" "http://www.w3.org/Graphics/SVG/1.1/DTD/svg11.dtd">
<svg version="1.1" id="Calque_1" xmlns="http://www.w3.org/2000/svg" xmlns:xlink="http://www.w3.org/1999/xlink" x="0px" y="0px"
	 width="307.781px" height="237.128px" viewBox="0 0 307.781 237.128" enable-background="new 0 0 307.781 237.128"
	 xml:space="preserve">
<g>
	<g>
		<path fill="#F0FFFF" stroke="#C8FFF0" stroke-width="6" stroke-miterlimit="10" d="M36.923,203.557L3.27,68.577
			c-1.211-4.855,1.772-9.814,6.625-11.024L227.614,3.27c4.853-1.21,9.815,1.768,11.026,6.624l33.652,134.979"/>
	</g>
	
		<rect x="31.025" y="44.122" transform="matrix(0.9703 -0.2419 0.2419 0.9703 -21.1364 36.2065)" fill="none" stroke="#C8FFF0" stroke-width="6" stroke-miterlimit="10" width="211.719" height="120.12"/>
	<circle fill="#D3FFEF" cx="119.682" cy="38.094" r="2.221"/>
	
		<rect x="182.372" y="38.302" transform="matrix(0.8571 0.5151 -0.5151 0.8571 49.6844 -98.3114)" fill="#C8FFF0" width="39.371" height="4.205"/>
	<polygon fill="#C8FFF0" points="218.846,66.536 167.178,35.502 169.364,31.899 221.023,62.933 	"/>
	<polyline fill="#F0FFFF" stroke="#C8FFF0" stroke-width="6" stroke-miterlimit="10" points="10.805,227.378 25.933,233.97 
		291.804,167.681 301.984,155.384 	"/>
	<g>
		<path fill="#F0FFFF" stroke="#C8FFF0" stroke-width="6" stroke-miterlimit="10" d="M304.646,150.162
			c0.604,2.424-0.884,4.907-3.313,5.514L12.891,227.591c-2.422,0.604-4.91-0.891-5.514-3.313l-1.532-6.145
			c-0.604-2.432,0.891-4.909,3.313-5.514l288.443-71.916c2.422-0.604,4.906,0.881,5.513,3.313L304.646,150.162L304.646,150.162z"/>
	</g>
</g>
</svg>
