<?xml version="1.0" encoding="utf-8"?>
<!-- Generator: Adobe Illustrator 16.0.0, SVG Export Plug-In . SVG Version: 6.00 Build 0)  -->
<!DOCTYPE svg PUBLIC "-//W3C//DTD SVG 1.1//EN" "http://www.w3.org/Graphics/SVG/1.1/DTD/svg11.dtd">
<svg version="1.1" id="Calque_1" xmlns="http://www.w3.org/2000/svg" xmlns:xlink="http://www.w3.org/1999/xlink" x="0px" y="0px"
	 width="386.8px" height="195.272px" viewBox="0 0 386.8 195.272" enable-background="new 0 0 386.8 195.272" xml:space="preserve">
	<path fill-rule="evenodd" clip-rule="evenodd" fill="#6CFFCC" d="M153.595,155.824c-0.87,0.726-1.583,1.531-2.47,1.998
		c-0.817,0.43-1.823,0.509-2.877,0.77c-1.298-1.208-2.972-2.172-3.262-4.303c-0.149-1.106-0.122-2.062,0.973-2.68
		c0.829-0.468,1.614-1.049,2.487-1.396c2.477-0.967,4.57,0.402,4.863,3.099C153.393,154.096,153.483,154.872,153.595,155.824z"/>
	<path fill-rule="evenodd" clip-rule="evenodd" fill="#6CFFCC" d="M162.882,173.906c-0.696,0.604-1.33,1.201-2.013,1.742
		c-1.784,1.425-3.351,1.452-4.933-0.151c-0.809-0.82-1.505-1.88-1.864-2.965c-0.351-1.07-0.058-2.301,1.159-2.839
		c1.293-0.571,2.631-1.077,3.996-1.425c1.011-0.256,2.75,1.57,3.109,3.092C162.523,172.129,162.671,172.906,162.882,173.906z"/>
	<path fill-rule="evenodd" clip-rule="evenodd" fill="#6CFFCC" d="M3.301,126.486c1.014-1.312,2.363-1.844,4.011-1.552
		c0.829,0.145,1.655,0.308,2.665,0.5c0.318,0.613,0.715,1.379,1.158,2.234c-0.932,0.869-1.445,1.76-1.066,3.151
		c0.305,1.132-2.668,3.023-3.725,2.381"/>
	<path fill-rule="evenodd" clip-rule="evenodd" fill="#6CFFCC" d="M213.5,195.272c-2.507-1.373-3.504-3.492-2.922-6.622
		c1.132-1.086,2.837-1.834,4.654-2.073c2.501,1.246,3.712,3.178,3.54,5.916"/>
	<path fill-rule="evenodd" clip-rule="evenodd" fill="#6CFFCC" d="M179.869,142.192c-1.542-1.418-2.185-3.322-2.504-5.356
		c1.556-1.847,3.354-3.136,6.355-2.705c0.631,1.013,1.532,2.302,2.239,3.687c0.206,0.41-0.032,1.157-0.27,1.654
		C184.526,141.895,182.396,142.376,179.869,142.192z"/>
	<path fill-rule="evenodd" clip-rule="evenodd" fill="#6CFFCC" d="M199.448,131.717c-2.867,2.508-2.867,2.508-6.381,2.668
		c-0.894-1.332-1.882-2.813-2.806-4.19c2.956-4.12,2.298-3.485,6.384-3.929C198.314,128.042,198.314,128.042,199.448,131.717z"/>
	<path fill-rule="evenodd" clip-rule="evenodd" fill="#6CFFCC" d="M274.77,17.231c-1.38-1.445-1.38-1.445-3.339-1.57
		c-1.597-1.633-0.55-3.416,0.232-4.701c0.643-1.049,2.238-1.747,3.549-2.103c1.611-0.437,3.518,1.64,3.638,3.609
		c0.054,0.856,0.08,1.708,0.126,2.626C277.578,16.542,276.871,16.901,274.77,17.231z"/>
	<path fill-rule="evenodd" clip-rule="evenodd" fill="#6CFFCC" d="M238.033,128.641c0.438,0.627,0.815,1.141,1.158,1.68
		c0.17,0.268,0.463,0.639,0.389,0.846c-0.49,1.313-0.414,2.9-1.144,3.971c-0.615,0.904-2.089,1.245-3.214,1.767
		c-0.253,0.119-0.812,0.092-0.904-0.061c-0.761-1.257-2.375-1.702-2.688-3.459c-0.596-3.274,1.023-5.143,4.409-4.736
		C236.648,128.717,237.274,128.642,238.033,128.641z"/>
	<path fill-rule="evenodd" clip-rule="evenodd" fill="#6CFFCC" d="M155.063,72.588c0.77-0.48,1.625-1.055,2.521-1.557
		c0.401-0.228,0.891-0.307,1.438-0.479c0.858,0.645,1.366,2.089,2.907,1.433c0.196-0.083,0.803,0.443,1.017,0.806
		c0.318,0.539,0.455,1.179,0.686,1.814c-0.331,0.45-0.854,0.854-0.927,1.327c-0.258,1.716-1.372,2.308-2.887,2.726
		c-2.468,0.682-4.458-0.555-4.666-3.106C155.078,74.631,155.096,73.699,155.063,72.588z"/>
	<path fill-rule="evenodd" clip-rule="evenodd" fill="#6CFFCC" d="M68.122,139.361c1.858-1.014,3.31-0.751,4.472,1.089
		c0.662,1.04,1.086,2.277,1.367,3.484c0.274,1.166-0.643,2.384-1.928,2.988c-1.342,0.627-2.6,0.532-3.461-0.46
		c-0.511-0.602-0.922-0.912-1.783-0.819c-0.799,0.077-1.172-0.62-0.633-1.262c0.48-0.58,0.484-1.023,0.351-1.715
		C66.183,141.002,66.662,140.156,68.122,139.361z"/>
	<path fill-rule="evenodd" clip-rule="evenodd" fill="#6CFFCC" d="M107.316,127.371c-0.486-1.162-0.993-2.376-1.496-3.592
		c1.465-0.767,0.297-2.679,1.332-3.409c1.057-0.747,2.446-1.02,3.625-1.475c1.362,1.269,2.729,2.223,3.199,3.985
		c0.293,1.095,0.196,1.743-0.667,2.695C111.666,127.388,109.658,127.153,107.316,127.371z"/>
	<path fill-rule="evenodd" clip-rule="evenodd" fill="#6CFFCC" d="M131.85,170.358c-0.845,0.713-1.643,1.27-1.247,2.592
		c0.369,1.229-0.936,1.463-1.715,1.924c-0.715,0.42-1.406,0.692-2.136-0.095c-0.417-0.444-0.981-0.793-1.542-1.058
		c-1.818-0.857-1.415-2.692-1.785-4.133c-0.216-0.854,1.564-2.433,2.713-2.729C128.86,166.151,130.861,167.306,131.85,170.358z"/>
	<path fill-rule="evenodd" clip-rule="evenodd" fill="#6CFFCC" d="M176.534,79.065c0.447-0.688,0.904-1.316,1.295-1.993
		c1.433-2.463,3.839-2.646,5.828-0.631c0.942,0.95,1.434,1.886,1.22,3.162c-0.454,2.741-0.473,2.738-2.614,3.824
		c-1.013-0.821-2.123-1.472-3.628-1.022c-0.322,0.094-1.054-0.618-1.332-1.109C176.914,80.619,176.772,79.795,176.534,79.065z"/>
	<path fill-rule="evenodd" clip-rule="evenodd" fill="#6CFFCC" d="M307.358,78.579c2.099-1.082,4.581-0.382,5.581,1.785
		c0.324,0.697,0.357,1.901-0.045,2.478c-0.618,0.882-1.438,1.544-1.25,2.792c0.014,0.074-1.175,0.554-1.308,0.404
		c-0.728-0.813-1.436-0.582-2.349-0.407c-1.243,0.239-2.372-0.808-2.677-2.151C304.753,81.045,305.348,79.616,307.358,78.579z"/>
	<path fill-rule="evenodd" clip-rule="evenodd" fill="#6CFFCC" d="M128.78,188.913c-0.06,0.012-0.652-1.219-0.459-1.575
		c0.357-0.659,0.501-1.195,0.445-1.964c-0.091-1.242,0.37-2.348,1.701-2.839c2.279-0.84,2.929-0.728,4.231,0.702
		c0.373,0.411,0.75,0.819,1.258,1.366c0.095,1.029,0.546,2.303,0.208,3.32"/>
	<path fill-rule="evenodd" clip-rule="evenodd" fill="#6CFFCC" d="M337.954,29.916c1.478,1.314,2.925,2.296,3.213,4.247
		c0.183,1.232,0.057,2.145-1.07,2.885c-1.207,0.802-2.289,1.873-3.886,0.977c-0.545-0.304-1.026-0.752-1.602-0.971
		c-1.749-0.682-1.751-0.649-0.964-2.453c0.114-0.266,0.146-0.605,0.121-0.898c-0.18-2.188,0.211-2.739,2.311-3.242
		C336.687,30.312,337.286,30.112,337.954,29.916z"/>
	<path fill-rule="evenodd" clip-rule="evenodd" fill="#6CFFCC" d="M203.213,26.688c-0.265,1.489-0.748,2.594-0.567,3.584
		c0.279,1.525-0.432,2.058-1.601,2.439c-0.608,0.203-1.22,0.364-1.985,0.594c-0.985-0.893-2.252-1.668-3.012-2.781
		c-1.547-2.281-0.482-5.027,2.201-5.549c1.215-0.236,2.624,0.217,3.874,0.603C202.683,25.749,203.058,26.52,203.213,26.688z"/>
	<path fill-rule="evenodd" clip-rule="evenodd" fill="#6CFFCC" d="M179.031,48.032c1.064,0.994,2.193,1.66,2.715,2.643
		c0.518,0.979,0.425,2.271,0.628,3.625c-0.785,0.588-1.6,1.341-2.55,1.854c-0.8,0.428-1.749,0.888-2.532-0.251
		c-0.194-0.292-0.814-0.55-1.143-0.461c-0.872,0.228-1.374-0.06-1.736-0.793c-0.377-0.752-0.673-1.446,0.229-2.095
		c0.254-0.182,0.498-0.763,0.389-0.999c-0.762-1.655,0.439-2.142,1.524-2.647C177.335,48.545,178.183,48.33,179.031,48.032z"/>
	<path fill-rule="evenodd" clip-rule="evenodd" fill="#6CFFCC" d="M76.303,16.893c-0.523,0.44-1.106,0.979-1.737,1.449
		c-1.244,0.92-1.883,0.846-3.31-0.121c-0.325-0.217-0.853-0.292-1.25-0.224c-0.918,0.151-1.418-0.361-1.602-1.063
		c-0.137-0.526,0.029-1.156,0.176-1.712c0.134-0.481,0.74-1.038,0.615-1.353c-0.682-1.715,0.586-2.094,1.654-2.561
		c0.717-0.314,1.504-0.456,2.158-0.646C75.396,11.999,76.629,13.907,76.303,16.893z"/>
	<path fill-rule="evenodd" clip-rule="evenodd" fill="#6CFFCC" d="M272.93,168.739c-1.5-1.334-2.022-3.232-1.884-5.154
		c0.088-1.268,1.179-2.07,2.39-2.399c1.044-0.273,2.29-0.714,2.922,0.666c0.529,1.164,1.645,0.566,2.91,0.921
		c-0.853,1.251-1.074,2.164-0.771,3.328"/>
	<path fill-rule="evenodd" clip-rule="evenodd" fill="#6CFFCC" d="M145.9,75.852c2.084-1.051,4.361-0.219,5.229,2.135
		c0.389,1.057,0.501,2.357,0.282,3.456c-0.144,0.697-1.03,1.407-1.755,1.782c-0.725,0.37-1.857,0.695-2.458,0.372
		c-1.065-0.557-2.12-1.474-2.694-2.509C143.228,78.796,143.86,76.879,145.9,75.852z"/>
	<path fill-rule="evenodd" clip-rule="evenodd" fill="#6CFFCC" d="M288.12,40.659c2.997-1.193,5.541,0.078,5.758,2.97
		c0.127,1.71-1.249,3.028-3.752,3.935c-1.286,0.462-2.381,0.719-3.448-0.373c-1.021-1.041-1.691-2.369-1.111-3.655
		C286.069,42.42,287.241,41.606,288.12,40.659z"/>
	<path fill-rule="evenodd" clip-rule="evenodd" fill="#6CFFCC" d="M157.207,39.452c-1.142,0.681-2.43,0.768-3.347-0.107
		c-1.016-0.976-2.595-1.826-2.015-3.74c0.137-0.451,0.4-1,0.259-1.375c-0.443-1.209,0.151-1.78,1.094-2.281
		c0.997-0.53,1.811-0.703,2.762,0.287c0.521,0.539,1.556,0.676,2.383,0.801c1.396,0.218,1.617,0.57,0.974,1.751
		c-0.235,0.421-0.415,0.964-0.372,1.421C159.101,37.877,158.726,38.657,157.207,39.452z"/>
	<path fill-rule="evenodd" clip-rule="evenodd" fill="#6CFFCC" d="M243.01,150.474c-0.591-0.359-1.022-0.728-1.519-0.9
		c-2.682-0.939-3.168-1.522-3.191-4.233c-0.009-1.117,0.501-1.937,1.518-2.52c2.049-1.163,5.006-0.827,6.196,0.836
		c0.522,0.726,0.941,1.393,0.012,2.281c-0.581,0.557-0.9,1.488-1.099,2.309C244.572,149.719,244.649,149.742,243.01,150.474z"/>
	<path fill-rule="evenodd" clip-rule="evenodd" fill="#6CFFCC" d="M78.341,68.005c-0.462,0.302-0.914,0.618-1.388,0.895
		c-0.199,0.108-0.451,0.134-0.811,0.228c-0.883-0.839-1.876-1.557-3.301-1.079c-0.872,0.296-1.33-0.419-1.602-1.07
		c-0.299-0.724-0.424-1.524-0.603-2.191c0.456-0.755,0.879-1.41,1.253-2.085c1.317-2.359,3.588-2.528,5.627-0.737
		c1.361,1.2,1.703,2.339,1.104,3.958C78.412,66.48,78.448,67.133,78.341,68.005z"/>
	<path fill-rule="evenodd" clip-rule="evenodd" fill="#6CFFCC" d="M317.074,147.668c-2.135,0.97-4.192,0.037-5.063-2.439
		c-0.331-0.943-0.575-2.021-0.466-2.993c0.157-1.415,1.353-2.173,2.618-2.479c1.163-0.292,2.428-0.25,3.152,1.02
		c0.579,1.014,1.26,2.014,1.597,3.109"/>
	<path fill-rule="evenodd" clip-rule="evenodd" fill="#6CFFCC" d="M84.406,82.987c1.125-0.939,1.918-1.663,1.564-3.149
		c-0.24-0.984,1.377-1.761,2.208-1.059c0.635,0.531,1.058,0.667,1.868,0.483c1.077-0.241,2.167,0.613,2.475,1.719
		c0.238,0.838,0.374,1.694,0.545,2.485c-1.328,2.639-3.512,3.404-6.648,2.751C85.911,85.397,85.174,84.221,84.406,82.987z"/>
	<path fill-rule="evenodd" clip-rule="evenodd" fill="#6CFFCC" d="M352.9,78.088c2.109-1.138,4.913-0.299,5.729,1.845
		c0.363,0.964,0.789,2.214-0.616,2.943c-0.69,0.358-0.643,0.925-0.607,1.63c0.039,0.952-0.646,1.319-1.413,0.758
		c-0.594-0.428-1.033-0.448-1.728-0.325c-1.813,0.312-2.425-0.15-3.22-2.056c-0.869-2.092-0.741-2.793,0.734-3.951
		C352.161,78.641,352.547,78.354,352.9,78.088z"/>
	<path fill-rule="evenodd" clip-rule="evenodd" fill="#6CFFCC" d="M48.43,63.833c0.597,0.7,1.289,1.369,1.801,2.156
		c0.563,0.861,1.104,1.813-0.016,2.75c-0.229,0.2-0.292,0.663-0.322,1.015c-0.156,1.956-1.758,2.813-3.345,1.78
		c-0.3-0.195-0.716-0.496-0.977-0.41c-1.704,0.521-2.092-0.741-2.501-1.844c-0.264-0.729-0.295-1.548-0.406-2.176
		C43.902,64.679,45.956,63.925,48.43,63.833z"/>
	<path fill-rule="evenodd" clip-rule="evenodd" fill="#6CFFCC" d="M282.445,80.387c-1.452,0.841-1.951,2.764-3.956,3.143
		c-2.011,0.377-2.753,0.183-3.811-1.83c-1.135-2.153-0.877-2.985,0.572-4.41c1.458-1.436,3.291-0.816,4.865-1.451
		C281.462,77.109,282.281,78.502,282.445,80.387z"/>
	<path fill-rule="evenodd" clip-rule="evenodd" fill="#6CFFCC" d="M256.168,95.335c0.532,1.026,1.031,1.988,1.582,3.049
		c-1.058,0.979-1.814,1.964-1.425,3.544c0.195,0.795-1.171,1.635-1.895,1.156c-0.786-0.521-1.483-0.558-2.367-0.585
		c-1.418-0.037-2.248-1.12-2.704-2.373c-0.406-1.104-0.265-2.075,0.617-3.05c1.261-1.396,2.475-2.399,4.499-1.568
		C254.908,95.69,255.53,95.411,256.168,95.335z"/>
	<path fill-rule="evenodd" clip-rule="evenodd" fill="#6CFFCC" d="M37.234,155.368c2.053-1.053,3.927-0.436,5.021,1.969
		c0.494,1.083,0.66,2.468,0.502,3.652c-0.09,0.664-1.063,1.349-1.789,1.758c-1.904,1.062-4.168,0.248-5.072-1.98
		C34.85,158.194,34.637,156.565,37.234,155.368z"/>
	<path fill-rule="evenodd" clip-rule="evenodd" fill="#6CFFCC" d="M222.112,61.663c1.084,0.191,2.075,0.668,2.849,0.436
		c1.683-0.512,2.361,0.282,2.896,1.588c0.237,0.581,0.476,1.161,0.769,1.869c-1.099,1.125-2.037,2.422-3.276,3.283
		c-1.652,1.144-3.17,0.734-4.4-0.777c-1.232-1.529-1.215-3.32-0.021-4.725C221.445,62.731,221.854,62.033,222.112,61.663z"/>
	<path fill-rule="evenodd" clip-rule="evenodd" fill="#6CFFCC" d="M314.111,65.379c1.039-0.627,1.898-1.197,2.804-1.673
		c0.406-0.217,0.902-0.269,0.991-0.296c1.461,0.769,2.628,1.385,3.977,2.093c-0.035,1.06-0.022,2.417-0.161,3.761
		c-0.041,0.408-0.404,0.913-0.768,1.127c-0.947,0.56-1.941,1.175-2.995,1.404c-1.022,0.226-1.888-0.348-2.589-1.274
		C314.222,68.999,314.534,67.229,314.111,65.379z"/>
	<path fill-rule="evenodd" clip-rule="evenodd" fill="#6CFFCC" d="M52.399,34.341c-1.34,0.695-2.644,1.372-4.055,2.104
		c-0.987-1.487-2.761-1.944-3.349-3.702c-0.635-1.877-0.288-3.197,1.471-4.197c2.193-1.256,3.551-1.106,4.713,0.714
		c0.482,0.761,0.665,1.718,0.892,2.604C52.242,32.542,52.262,33.26,52.399,34.341z"/>
	<path fill-rule="evenodd" clip-rule="evenodd" fill="#6CFFCC" d="M71.924,91.743c1.357-2.792,3.367-4.096,6.682-3.484
		c1.072,0.883,1.642,2.394,1.965,4.146c-0.844,0.823-2.042,1.333-1.736,2.889c0.123,0.609-0.688,0.941-1.436,0.564
		c-0.539-0.27-1.262-0.779-1.66-0.61c-1.873,0.797-2.424-0.487-3.049-1.716C72.371,92.901,72.128,92.228,71.924,91.743z"/>
	<path fill-rule="evenodd" clip-rule="evenodd" fill="#6CFFCC" d="M61.052,110.856c-1.521,2.684-3.668,3.386-6.028,2.704
		c-1.319-0.382-2.379-1.571-2.402-3.364c0.729-0.666,1.559-1.271,1.13-2.688c-0.305-1.006,1.569-2.084,2.58-1.494
		c0.634,0.369,1.11,0.596,1.892,0.571c1.268-0.042,2.091,0.896,2.346,2.222c0.072,0.387,0.096,0.785,0.19,1.166
		C60.846,110.352,61.002,110.713,61.052,110.856z"/>
	<path fill-rule="evenodd" clip-rule="evenodd" fill="#6CFFCC" d="M200.239,77.161c2.258,1.502,3.24,3.322,2.558,5.795
		c-0.308,1.126-1.344,1.981-3.272,2.677c-0.809-0.597-1.467-1.645-2.944-1.14c-0.782,0.269-1.768-1.594-1.438-2.551
		c0.101-0.288,0.534-0.525,0.519-0.773C195.483,77.79,197.98,77.553,200.239,77.161z"/>
	<path fill-rule="evenodd" clip-rule="evenodd" fill="#6CFFCC" d="M187.728,31.458c0.416,0.8,0.882,1.697,1.264,2.435
		c-0.535,0.993-0.986,1.803-1.4,2.621c-0.807,1.608-2.737,2.429-4.425,1.865c-1.905-0.644-2.894-2.145-2.623-4.017
		c0.274-1.938,1.879-3.33,3.806-3.239C185.358,31.167,186.368,31.315,187.728,31.458z"/>
	<path fill-rule="evenodd" clip-rule="evenodd" fill="#6CFFCC" d="M198.003,164.82c0.34-1.915,0.616-3.479,0.968-5.449
		c0.631-0.327,1.649-0.856,2.511-1.304c0.98,0.545,1.802,0.979,2.598,1.457c1.188,0.711,2.07,3.388,1.582,4.707
		c-0.614,1.646-2.211,2.567-4.033,2.291c-0.375-0.061-0.947-0.169-1.055-0.412C200.058,164.895,199.066,164.673,198.003,164.82z"/>
	<path fill-rule="evenodd" clip-rule="evenodd" fill="#6CFFCC" d="M130.764,47.195c-1.931,1.021-3.246,0.786-4.444-1.109
		c-0.654-1.038-1.07-2.285-1.323-3.493c-0.256-1.227,0.751-2.366,2.264-2.957c1.569-0.621,2.309-0.444,3.357,0.693
		c0.853,0.929,1.586,1.82,1.781,3.209C132.679,45.579,132.53,46.26,130.764,47.195z"/>
	<path fill-rule="evenodd" clip-rule="evenodd" fill="#6CFFCC" d="M270.979,61.366c0.249-0.665,0.686-1.32,0.717-1.998
		c0.072-1.452,1.453-2.573,2.842-2.147c0.652,0.198,1.306,0.389,1.954,0.581c1.073,0.322,1.843,0.951,2.096,2.085
		c0.191,0.848,0.365,1.705,0.536,2.538c-1.511,1.825-3.293,3.192-5.742,2.457C271.888,64.428,270.899,63.19,270.979,61.366z"/>
	<path fill-rule="evenodd" clip-rule="evenodd" fill="#6CFFCC" d="M89.043,12.976c0.873,0.519,1.355,1.539,2.705,1.025
		c0.976-0.368,1.621,0.799,1.969,1.708c0.314,0.811,0.502,1.666,0.731,2.456c-1.519,2.221-3.423,3.54-6.653,2.891
		c-0.53-0.896-1.324-2.228-2.084-3.498c0.57-1.074,1.818-1.36,1.434-2.787C86.826,13.608,88.21,13.444,89.043,12.976z"/>
	<path fill-rule="evenodd" clip-rule="evenodd" fill="#6CFFCC" d="M85.237,49.583c1.656-2.716,3.427-4.376,7.058-3.306
		c0.868,0.615,1.398,2.16,1.648,3.975c-0.361,0.287-0.891,0.505-1.062,0.88c-0.938,2.12-2.973,1.823-4.688,2.152
		c-0.406,0.073-1.105-0.317-1.355-0.698C86.186,51.598,85.714,50.502,85.237,49.583z"/>
	<path fill-rule="evenodd" clip-rule="evenodd" fill="#6CFFCC" d="M115.87,26.444c0.703,1.355,1.384,2.666,2.097,4.041
		c-0.479,0.498-1.107,0.867-1.306,1.395c-0.897,2.441-3.11,1.713-4.841,2.024c-0.389,0.072-1.064-0.624-1.383-1.114
		c-0.46-0.727-0.742-1.572-1.051-2.383c-0.443-1.16,0.65-1.411,1.179-2.032c0.3-0.349,0.231-0.999,0.339-1.516
		c0.192-0.909,0.705-1.151,1.551-0.761C114.053,26.833,114.054,26.827,115.87,26.444z"/>
	<path fill-rule="evenodd" clip-rule="evenodd" fill="#6CFFCC" d="M55.975,81.535c1.469-1.03,2.368-2.631,4.293-2.962
		c1.643-0.279,2.325-0.16,3.159,1.34c0.56,1.006,1.437,1.945,0.921,3.311c-0.438,1.162-2.263,2.557-3.669,2.676
		C57.566,86.15,56.838,85.504,55.975,81.535z"/>
	<path fill-rule="evenodd" clip-rule="evenodd" fill="#6CFFCC" d="M195.352,111.545c0.739,1.424,1.457,2.809,2.165,4.174
		c-0.976,1.072-1.658,2.293-2.699,2.84c-1.04,0.552-2.437,0.435-3.921,0.638c-0.686-1.32-1.398-2.695-2.145-4.134
		c0.571-0.963,1.92-1.445,1.482-2.994c-0.218-0.74,1.411-1.536,1.947-0.91C193.153,112.306,194.175,111.745,195.352,111.545z"/>
	<path fill-rule="evenodd" clip-rule="evenodd" fill="#6CFFCC" d="M295.491,62.284c0.479-0.959,0.899-1.775,1.306-2.604
		c0.903-1.839,2.907-2.643,4.8-1.923c1.858,0.706,2.694,2.435,2.147,4.438c-0.542,1.982-2.331,3.047-4.396,2.605
		c-0.306-0.066-0.642-0.334-0.896-0.266C296.319,65.101,295.917,63.596,295.491,62.284z"/>
	<path fill-rule="evenodd" clip-rule="evenodd" fill="#6CFFCC" d="M222.734,102.499c-0.441-0.605-0.888-1.166-1.281-1.76
		c-0.604-0.92-0.966-1.73,0.134-2.711c0.544-0.482,0.647-1.514,0.828-2.324c0.237-1.039,0.642-1.268,1.649-0.855
		c0.533,0.216,1.134,0.471,1.68,0.425c1.578-0.14,2.56,0.429,2.979,1.912c0.925,3.26-0.737,5.306-4.131,5.142
		C223.979,102.295,223.359,102.436,222.734,102.499z"/>
	<path fill-rule="evenodd" clip-rule="evenodd" fill="#6CFFCC" d="M249.742,16.956c0.287,0.811,1.016,1.784,0.814,2.506
		c-0.335,1.195-1.07,2.431-1.998,3.249c-0.939,0.837-2.143,1.728-3.661,1.239c-1.392-0.444-2.606-1.92-2.696-3.332
		c-0.106-1.608,0.593-2.756,2.082-3.386c1.082-0.454,2.094-1.11,3.371-0.365C248.116,17.132,248.855,16.936,249.742,16.956z"/>
	<path fill-rule="evenodd" clip-rule="evenodd" fill="#6CFFCC" d="M109.18,48.51c0.215-0.997,0.613-2.257,0.711-3.547
		c0.052-0.644-0.172-1.363,0.564-1.596c0.791-0.254,1.752-0.528,2.482-0.303c1.854,0.583,3.279,1.701,3.805,3.783
		c0.389,1.568-0.047,2.592-2.004,3.776c-1.311,0.785-2.651,0.597-3.656-0.435C110.526,49.619,109.883,49.124,109.18,48.51z"/>
	<path fill-rule="evenodd" clip-rule="evenodd" fill="#6CFFCC" d="M233.413,190.299c-1.267-2.439-0.714-4.035,1.848-5.32
		c2.698-1.362,3.923-1.014,5.236,1.489c1.07,2.044,0.582,3.313-1.75,4.542"/>
	<path fill-rule="evenodd" clip-rule="evenodd" fill="#6CFFCC" d="M254.533,75.058c-0.594-1.144-1.099-2.116-1.549-2.985
		c0.875-1.438,1.676-2.758,2.525-4.158c0.537-0.01,1.286,0.075,1.991-0.061c1.411-0.271,2.802,0.248,3.358,1.38
		c0.952,1.942,0.729,3.243-0.64,4.401c-1.199,1.015-2.38,1.826-4.08,1.175C255.767,74.668,255.237,74.936,254.533,75.058z"/>
	<path fill-rule="evenodd" clip-rule="evenodd" fill="#6CFFCC" d="M158.705,109.571c-0.688,0.912-1.241,1.734-0.599,2.841
		c0.19,0.324-0.115,1.063-0.374,1.502c-0.622,1.052-3.22,2.001-4.2,1.631c-1.257-0.476-2.783-2.638-2.748-3.902
		c0.03-0.851,0.073-1.702,0.113-2.688c0.414-0.289,0.933-0.646,1.442-1.016c0.996-0.741,1.796-0.988,2.898,0.104
		C155.996,108.789,157.301,108.984,158.705,109.571z"/>
	<path fill-rule="evenodd" clip-rule="evenodd" fill="#6CFFCC" d="M96.582,4.322c0.813-0.422,1.646-0.854,2.447-1.271
		c0.891,0.448,1.721,0.854,2.53,1.279c1.214,0.636,2.415,3.054,2.136,4.265c-0.34,1.497-2.031,2.854-3.671,2.951
		c-2.12,0.128-3.989-2.198-3.718-4.607C96.395,6.169,96.467,5.403,96.582,4.322z"/>
	<path fill-rule="evenodd" clip-rule="evenodd" fill="#6CFFCC" d="M114.926,17.026c1.562-2.431,3.655-3.392,6.534-3.084
		c0.912,1.115,2.37,2.396,1.803,4.162c-0.688,2.17-3.956,3.847-5.956,3.083C115.497,20.493,115.187,18.58,114.926,17.026z"/>
	<path fill-rule="evenodd" clip-rule="evenodd" fill="#6CFFCC" d="M352.041,57.403c0.326,0.441,0.72,0.941,1.078,1.467
		c0.686,0.996,1.053,1.865-0.164,2.896c-0.533,0.457-0.575,1.532-0.765,2.347c-0.216,0.922-0.752,1.307-1.485,0.709
		c-0.669-0.545-1.147-0.57-1.921-0.344c-0.51,0.146-1.228-0.042-1.718-0.317c-0.906-0.496-1.907-3.417-1.578-4.235
		c0.522-1.305,2.614-2.709,3.927-2.642C350.189,57.317,350.962,57.352,352.041,57.403z"/>
	<path fill-rule="evenodd" clip-rule="evenodd" fill="#6CFFCC" d="M231.467,116.688c-0.208,1.291-0.71,2.475-0.497,3.522
		c0.273,1.373-0.254,1.939-1.302,2.407c-0.654,0.291-1.303,0.57-1.787,0.778c-0.924-0.556-1.659-0.989-2.382-1.444
		c-1.137-0.719-2.103-3.477-1.668-4.717c0.545-1.536,2.626-2.703,4.308-2.379c0.294,0.053,0.726,0.196,0.809,0.416
		C229.425,116.495,230.445,116.731,231.467,116.688z"/>
	<path fill-rule="evenodd" clip-rule="evenodd" fill="#6CFFCC" d="M371.071,53.456c0.586-0.577,1.071-0.829,1.106-1.128
		c0.239-2.192,1.876-2.756,3.607-3.261c1.594-0.473,2.84,0.222,3.716,2.085c0.675,1.444,0.199,2.806-0.816,3.819
		c-1.751,1.744-3.835,1.18-5.759,0.919C372.244,55.795,371.746,54.39,371.071,53.456z"/>
	<path fill-rule="evenodd" clip-rule="evenodd" fill="#6CFFCC" d="M12.138,113.488c-0.422,0.345-0.813,0.746-1.271,1.033
		c-2.177,1.354-2.596,1.31-3.92,0.252c-1.179-0.94-2.605-1.628-2.096-3.563c0.209-0.78-0.847-1.747,0.158-2.411
		c0.979-0.652,2.089-1.122,3.156-1.639c0.189-0.092,0.479-0.055,0.693,0.008c0.91,0.264,2.816,2.907,2.919,3.933
		C11.852,111.873,12.007,112.641,12.138,113.488z"/>
	<path fill-rule="evenodd" clip-rule="evenodd" fill="#6CFFCC" d="M300.07,150.17c-0.501-0.412-0.918-0.975-1.472-1.174
		c-1.637-0.591-2.158-1.722-2.008-3.352c0.062-0.599-0.283-1.441,0.01-1.781c0.709-0.804,1.616-1.523,2.581-1.987
		c0.544-0.263,1.589-0.194,2.015,0.177c0.768,0.674,1.225,1.452,2.525,1.244c0.671-0.104,0.753,0.744,0.412,1.469
		c-0.35,0.742-0.818,1.665-0.652,2.37c0.369,1.541-0.459,2.032-1.578,2.445C301.31,149.802,300.697,149.971,300.07,150.17z"/>
	<path fill-rule="evenodd" clip-rule="evenodd" fill="#6CFFCC" d="M185.02,175.065c1.513-0.754,3.399-0.493,4.388,0.489
		c1.104,1.098,1.388,2.92,0.699,4.442c-0.604,1.336-2.174,2.174-3.729,1.966c-0.548-0.077-1.156-0.422-1.622-0.28
		c-1.205,0.37-1.767-0.167-2.254-1.137c-0.472-0.933-0.626-1.644,0.283-2.527C183.699,177.132,183.563,175.352,185.02,175.065z"/>
	<path fill-rule="evenodd" clip-rule="evenodd" fill="#6CFFCC" d="M2.537,84.321C2.163,83.842,1.916,83.278,1.479,83
		c-1.333-0.849-1.532-1.984-1.47-3.482c0.104-2.303,0.054-2.433,2.048-3.343c0.976-0.45,1.555-0.295,2.488,0.436
		c1.31,1.04,2.374,1.872,2.448,3.739c0.092,2.14-0.509,3.324-2.543,3.787C3.844,84.278,3.199,84.264,2.537,84.321z"/>
	<path fill-rule="evenodd" clip-rule="evenodd" fill="#6CFFCC" d="M152.998,57.619c-1.269-1.286-2.786-2.012-3.407-3.722
		c-0.646-1.796-0.559-2.527,0.983-3.639c0.388-0.275,0.754-0.596,1.169-0.818c1.475-0.783,2.46-0.559,3.542,0.736
		c0.388,0.459,0.792,0.91,1.311,1.501c-0.01,0.516-0.074,1.311-0.011,2.087c0.189,2.065,0.168,2.163-1.677,3.045
		C154.338,57.08,153.75,57.303,152.998,57.619z"/>
	<path fill-rule="evenodd" clip-rule="evenodd" fill="#6CFFCC" d="M29.295,85.419c0.484-0.302,1.153-0.735,1.84-1.136
		c0.904-0.525,1.619-0.578,2.535,0.286c0.789,0.737,2.028,0.985,3.213,1.512c-0.317,1.03-1.15,2.055-0.486,3.423
		c0.163,0.34-0.92,1.538-1.646,1.982c-0.771,0.475-1.804,0.524-2.634,0.737C29.51,90.76,28.585,88.61,29.295,85.419z"/>
	<path fill-rule="evenodd" clip-rule="evenodd" fill="#6CFFCC" d="M111.563,61.7c0.566,1.445,0.896,2.577-0.702,3.406
		c-0.708,2.517-2.989,1.843-4.705,2.247c-0.327,0.076-0.907-0.321-1.164-0.654c-0.479-0.626-0.84-1.347-1.177-2.063
		c-0.481-1.021-0.137-1.662,0.556-2.662c1.332-1.932,3.193-1.881,4.961-1.976C110.045,59.963,110.814,61.098,111.563,61.7z"/>
	<path fill-rule="evenodd" clip-rule="evenodd" fill="#6CFFCC" d="M311.28,21.682c-1.014,0.525-2.055,1.065-3.036,1.575
		c-0.89-0.585-1.684-1.083-2.444-1.617c-1.197-0.85-2.213-3.396-1.808-4.44c0.61-1.568,2.529-2.651,4.296-2.428
		c1.574,0.199,3.205,2.426,3.119,4.258C311.372,19.803,311.337,20.581,311.28,21.682z"/>
	<path fill-rule="evenodd" clip-rule="evenodd" fill="#6CFFCC" d="M219.824,31.256c0.614,1.799,1.567,3.175,0.205,4.623
		c-1.001,1.061-2.146,1.6-3.638,1.339c-1.425-0.246-3.289-2.999-3.051-4.563c0.094-0.603,0.184-1.21,0.236-1.817
		c0.098-1.077,1.93-2.534,2.731-1.928C217.522,29.827,219.476,29.804,219.824,31.256z"/>
	<path fill-rule="evenodd" clip-rule="evenodd" fill="#6CFFCC" d="M214.411,142.803c0.216,1.229,0.563,2.456,0.606,3.687
		c0.042,1.361-3.227,3.107-4.323,2.299c-1.535-1.136-2.867-2.525-3.187-4.535c-0.082-0.506,0-1.171,0.283-1.573
		c0.915-1.304,2.251-2.009,3.854-2.023C213.074,140.643,213.673,141.728,214.411,142.803z"/>
	<path fill-rule="evenodd" clip-rule="evenodd" fill="#6CFFCC" d="M285.921,131.651c0.41,0.791,0.81,1.562,1.166,2.249
		c-0.442,0.865-0.876,1.602-1.216,2.376c-0.876,1.994-2.667,2.829-4.669,2.136c-1.895-0.655-2.906-2.474-2.415-4.343
		c0.553-2.068,2.188-3.104,4.369-2.771C283.994,131.422,284.848,131.516,285.921,131.651z"/>
	<path fill-rule="evenodd" clip-rule="evenodd" fill="#6CFFCC" d="M32.424,37.426c0.965-0.326,1.916-0.638,2.865-0.957
		c0.806,1.222,2.702,0.874,3.34,2.48c0.582,1.48,1.539,2.754,0.344,4.433c-1.333,1.875-5.094,2.2-5.98-0.249
		c-0.461-1.27-1.295-2.375-0.495-3.831C32.719,38.895,32.474,38.237,32.424,37.426z"/>
	<path fill-rule="evenodd" clip-rule="evenodd" fill="#6CFFCC" d="M85.773,126.209c0.246,0.477,0.57,1.1,0.816,1.576
		c-0.404,1.002-0.76,1.858-1.106,2.718c-0.812,2.041-2.753,2.874-4.895,2.091c-1.679-0.613-2.68-2.523-2.218-4.246
		c0.582-2.19,2.367-3.272,4.537-2.771C83.807,125.784,84.713,125.974,85.773,126.209z"/>
	<path fill-rule="evenodd" clip-rule="evenodd" fill="#6CFFCC" d="M359.787,46.48c0.656,0.632,0.983,1.204,1.453,1.365
		c2.278,0.806,2.139,2.897,2.259,4.599c0.092,1.367-1.274,2.145-2.545,2.511c-0.956,0.277-1.786,0.435-2.799-0.492
		c-1.613-1.481-1.788-3.278-1.92-5.155c-0.031-0.432,0.362-1.061,0.744-1.326C357.822,47.406,358.781,47.002,359.787,46.48z"/>
	<path fill-rule="evenodd" clip-rule="evenodd" fill="#6CFFCC" d="M215.561,73.1c0.736,1.419,1.384,2.666,2.008,3.869
		c-0.667,0.856-1.275,1.564-1.791,2.324c-0.536,0.803-1.192,1.268-2.188,1.135c-0.153-0.02-0.314-0.048-0.47-0.042
		c-0.752,0.022-1.75,0.371-2.202,0.021c-0.766-0.594-1.3-1.575-1.717-2.493c-0.401-0.882-0.232-1.618,0.568-2.513
		c1.197-1.332,2.2-2.426,4.168-1.889C214.324,73.617,214.83,73.298,215.561,73.1z"/>
	<path fill-rule="evenodd" clip-rule="evenodd" fill="#6CFFCC" d="M292.009,31.612c-0.832,0.488-1.773,1.039-2.626,1.537
		c-1.947-1.14-3.702-2.148-4.365-4.304c-0.244-0.802-0.397-1.458,0.143-2.242c0.954-1.374,3.096-2.386,4.529-1.982
		c1.083,0.305,2.658,2.908,2.565,4.277C292.198,29.745,292.103,30.591,292.009,31.612z"/>
	<path fill-rule="evenodd" clip-rule="evenodd" fill="#6CFFCC" d="M123.438,121.006c0.022-1.332,0.043-2.521,0.061-3.714
		c0.478-1.874,2.247-2.145,3.831-2.456c1.258-0.246,3.376,2.475,3.383,4.072c0.006,0.775,0.008,1.553,0.011,2.537
		c-0.621,0.377-1.353,0.845-2.104,1.271c-0.994,0.566-1.792,0.644-2.708-0.39C125.306,121.632,124.19,121.382,123.438,121.006z"/>
	<path fill-rule="evenodd" clip-rule="evenodd" fill="#6CFFCC" d="M76.963,157.6c-0.221-0.297-0.484-0.596-0.68-0.931
		c-1.422-2.446-1.4-2.62-0.258-3.942c0.922-1.07,1.577-2.451,3.384-2.254c0.511,0.054,1.067-0.273,1.754-0.467
		c0.401,0.396,0.925,0.779,1.267,1.287c0.708,1.053,1.756,2.31,0.855,3.475c-0.995,1.29-1.891,3.094-4.141,2.697
		C78.48,157.349,77.758,157.543,76.963,157.6z"/>
	<path fill-rule="evenodd" clip-rule="evenodd" fill="#6CFFCC" d="M237.079,175.118c0.466-0.502,0.977-0.799,1.072-1.191
		c0.452-1.823,1.727-2.484,3.416-2.856c1.77-0.389,2.756,0.004,3.775,1.874c0.763,1.398,0.463,2.713-0.772,3.754
		c-1.256,1.056-2.468,2.016-4.288,1.189c-0.421-0.193-1.057,0.087-1.685,0.157C238.101,177.086,237.632,176.184,237.079,175.118z"/>
	<path fill-rule="evenodd" clip-rule="evenodd" fill="#6CFFCC" d="M66.269,131.511c-0.58,0.301-1.211,0.628-1.942,1.008
		c-0.621-0.333-1.257-0.874-1.978-1.024c-1.696-0.335-2.321-1.419-2.653-2.973c-0.399-1.855-0.063-2.953,1.466-3.832
		c1.712-0.995,2.743-0.719,4.245,0.62c1.396,1.244,1.758,2.527,1.056,4.243C66.234,130.102,66.33,130.788,66.269,131.511z"/>
	<path fill-rule="evenodd" clip-rule="evenodd" fill="#6CFFCC" d="M133.607,6.76c0.017,0.658-0.069,1.352,0.068,1.99
		c0.325,1.514-0.136,2.844-1.296,3.426c-2.036,1.025-3.4,0.655-4.649-0.678c-1.479-1.582-1.105-3.391-0.978-5.139
		c0.094-1.345,2.354-2.125,3.521-1.422C131.398,5.607,132.572,6.201,133.607,6.76z"/>
	<path fill-rule="evenodd" clip-rule="evenodd" fill="#6CFFCC" d="M210.298,111.605c-0.299-0.274-0.383-0.318-0.419-0.387
		c-0.567-1.17-1.978-2.252-1.192-3.649c1.118-1.988,2.881-3.427,5.291-3.494c1.409-0.045,1.9,1.332,2.479,2.335
		c0.521,0.92,0.716,1.991-0.15,2.888c-1.262,1.322-2.444,2.808-4.664,2.041C211.267,111.203,210.744,111.504,210.298,111.605z"/>
	<path fill-rule="evenodd" clip-rule="evenodd" fill="#6CFFCC" d="M134.376,54.107c1.09-0.44,1.832-1.548,3.116-0.869
		c2.943,1.559,4.104,2.932,3.962,4.938c-0.105,1.481-0.958,2.472-2.363,3.009c-1.328,0.502-2.202,0.17-3.39-0.84
		c-1.451-1.236-1.979-2.552-1.278-4.379C134.603,55.493,134.407,54.883,134.376,54.107z"/>
	<path fill-rule="evenodd" clip-rule="evenodd" fill="#6CFFCC" d="M202.305,17.526c-1.434,0.762-5.231,0.071-5.845-1.074
		c-0.657-1.218,0.795-4.57,2.364-5.465c1.752-1.002,3.89-0.348,4.877,1.502C204.867,14.657,204.378,16.413,202.305,17.526z"/>
	<path fill-rule="evenodd" clip-rule="evenodd" fill="#6CFFCC" d="M165.323,93.044c-0.158-0.167-0.309-0.271-0.367-0.401
		c-0.436-1.008-1.333-2.125-1.147-3.013c0.231-1.117,1.309-2.087,2.123-3.033c0.261-0.304,0.849-0.372,1.297-0.461
		c0.77-0.156,1.553-0.245,2.541-0.39c0.464,0.444,1.112,0.931,1.576,1.55c0.76,1.002,1.23,2.371,0.413,3.319
		c-0.953,1.099-1.659,2.867-3.715,2.52C167.208,92.996,166.341,93.071,165.323,93.044z"/>
	<path fill-rule="evenodd" clip-rule="evenodd" fill="#6CFFCC" d="M221.342,163.317c1.783-0.906,2.484-0.814,3.803,0.34
		c0.333,0.287,0.702,0.62,1.11,0.72c1.626,0.409,1.557,0.346,0.924,1.752c-0.47,1.041-0.736,2.177-1.045,3.283
		c-0.326,1.173-1.1,1.587-2.237,1.142c-0.419-0.168-0.853-0.336-1.297-0.441c-2.046-0.465-3.364-2.02-3.255-4.014
		C219.424,164.706,220.153,163.716,221.342,163.317z"/>
	<path fill-rule="evenodd" clip-rule="evenodd" fill="#6CFFCC" d="M244.214,84.169c0.109,0.162,0.279,0.429,0.461,0.689
		c0.716,1.031,0.902,1.738,0.036,3.097c-0.816,1.29-1.552,2.184-2.926,2.797c-1.353,0.607-2.526,0.513-3.505-0.463
		c-1.068-1.054-1.48-2.454-1.148-3.947c0.26-1.145,3.165-2.775,4.469-2.586C242.432,83.874,243.26,84.016,244.214,84.169z"/>
	<path fill-rule="evenodd" clip-rule="evenodd" fill="#6CFFCC" d="M194.963,147.784c1.441-0.741,2.701-0.703,3.733,0.319
		c1.167,1.157,2.216,2.639,1.414,4.233c-0.481,0.947,0.121,2.167-1.146,2.938c-1.381,0.834-1.992-0.568-3.042-0.609
		c-2.14-0.093-2.519-2.002-3.074-3.509C192.431,150.007,193.513,148.53,194.963,147.784z"/>
	<path fill-rule="evenodd" clip-rule="evenodd" fill="#6CFFCC" d="M264.36,26.053c0.55-0.965,0.998-1.776,1.476-2.573
		c1.357-2.255,4.748-2.606,6.267-0.652c0.846,1.095,1.232,3.03,0.482,3.807c-1.087,1.112-2.211,2.355-4.011,2.268
		c-0.617-0.029-1.253-0.054-1.831-0.228c-0.551-0.17-1.172-0.427-1.515-0.841C264.79,27.307,264.604,26.575,264.36,26.053z"/>
	<path fill-rule="evenodd" clip-rule="evenodd" fill="#6CFFCC" d="M65.935,63.792c-0.638,0.742-1.229,1.155-1.42,1.703
		c-0.737,2.134-2.733,2.104-4.333,2.385c-1.219,0.209-2.105-0.994-2.577-2.14c-0.463-1.131-0.528-2.192,0.33-3.337
		c1.531-2.027,3.61-1.96,5.737-1.842c0.32,0.021,0.721,0.361,0.908,0.668C65.072,62.028,65.466,62.889,65.935,63.792z"/>
	<path fill-rule="evenodd" clip-rule="evenodd" fill="#6CFFCC" d="M138.136,176.824c-0.919-2.414-0.468-3.907,1.729-5.228
		c0.495-0.301,1.262-0.449,1.807-0.308c1.205,0.316,2.384,0.795,3.506,1.347c0.89,0.441,1.052,1.387,0.403,2.184
		c-0.779,0.965-1.205,1.94-1.139,3.227c0.052,0.977-0.901,1.453-1.609,0.804c-0.639-0.584-1.078-0.618-1.871-0.425
		C139.679,178.735,138.582,178,138.136,176.824z"/>
	<path fill-rule="evenodd" clip-rule="evenodd" fill="#6CFFCC" d="M138.812,146.332c-1.553,1.534-2.125,1.825-4.107,2.125
		c-2.562-1.388-3.473-3.558-3.25-6.434c0.225-0.197,0.546-0.558,0.936-0.804c2.568-1.649,3.574-1.523,5.574,0.816
		c0.382,0.45,0.583,1.118,0.686,1.719C138.792,144.59,138.764,145.453,138.812,146.332z"/>
	<path fill-rule="evenodd" clip-rule="evenodd" fill="#6CFFCC" d="M172.372,124.022c-0.404,0.621-1.01,1.166-1.116,1.801
		c-0.396,2.306-2.207,2.479-3.92,2.75c-1.204,0.194-2.522-0.785-3.145-2.139c-0.606-1.33-0.397-2.461,0.567-3.479
		c1.21-1.275,2.442-2.264,4.372-1.414c0.523,0.227,1.223,0.045,1.98,0.051C171.517,122.373,171.946,123.202,172.372,124.022z"/>
	<path fill-rule="evenodd" clip-rule="evenodd" fill="#6CFFCC" d="M72.695,170.065c0.266,1.146,0.617,2.277,0.739,3.437
		c0.05,0.447-0.292,1.148-0.673,1.383c-0.926,0.581-1.961,0.999-2.994,1.374c-0.283,0.103-0.826-0.077-1.059-0.317
		c-1.088-1.13-2.287-2.191-2.715-3.813c-0.349-1.321-0.043-2.271,1.124-3.045c0.199-0.135,0.415-0.234,0.626-0.35
		C70.158,167.355,71.143,167.636,72.695,170.065z"/>
	<path fill-rule="evenodd" clip-rule="evenodd" fill="#6CFFCC" d="M333.534,60.256c0.269-0.202,0.521-0.389,0.766-0.584
		c2.967-2.337,4.816-0.748,6.304,2.837c0.668,1.609,0.391,2.819-1.154,3.496c-0.954,0.426-2.428,0.985-3.043,0.569
		c-1.196-0.818-2.834-1.608-2.85-3.514C333.548,62.206,333.542,61.355,333.534,60.256z"/>
	<path fill-rule="evenodd" clip-rule="evenodd" fill="#6CFFCC" d="M316.739,37.246c-2.531-1.535-4.194-3.283-3.469-6.601
		c1.03-0.854,2.254-2.117,4.032-1.999c1.064,0.899,2,1.687,3.049,2.575c-0.036,0.598-0.327,1.584-0.074,2.406
		c0.404,1.311-0.103,1.979-1.131,2.5C318.368,36.519,317.562,36.863,316.739,37.246z"/>
	<path fill-rule="evenodd" clip-rule="evenodd" fill="#6CFFCC" d="M226.958,12.76c0.992,1.324,0.533,2.709-0.36,3.895
		c-0.941,1.244-2.323,1.594-3.868,1.185c-0.746-0.192-1.502-0.335-2.247-0.535c-0.876-0.236-1.387-1.374-1.039-2.271
		c0.217-0.575,0.468-1.135,0.658-1.719c0.493-1.577,1.708-2.737,3.208-2.799C224.793,10.462,226.194,10.809,226.958,12.76z"/>
	<path fill-rule="evenodd" clip-rule="evenodd" fill="#6CFFCC" d="M62.002,157.784c-0.534,0.509-1.154,0.861-1.417,1.391
		c-0.958,1.924-2.962,1.2-4.418,1.831c-0.187,0.078-0.602-0.187-0.814-0.388c-0.288-0.268-0.519-0.609-0.712-0.952
		c-0.536-0.949-1.648-2.005-0.892-3.015c0.979-1.311,1.821-2.977,3.961-3.008C60.639,153.6,61.168,154.004,62.002,157.784z"/>
	<path fill-rule="evenodd" clip-rule="evenodd" fill="#6CFFCC" d="M228.392,45.331c0.939-0.611,1.881-0.938,2.806,0.314
		c0.344,0.463,1.104,0.598,1.625,0.965c0.968,0.688,1.647,3.494,1.146,4.526c-0.675,1.392-2.46,2.292-3.978,2.015
		c-1.72-0.317-3.335-2.495-3.111-4.2c0.063-0.469,0.332-0.988,0.202-1.383C226.67,46.324,227.34,45.795,228.392,45.331z"/>
	<path fill-rule="evenodd" clip-rule="evenodd" fill="#6CFFCC" d="M245.269,158.526c0.326-0.282,0.592-0.65,0.938-0.78
		c1.007-0.379,2.429-1.235,2.996-0.862c1.279,0.844,2.898,1.6,3.158,3.584c0.305,2.328-0.088,3.517-1.875,4.263
		c-2.31,0.968-4.701-0.621-5.023-3.364C245.362,160.508,245.343,159.639,245.269,158.526z"/>
	<path fill-rule="evenodd" clip-rule="evenodd" fill="#6CFFCC" d="M281.596,144.893c1.613,1.357,0.714,2.453,0.314,3.852
		c-0.572,2.035-1.888,2.593-3.558,2.991c-1.407,0.331-2.677-0.394-3.473-1.875c-0.826-1.553-0.612-2.636,0.533-3.847
		c1.313-1.379,2.64-2.236,4.584-1.15C280.409,145.092,281.061,144.897,281.596,144.893z"/>
	<path fill-rule="evenodd" clip-rule="evenodd" fill="#6CFFCC" d="M146.272,94.448c0.868,0.34,1.654,0.643,2.437,0.954
		c1.226,0.479,2.736,3.31,2.435,4.557c-0.354,1.461-2.402,2.948-3.967,2.868c-1.414-0.07-3.729-2.658-3.463-4.26
		C143.988,96.897,144.034,94.861,146.272,94.448z"/>
	<path fill-rule="evenodd" clip-rule="evenodd" fill="#6CFFCC" d="M293.138,15.479c-1.924,1.054-4.722,0.424-5.739-1.329
		c-0.19-0.317-0.406-0.842-0.273-1.091c0.568-1.08,1.086-2.297,1.97-3.073c0.836-0.739,2.091-1.017,3.193-1.425
		c0.238-0.087,0.595,0.114,0.889,0.205c1.734,0.558,2.053,2.094,2.326,3.566C295.84,14.152,294.289,14.701,293.138,15.479z"/>
	<path fill-rule="evenodd" clip-rule="evenodd" fill="#6CFFCC" d="M260.866,7.338c-0.143-0.156-0.367-0.301-0.449-0.501
		c-0.408-0.997-0.774-2.011-1.159-3.02c1.239-1.017,1.513-3.072,3.496-3.278c1.024-0.101,1.899-1.086,3.104-0.115
		c1.268,1.025,1.493,2.38,1.721,3.75c0.071,0.412-0.333,1.021-0.689,1.361C265.265,7.088,265.236,7.072,260.866,7.338z"/>
	<path fill-rule="evenodd" clip-rule="evenodd" fill="#6CFFCC" d="M321.053,125.153c0.684-0.399,1.297-0.755,1.908-1.121
		c0.987-0.588,1.675-0.483,2.71,0.307c1.4,1.057,2.487,1.994,2.651,3.878c0.128,1.454-0.061,2.231-1.44,3.078
		c-1.386,0.85-2.81,0.891-3.716,0.015c-1.261-1.215-2.569-2.412-1.886-4.499C321.429,126.353,321.148,125.763,321.053,125.153z"/>
	<path fill-rule="evenodd" clip-rule="evenodd" fill="#6CFFCC" d="M250.486,9.502c-2.621,1.379-5.523-0.3-5.475-3.129
		c0.024-1.153,0.263-2.323,0.547-3.45c0.22-0.862,1.753-1.325,2.572-0.916c0.62,0.308,1.231,0.663,1.889,0.87
		c1.603,0.509,2.29,1.804,2.406,3.238C252.535,7.58,251.983,8.958,250.486,9.502z"/>
	<path fill-rule="evenodd" clip-rule="evenodd" fill="#6CFFCC" d="M48.808,167.963c0.563-0.292,1.192-0.618,1.919-0.995
		c0.545,0.341,1.101,0.962,1.707,1.021c2.625,0.246,2.801,2.242,3.036,4.108c0.223,1.803-1.913,3.584-3.817,3.345
		c-2.012-0.259-3.748-2.686-3.34-4.648C48.485,169.963,48.604,169.124,48.808,167.963z"/>
	<path fill-rule="evenodd" clip-rule="evenodd" fill="#6CFFCC" d="M280.673,101.491c-0.298-0.406-0.629-0.852-0.952-1.301
		c-0.619-0.844-0.514-1.41,0.063-2.457c0.921-1.68,1.989-2.702,3.812-3.143c1.375-0.334,2.534,0,3.198,1.188
		c0.148,0.273,0.209,0.596,0.313,0.892c0.377,1.05,1,2.311,0.032,3.112c-1.158,0.962-2.298,2.289-4.142,1.973
		C282.245,101.627,281.48,101.583,280.673,101.491z"/>
	<path fill-rule="evenodd" clip-rule="evenodd" fill="#6CFFCC" d="M199.928,43.28c0.322,0.536,0.583,0.93,0.803,1.354
		c0.178,0.35,0.303,0.734,0.478,1.172c-0.383,0.498-1.03,0.952-1.102,1.481c-0.32,2.422-2.149,2.71-3.983,2.958
		c-1.348,0.189-2.255-0.55-2.895-1.695c-0.733-1.302-0.829-2.742,0.008-3.58c1.258-1.257,2.437-2.859,4.675-1.722
		C198.403,43.498,199.138,43.278,199.928,43.28z"/>
	<path fill-rule="evenodd" clip-rule="evenodd" fill="#6CFFCC" d="M277.093,112.72c0.833,0.527,1.563,0.966,2.268,1.44
		c1.08,0.736,2.276,3.674,1.91,4.655c-0.521,1.397-2.16,2.448-3.807,2.448c-1.612,0.001-3.632-2.496-3.543-4.387
		c0.036-0.779,0.056-1.557,0.094-2.561C274.961,113.827,276.066,113.252,277.093,112.72z"/>
	<path fill-rule="evenodd" clip-rule="evenodd" fill="#6CFFCC" d="M241.86,107.905c0.35,0.417,0.593,0.964,0.971,1.086
		c2.389,0.773,2.129,2.89,2.391,4.692c0.066,0.42-0.31,1.113-0.694,1.363c-1.039,0.683-2.188,1.185-3.255,1.738
		c-0.872-0.8-1.458-1.437-2.146-1.94c-0.79-0.58-1.07-1.283-1.085-2.24c-0.069-3.174-0.1-3.177,2.872-4.451
		C241.125,108.062,241.367,108.03,241.86,107.905z"/>
	<path fill-rule="evenodd" clip-rule="evenodd" fill="#6CFFCC" d="M263.669,101.994c1.415-1.002,2.725-2.118,4.207-2.918
		c1.368-0.741,2.372-0.309,3.219,0.997c0.339,0.528,0.674,1.083,0.912,1.67c0.522,1.287,0.257,2.385-0.94,3.086
		c-1.003,0.584-2.126,1.035-3.253,1.303c-2.063,0.484-2.486,0.218-3.258-1.619C264.252,103.792,264.031,103.034,263.669,101.994z"/>
	<path fill-rule="evenodd" clip-rule="evenodd" fill="#6CFFCC" d="M297.056,112.633c-0.688-1.326-1.368-2.638-2.022-3.899
		c0.697-0.848,1.288-1.565,1.879-2.276c0.578-0.688,3.783-1.564,4.577-1.26c0.762,0.303,2.221,2.842,2.193,3.828
		c-0.034,1.064-2.55,3.398-3.757,3.463C299.08,112.536,298.229,112.572,297.056,112.633z"/>
	<path fill-rule="evenodd" clip-rule="evenodd" fill="#6CFFCC" d="M198.029,60.243c0.721,1.389,1.432,2.759,2.186,4.213
		c-0.513,0.452-1.128,0.739-1.284,1.176c-0.849,2.447-3.144,1.663-4.821,2.196c-0.288,0.087-0.876-0.337-1.138-0.675
		c-0.431-0.555-0.733-1.221-1.062-1.854c-0.518-0.997-0.768-1.883,0.489-2.642c0.566-0.343,0.809-1.204,1.359-1.602
		c0.465-0.336,1.168-0.369,1.774-0.479C196.224,60.456,196.929,60.389,198.029,60.243z"/>
	<path fill-rule="evenodd" clip-rule="evenodd" fill="#6CFFCC" d="M103.123,172.137c0.473-1.066,0.467-2.217,0.374-3.453
		c-0.134-1.768,1.49-2.299,2.839-2.812c1.205-0.45,2.418-0.033,3.174,0.971c1.064,1.397,1.867,2.826,0.672,4.581
		c-0.207,0.293-0.125,0.769-0.226,1.145c-0.262,1.033-1.172,1.555-2.132,1.225C106.307,173.266,104.791,172.725,103.123,172.137z"/>
	<path fill-rule="evenodd" clip-rule="evenodd" fill="#6CFFCC" d="M132.509,66.056c0.541,0.592,0.936,1.247,1.516,1.601
		c1.878,1.145,0.932,3.074,1.254,4.596c0.236,1.105-1.328,1.368-2.188,1.877c-0.402,0.24-0.862,0.374-1.301,0.557
		c-0.796-0.56-1.564-1.07-2.295-1.625c-1.555-1.17-1.554-2.982-1.4-4.553c0.13-1.301,1.49-1.963,2.825-2.214
		C131.454,66.192,131.997,66.128,132.509,66.056z"/>
	<path fill-rule="evenodd" clip-rule="evenodd" fill="#6CFFCC" d="M93.556,71.179c-1.083-0.958-1.95-1.718-2.894-2.55
		c-0.005-0.65,0.218-1.652-0.057-2.494c-0.438-1.35,0.196-1.959,1.193-2.463c0.775-0.391,1.588-0.706,2.316-1.028
		c3.326,2.562,3.326,2.562,3.664,6.431C96.541,70.124,95.339,71.301,93.556,71.179z"/>
	<path fill-rule="evenodd" clip-rule="evenodd" fill="#6CFFCC" d="M148.645,18.894c1.196,2.39-0.506,5.402-2.985,5.375
		c-1.29-0.017-2.637-0.371-3.832-0.872c-0.63-0.26-1.153-1.085-0.58-2.03c0.316-0.52,0.465-1.151,0.643-1.747
		c0.506-1.722,2.45-3.029,4.211-2.752C147.397,17.073,148.251,17.864,148.645,18.894z"/>
	<path fill-rule="evenodd" clip-rule="evenodd" fill="#6CFFCC" d="M11.828,88.399c1.04-0.54,2.143-1.111,3.259-1.691
		c0.798,0.516,1.581,1,2.339,1.517c1.125,0.763,1.984,3.464,1.523,4.706c-0.493,1.327-2.549,2.492-4.116,2.329
		c-0.942-0.098-2.853-2.452-2.923-3.644C11.851,90.599,11.853,89.577,11.828,88.399z"/>
	<path fill-rule="evenodd" clip-rule="evenodd" fill="#6CFFCC" d="M93.154,91.16c2.112-1.146,5.22-0.185,6.055,1.757
		c0.434,1.01,0.318,2.096-0.539,2.865c-0.529,0.475-0.67,0.858-0.678,1.593c-0.008,1.33-1.023,1.776-2.079,0.935
		c-0.884-0.693-1.741-0.941-2.844-0.837c-0.985,0.095-1.761-0.706-1.601-1.581c0.221-1.205,0.527-2.41,0.905-3.585
		C92.537,91.81,92.978,91.408,93.154,91.16z"/>
	<path fill-rule="evenodd" clip-rule="evenodd" fill="#6CFFCC" d="M301.77,127.13c-0.529,0.499-1.122,0.851-1.422,1.373
		c-1.046,1.839-2.974,1.244-4.507,1.679c-0.325,0.086-1.062-0.484-1.263-0.91c-0.491-1.041-1.408-2.528-1.034-3.208
		c0.784-1.41,1.785-3.014,3.892-3.098C300.33,122.854,301.064,123.464,301.77,127.13z"/>
	<path fill-rule="evenodd" clip-rule="evenodd" fill="#6CFFCC" d="M343.539,86.249c-0.725,0.375-1.354,0.701-2.099,1.088
		c-0.545-0.321-1.113-0.918-1.734-0.976c-2.354-0.23-2.603-2.108-3.048-3.753c-0.327-1.201,0.604-2.519,1.979-3.201
		c1.592-0.801,2.633-0.668,3.689,0.379c1.384,1.382,2.291,2.831,1.237,4.854C343.376,85.004,343.541,85.561,343.539,86.249z"/>
	<path fill-rule="evenodd" clip-rule="evenodd" fill="#6CFFCC" d="M338.354,108.723c1.27-0.814,2.6-0.863,3.779,0.059
		c1.507,1.174,1.954,2.855,1.407,4.436c-0.202,0.578-0.349,1.184-0.488,1.779c-0.248,1.089-1.122,1.35-1.985,1.248
		c-0.818-0.099-1.601-0.515-2.383-0.839c-1.876-0.777-1.968-2.58-2.168-4.178C336.368,110.015,337.208,109.174,338.354,108.723z"/>
	<path fill-rule="evenodd" clip-rule="evenodd" fill="#6CFFCC" d="M31.556,52.34c0.78-0.442,1.706-0.58,2.924-0.171
		c3.054,1.021,3.089,0.915,2.087,3.984c-0.581,1.765-2.703,3.234-4.482,3.091c-1.26-0.094-2.575-1.456-2.955-3.065
		c-0.303-1.251,0.217-2.411,1.407-3.186C30.804,52.825,31.073,52.653,31.556,52.34z"/>
	<path fill-rule="evenodd" clip-rule="evenodd" fill="#6CFFCC" d="M293.963,94.683c-0.475-0.913-0.943-1.817-1.341-2.583
		c0.496-0.898,0.913-1.639,1.313-2.383c0.602-1.109,3.39-2.438,4.497-2.133c1.628,0.445,2.774,2.181,2.678,4.051
		c-0.083,1.669-2.623,3.479-4.582,3.28C295.761,94.84,294.995,94.776,293.963,94.683z"/>
	<path fill-rule="evenodd" clip-rule="evenodd" fill="#6CFFCC" d="M183.698,159.866c-1.089,0.746-2.244,0.809-3.338,0.049
		c-1.563-1.083-2.377-3.041-1.977-4.521c0.158-0.58,0.317-1.167,0.439-1.761c0.228-1.141,1.421-1.753,2.484-1.264
		c0.565,0.254,1.123,0.532,1.706,0.723c1.46,0.488,2.75,2.119,2.741,3.807C185.748,158.273,185.026,159.314,183.698,159.866z"/>
	<path fill-rule="evenodd" clip-rule="evenodd" fill="#6CFFCC" d="M371.759,87.042c0.361-0.361,0.835-0.602,0.896-0.92
		c0.371-2.024,2.014-2.49,3.587-3.038c1.504-0.524,2.931,0.354,3.832,2.305c0.583,1.262,0.065,2.571-0.927,3.541
		c-1.646,1.607-3.603,1.265-5.529,1.161c-0.359-0.019-0.799-0.502-1.011-0.878C372.26,88.602,372.081,87.897,371.759,87.042z"/>
	<path fill-rule="evenodd" clip-rule="evenodd" fill="#6CFFCC" d="M370.418,68.658c-0.664,0.587-1.215,0.836-1.335,1.216
		c-0.755,2.454-2.926,2.035-4.703,2.341c-0.37,0.067-0.992-0.245-1.201-0.574c-0.587-0.929-1.068-1.933-1.49-2.946
		c-0.132-0.318-0.055-0.819,0.113-1.137c0.891-1.659,4.31-3.164,6.091-2.656c0.4,0.117,0.797,0.54,1.028,0.919
		C369.454,66.69,369.883,67.626,370.418,68.658z"/>
	<path fill-rule="evenodd" clip-rule="evenodd" fill="#6CFFCC" d="M264.642,156.495c-0.659,0.404-1.182,0.762-1.743,1.053
		c-0.599,0.305-1.185,0.397-1.718-0.217c-0.244-0.285-0.613-0.492-0.963-0.654c-1.811-0.842-2.911-2.421-2.71-4.202
		c0.166-1.481,1.136-2.378,2.525-2.868c1.373-0.481,2.028-0.224,3.168,0.743c1.416,1.21,2.096,2.478,1.387,4.335
		C264.415,155.153,264.608,155.763,264.642,156.495z"/>
	<path fill-rule="evenodd" clip-rule="evenodd" fill="#6CFFCC" d="M214.171,46.951c0.207,0.31,0.437,0.553,0.544,0.839
		c0.382,1.018,1.328,2.434,0.969,2.994c-0.842,1.303-1.686,2.993-3.683,3.082c-0.96,0.043-2.059,1.117-2.832-0.113
		c-0.704-1.111-1.324-2.361-1.593-3.63c-0.209-1.001,2.521-3.121,3.8-3.174C212.233,46.915,213.095,46.948,214.171,46.951z"/>
	<path fill-rule="evenodd" clip-rule="evenodd" fill="#6CFFCC" d="M55.999,12.147c0.22,0.267,0.573,0.532,0.706,0.873
		c0.392,1.02,0.693,2.071,1.028,3.106c-1.307,0.94-1.687,2.987-3.757,3.046c-0.695,0.018-1.38,0.323-2.109,0.51
		c-0.383-0.295-0.813-0.533-1.122-0.884c-0.993-1.122-1.936-2.578-1.088-3.878c0.893-1.354,1.997-2.981,4.164-2.696
		C54.506,12.317,55.221,12.183,55.999,12.147z"/>
	<path fill-rule="evenodd" clip-rule="evenodd" fill="#6CFFCC" d="M86.209,107.363c1.158,2.503,0.776,4.054-1.234,5.003
		c-2.318,1.098-3.927,0.441-5.182-2.11c-0.812-1.654,0.149-4.856,1.654-5.532C82.587,104.219,85.501,105.831,86.209,107.363z"/>
	<path fill-rule="evenodd" clip-rule="evenodd" fill="#6CFFCC" d="M246.22,40.531c1.498,2.918,0.836,4.926-1.668,6.118
		c-1.063,0.509-2.098,0.297-2.843-0.506c-0.567-0.616-0.948-1.055-1.935-0.96c-0.886,0.086-1.207-0.707-0.688-1.481
		c0.756-1.134,1.221-2.297,1.146-3.697c-0.046-0.793,0.728-1.318,1.26-0.965c0.96,0.642,1.946,0.311,2.883,0.522
		C245.159,39.742,245.849,40.325,246.22,40.531z"/>
	<path fill-rule="evenodd" clip-rule="evenodd" fill="#6CFFCC" d="M171.871,112.873c-2.071,0.831-2.83,0.614-4.634-1.392
		c-1.824-2.031-1.331-5.086,0.988-6.115c1.886-0.834,3.426-0.219,4.537,2.121c0.481,1.034,0.728,2.314,0.631,3.449
		C173.335,111.614,172.409,112.225,171.871,112.873z"/>
	<path fill-rule="evenodd" clip-rule="evenodd" fill="#6CFFCC" d="M369.499,102.704c-2.453,1.734-5.348,0.749-6.035-2.234
		c-0.211-0.925-0.286-1.883-0.445-3.021c0.432-0.387,0.73-0.835,1.145-1c0.999-0.393,2.404-1.229,3.013-0.852
		c1.313,0.813,3.043,1.667,3.062,3.64C370.243,100.411,370.95,101.682,369.499,102.704"/>
	<path fill-rule="evenodd" clip-rule="evenodd" fill="#6CFFCC" d="M166.118,182.814c0.653-0.39,1.262-0.748,1.953-1.163
		c0.626,0.342,1.211,0.905,1.843,0.97c2.359,0.233,2.634,2.116,3.07,3.772c0.344,1.299-0.619,2.496-2.279,3.27
		c-1.481,0.694-2.409,0.534-3.435-0.555c-1.323-1.4-2.338-2.843-1.191-4.877C166.281,183.876,166.115,183.314,166.118,182.814z"/>
	<path fill-rule="evenodd" clip-rule="evenodd" fill="#6CFFCC" d="M69.962,105.709c1.641,0.172,3.542,0.375,5.528,0.591
		c-0.087,1.571,0.043,3.049-0.308,4.403c-0.402,1.548-1.996,2.026-3.351,2.398c-1.119,0.313-2.041-0.287-2.854-1.261
		C67.189,109.684,67.906,107.884,69.962,105.709z"/>
	<path fill-rule="evenodd" clip-rule="evenodd" fill="#6CFFCC" d="M142.844,127.559c-0.785-1.514-1.501-2.893-2.239-4.316
		c0.624-0.573,1.223-0.908,1.517-1.43c1.09-1.911,3.075-1.352,4.696-1.77c0.271-0.066,0.802,0.264,0.979,0.553
		c0.545,0.883,1.044,1.807,1.396,2.771c0.125,0.328-0.141,0.902-0.387,1.247c-1.146,1.592-2.472,2.91-4.692,2.653
		C143.82,127.232,143.506,127.401,142.844,127.559z"/>
	<path fill-rule="evenodd" clip-rule="evenodd" fill="#6CFFCC" d="M348.632,29.554c0.545-0.283,1.176-0.61,1.793-0.931
		c0.944,0.401,1.876,0.784,2.791,1.194c1.304,0.589,2.408,3.038,2.022,4.459c-0.4,1.511-2.211,2.806-3.787,2.7
		c-2.056-0.136-3.883-2.746-3.401-4.859C348.221,31.375,348.386,30.628,348.632,29.554z"/>
	<path fill-rule="evenodd" clip-rule="evenodd" fill="#6CFFCC" d="M323.304,51.107c-0.97-1.958-0.129-4.151,1.973-5.13
		c2.354-1.098,4.105-0.535,5.227,1.688c0.845,1.656,0.019,3.375-2.154,4.514C326.226,53.298,324.179,52.859,323.304,51.107z"/>
	<path fill-rule="evenodd" clip-rule="evenodd" fill="#6CFFCC" d="M177.882,168.766c-0.007,0.895-0.117,1.774,0.006,2.62
		c0.235,1.599-0.415,2.782-1.967,3.295c-2.809,0.928-4.367,0.109-5.147-2.801c-0.131-0.499-0.014-1.083,0.083-1.613
		c0.06-0.292,0.25-0.622,0.477-0.809c0.875-0.722,0.297-2.565,1.686-2.619c0.952-0.039,1.936,0.741,2.909,1.14
		C176.632,168.274,177.35,168.549,177.882,168.766z"/>
	<path fill-rule="evenodd" clip-rule="evenodd" fill="#6CFFCC" d="M16.545,62.353c0.83-0.132,1.941-0.659,2.432-0.308
		c1.113,0.787,2.014,1.939,2.813,3.076c0.377,0.534,0.424,1.37,0.429,2.072c0.003,0.49-0.326,0.979-0.519,1.459
		c-0.023,0.066-0.115,0.109-0.184,0.15c-1.156,0.65-2.355,2.045-3.632,1.218c-1.432-0.921-2.991-2.024-2.857-4.308
		C15.112,64.319,14.773,62.998,16.545,62.353z"/>
	<path fill-rule="evenodd" clip-rule="evenodd" fill="#6CFFCC" d="M35.452,78.479c-1.67-0.966-3.015-1.732-4.409-2.541
		c-0.037-0.61-0.004-1.369-0.148-2.086c-0.313-1.527,0.357-2.921,1.851-3.646c1.491-0.725,2.924-0.216,4.012,0.885
		c1.66,1.688,1.271,3.715,0.989,5.568C37.633,77.411,36.159,77.951,35.452,78.479z"/>
	<path fill-rule="evenodd" clip-rule="evenodd" fill="#6CFFCC" d="M128.051,106.219c-0.749,0.114-1.792,0.6-2.202,0.275
		c-1.198-0.936-2.929-1.658-2.956-3.476c-0.021-1.174-0.965-2.479,0.792-3.577c2.918-1.813,5.45-0.871,5.989,2.576
		c0.041,0.234,0.01,0.48,0.036,0.717C129.972,105.061,129.974,105.059,128.051,106.219z"/>
	<path fill-rule="evenodd" clip-rule="evenodd" fill="#6CFFCC" d="M199.801,189.91c-1.135-0.253-1.942-0.481-2.765-0.59
		c-1.225-0.169-1.972-0.791-2.488-1.931c-1.279-2.814-0.244-4.902,2.803-5.425c1.977-0.34,4.387,2.093,3.985,4.302
		C201.102,187.572,200.298,188.774,199.801,189.91z"/>
	<path fill-rule="evenodd" clip-rule="evenodd" fill="#6CFFCC" d="M52.247,44.665c1.759-1.69,3.446-0.541,4.885,0.109
		c1.587,0.715,1.884,2.592,1.96,4.129c0.087,1.693-1.502,2.325-2.832,2.86c-1.21,0.49-2.436-0.064-3.257-1.228
		c-0.938-1.339-1.828-2.635-0.772-4.372C52.469,45.771,52.254,45.104,52.247,44.665z"/>
	<path fill-rule="evenodd" clip-rule="evenodd" fill="#6CFFCC" d="M108.885,145.077c-1.328,0.689-2.697,1.399-4.154,2.155
		c-1.016-0.949-2.259-1.683-2.85-2.778c-0.556-1.025-0.419-2.424-0.613-3.881c1.298-0.674,2.67-1.386,4.111-2.134
		c0.994,0.931,2.234,1.671,2.832,2.763C108.777,142.228,108.665,143.621,108.885,145.077z"/>
	<path fill-rule="evenodd" clip-rule="evenodd" fill="#6CFFCC" d="M89.348,157.986c0.459-1.26,0.754-2.036,1.031-2.81
		c0.509-1.436,3.201-2.845,4.734-2.487c1.449,0.339,2.857,2.431,2.713,4.026c-0.205,2.175-3.525,3.936-5.449,2.889
		C91.365,159.051,90.338,158.512,89.348,157.986z"/>
	<path fill-rule="evenodd" clip-rule="evenodd" fill="#6CFFCC" d="M36.764,112.932c-0.701-1.351-1.31-2.523-1.883-3.629
		c0.623-0.84,1.127-1.525,1.639-2.214c1.072-1.437,2.773-1.466,4.285-1.682c0.495-0.077,1.291,0.839,1.702,1.46
		c0.423,0.642,0.62,1.467,0.766,2.239c0.074,0.415-0.013,1.064-0.29,1.304c-1.328,1.149-2.42,2.855-4.65,2.225
		C37.935,112.524,37.429,112.792,36.764,112.932z"/>
	<path fill-rule="evenodd" clip-rule="evenodd" fill="#6CFFCC" d="M230.757,82.69c0.018,0.9,0.061,1.8,0.042,2.7
		c-0.008,0.46-0.149,0.907-0.202,1.364c-0.12,1.103-1.723,2.301-2.711,1.861c-1.93-0.868-3.846-1.738-4.107-4.344
		c-0.162-1.604,0.207-2.581,2.071-3.505c1.473-0.739,2.878-0.458,3.771,0.755c0.281,0.384,0.536,0.787,0.805,1.184
		C230.536,82.698,230.649,82.695,230.757,82.69z"/>
	<path fill-rule="evenodd" clip-rule="evenodd" fill="#6CFFCC" d="M261.21,81.003c0.822,0.347,1.594,0.669,2.363,0.993
		c1.406,0.591,2.728,3.364,2.393,4.834c-0.425,1.871-2.023,2.141-3.448,2.487c-1.171,0.283-2.024-0.303-2.723-1.411
		C257.983,85.022,258.412,82.68,261.21,81.003z"/>
	<path fill-rule="evenodd" clip-rule="evenodd" fill="#6CFFCC" d="M194.245,97.936c-0.749-1.3-0.593-4.402,0.406-5.295
		c0.397-0.355,1.15-0.479,1.722-0.445c0.679,0.041,1.343,0.369,2.011,0.571c1.401,0.42,2.889,3.219,2.502,4.722
		c-0.372,1.433-2.596,2.867-4.066,2.701C195.407,100.032,194.83,98.998,194.245,97.936z"/>
	<path fill-rule="evenodd" clip-rule="evenodd" fill="#6CFFCC" d="M51.37,94.586c-1.021,0.691-2.272,0.705-3.421-0.07
		c-1.142-0.772-2.057-3.376-1.761-4.445c0.165-0.584,0.243-1.185,0.366-1.779c0.174-0.857,1.602-1.922,2.348-1.536
		c1.661,0.877,3.731,1.187,4.263,3.621C53.611,92.419,53.405,93.517,51.37,94.586z"/>
	<path fill-rule="evenodd" clip-rule="evenodd" fill="#6CFFCC" d="M132.96,96.655c-0.072-0.111-0.261-0.456-0.51-0.75
		c-2.482-2.863-0.454-4.887,2.868-6.025c0.596-0.203,1.224-0.305,1.913-0.476c1.602,0.884,1.854,2.591,2.46,4.021
		C138.358,96.135,136.368,97.436,132.96,96.655z"/>
	<path fill-rule="evenodd" clip-rule="evenodd" fill="#6CFFCC" d="M155.297,139.754c-0.727-1.399-1.427-2.75-2.095-4.036
		c0.572-0.764,1.068-1.357,1.494-2.002c1.187-1.75,3.098-1.277,4.735-1.485c0.79-0.098,2.271,2.437,2.241,3.666
		c-0.006,0.402-0.305,0.852-0.585,1.177c-1.097,1.279-2.277,2.422-4.185,2.276C156.47,139.314,156.014,139.563,155.297,139.754z"/>
	<path fill-rule="evenodd" clip-rule="evenodd" fill="#6CFFCC" d="M310.987,113.848c0.996,0.207,1.744,0.422,2.506,0.5
		c2.35,0.253,4.072,3.285,2.985,5.381c-0.685,1.322-2.025,1.843-3.348,2.018c-1.269,0.166-2.324-0.582-2.901-1.747
		c-0.674-1.352-1.42-2.71-0.051-4.173C310.622,115.353,310.714,114.557,310.987,113.848z"/>
	<path fill-rule="evenodd" clip-rule="evenodd" fill="#6CFFCC" d="M96.63,132.229c0.889,1.721,0.847,2.714-0.153,3.713
		c-1.723,1.734-3.182,2.068-4.854,1.141c-0.396-0.218-0.825-0.395-1.262-0.511c-0.954-0.247-1.368-0.674-0.869-1.698
		c0.264-0.543,0.307-1.193,0.434-1.802c0.34-1.554,2.503-3.155,4.084-3.004C95.196,130.182,95.857,130.723,96.63,132.229z"/>
	<path fill-rule="evenodd" clip-rule="evenodd" fill="#6CFFCC" d="M33.048,136.501c0.779,0.132,1.457,0.304,2.14,0.354
		c2.109,0.158,3.88,2.312,3.619,4.391c-0.229,1.864-1.778,2.307-3.129,2.889c-1.115,0.48-2.229-0.003-3.119-1.1
		c-1.274-1.568-1.344-3.071-0.3-4.729C32.583,137.802,32.752,137.192,33.048,136.501z"/>
	<path fill-rule="evenodd" clip-rule="evenodd" fill="#6CFFCC" d="M256.412,132.081c2.063-0.99,4.037-0.318,4.983,1.695
		c0.902,1.919,0.097,4-1.913,4.931c-1.864,0.868-3.809,0.112-4.753-1.841C253.814,134.966,254.509,133,256.412,132.081z"/>
	<path fill-rule="evenodd" clip-rule="evenodd" fill="#6CFFCC" d="M254.446,56.471c-1.164-2.25-0.695-3.702,1.573-4.873
		c1.86-0.959,3.824-0.326,4.822,1.543c1.038,1.941,0.489,3.827-1.412,4.857C257.42,59.091,255.495,58.495,254.446,56.471z"/>
	<path fill-rule="evenodd" clip-rule="evenodd" fill="#6CFFCC" d="M367.575,33.834c2.067-1.066,3.68-0.676,4.643,1.124
		c1.262,2.343,0.776,3.909-1.564,5.111c-2.231,1.14-3.644,0.663-4.899-1.646C364.718,36.526,365.325,34.995,367.575,33.834z"/>
	<path fill-rule="evenodd" clip-rule="evenodd" fill="#6CFFCC" d="M322.335,102.534c-0.07,0.547-0.266,1.229-0.219,1.889
		c0.138,2.129-1.396,2.869-3.244,3.553c-1.371,0.506-2.492-0.202-3.402-1.817c-0.644-1.155-1.167-2.28-0.28-3.55
		c0.939-1.348,2.271-1.988,3.869-1.945c0.489,0.008,0.989,0.396,1.444,0.665C321.145,101.711,321.753,102.143,322.335,102.534z"/>
	<path fill-rule="evenodd" clip-rule="evenodd" fill="#6CFFCC" d="M224.091,149.559c2.306-1.495,3.978-0.375,4.76,1.27
		c1.039,2.19,0.761,3.805-1.851,4.986c-2.102,0.939-3.607,0.494-4.664-1.638C221.322,152.142,221.876,150.683,224.091,149.559z"/>
	<path fill-rule="evenodd" clip-rule="evenodd" fill="#6CFFCC" d="M330.291,95.595c2.286-1.198,3.753-0.683,4.989,1.773
		c0.918,1.817,0.299,3.266-1.863,4.376c-2.075,1.063-3.75,0.718-4.646-1.099C327.363,97.799,328.134,96.653,330.291,95.595z"/>
	<path fill-rule="evenodd" clip-rule="evenodd" fill="#6CFFCC" d="M73.61,28.827c1.156,2.199,0.762,3.712-1.259,4.816
		c-2.102,1.153-3.688,0.604-4.859-1.68c-1.105-2.161-0.68-3.804,1.24-4.842C70.757,26.033,72.455,26.624,73.61,28.827z"/>
	<path fill-rule="evenodd" clip-rule="evenodd" fill="#6CFFCC" d="M94.604,30.692c2.05-1.021,3.773-0.475,4.742,1.502
		c1.031,2.102,0.428,3.904-1.665,4.934c-2.056,1.01-3.852,0.359-4.92-1.784C91.832,33.481,92.525,31.725,94.604,30.692z"/>
	<path fill-rule="evenodd" clip-rule="evenodd" fill="#6CFFCC" d="M239.604,64.938c2.071-1.087,3.854-0.771,4.759,0.834
		c1.338,2.385,0.826,4.151-1.437,5.351c-1.976,1.044-4.012,0.237-4.809-1.487C237.133,67.485,237.491,66.046,239.604,64.938z"/>
	<path fill-rule="evenodd" clip-rule="evenodd" fill="#6CFFCC" d="M17.082,138.752c-1.121-2.179-0.693-3.89,1.197-4.797
		c2.365-1.14,3.773-0.717,4.939,1.489c1.158,2.185,0.66,3.813-1.496,4.938C19.665,141.45,18.211,140.94,17.082,138.752z"/>
	<path fill-rule="evenodd" clip-rule="evenodd" fill="#6CFFCC" d="M114.51,190.528c-0.613-1.085-1.269-2.222-1.528-3.414
		c-0.29-1.326,1.021-2.567,2.978-3.215c1.24-0.413,2.45,0.074,3.226,1.256c1.065,1.628,1.779,3.214,0.075,4.914"/>
	<path fill-rule="evenodd" clip-rule="evenodd" fill="#6CFFCC" d="M21.275,102.827c2.103-1.059,3.881-0.474,4.953,1.644
		c0.938,1.838,0.261,3.864-1.609,4.817c-2.029,1.033-3.895,0.399-4.979-1.691C18.678,105.734,19.339,103.801,21.275,102.827z"/>
	<path fill-rule="evenodd" clip-rule="evenodd" fill="#6CFFCC" d="M136.568,34.637c-2.017,1.059-3.863,0.595-4.879-1.227
		c-1.075-1.922-0.419-3.815,1.715-4.935c2.158-1.132,3.75-0.705,4.844,1.295C139.372,31.824,138.81,33.456,136.568,34.637z"/>
	<path fill-rule="evenodd" clip-rule="evenodd" fill="#6CFFCC" d="M180.454,97.994c2.084-1.274,3.434-1.14,5.175,1.79
		c0.903,1.525,0.094,3.291-1.762,4.297c-2.425,1.308-3.758,0.642-4.713-0.944C177.792,100.845,178.325,99.098,180.454,97.994z"/>
	<path fill-rule="evenodd" clip-rule="evenodd" fill="#6CFFCC" d="M343.036,130.89c-2.186,1.114-3.506,0.673-4.63-1.549
		c-1.159-1.687-0.643-3.617,1.495-4.727c2.175-1.122,3.85-0.577,4.88,1.605"/>
	<path fill-rule="evenodd" clip-rule="evenodd" fill="#6CFFCC" d="M259.447,117.475c1.004,1.984,0.53,3.701-1.27,4.635
		c-2.354,1.228-3.857,0.749-5.081-1.614c-1.028-1.996-0.481-3.738,1.5-4.767C256.69,114.643,258.305,115.227,259.447,117.475z"/>
	<path fill-rule="evenodd" clip-rule="evenodd" fill="#6CFFCC" d="M305.224,41.512c0.342,0.178,0.787,0.526,1.289,0.658
		c2.238,0.603,3.368,1.88,3.515,4.084c0.102,1.48-1.065,2.703-3.193,3.346c-1.182,0.357-2.237-0.072-2.987-1.278
		c-0.376-0.609-0.707-1.248-1.004-1.897c-0.404-0.906-0.126-1.68,0.494-2.412C303.944,43.286,304.477,42.504,305.224,41.512z"/>
	<path fill-rule="evenodd" clip-rule="evenodd" fill="#6CFFCC" d="M257.358,32.521c2.11-1.095,3.713-0.749,4.636,1.085
		c1.246,2.487,0.739,3.922-1.552,5.073c-2.098,1.051-3.392,1.024-5.007-1.783C254.483,35.241,255.272,33.603,257.358,32.521z"/>
	<path fill-rule="evenodd" clip-rule="evenodd" fill="#6CFFCC" d="M167.952,26.729c2.09-1.059,3.802-0.563,4.787,1.381
		c1.064,2.103,0.485,3.979-1.53,4.963c-2.206,1.082-3.92,0.451-5.059-1.869C165.294,29.456,165.992,27.721,167.952,26.729z"/>
	<path fill-rule="evenodd" clip-rule="evenodd" fill="#6CFFCC" d="M228.695,23.045c0.447,0.104,0.896,0.275,1.353,0.301
		c2.464,0.137,3.813,1.262,4.207,3.619c0.055,0.309,0.008,0.639-0.057,0.945c-0.368,1.813-1.938,2.276-3.347,2.715
		c-1.293,0.396-2.225-0.336-2.938-1.503c-1.364-2.222-1.403-2.638,0.046-4.667C228.261,24.03,228.45,23.521,228.695,23.045z"/>
	<path fill-rule="evenodd" clip-rule="evenodd" fill="#6CFFCC" d="M86.783,174.091c-0.117,0.472-0.269,0.918-0.344,1.381
		c-0.327,2.064-1.596,3.439-3.565,3.794c-0.296,0.054-0.625,0.037-0.922-0.02c-1.276-0.242-2.611-1.861-2.897-3.47
		c-0.208-1.17,0.455-2.354,1.734-3.119c2.011-1.198,2.916-1.076,4.587,0.524C85.75,173.537,86.254,173.755,86.783,174.091z"/>
	<path fill-rule="evenodd" clip-rule="evenodd" fill="#6CFFCC" d="M119.07,159.353c-2.15,1.559-3.92,0.108-4.747-1.457
		c-1.003-1.897-0.515-3.696,1.143-4.53c2.642-1.327,3.951-0.991,5.166,1.326C121.76,156.861,121.324,158.159,119.07,159.353z"/>
	<path fill-rule="evenodd" clip-rule="evenodd" fill="#6CFFCC" d="M33.982,124.358c-1.169-2.211-0.787-3.611,1.295-4.729
		c2.164-1.167,3.996-0.658,5.025,1.393c1,2,0.411,3.645-1.625,4.781C36.658,126.933,34.633,126.375,33.982,124.358z"/>
	<path fill-rule="evenodd" clip-rule="evenodd" fill="#6CFFCC" d="M105.31,111.263c1.112,2.127,0.743,3.583-1.161,4.553
		c-2.362,1.207-3.707,0.819-4.885-1.41c-1.276-2.403-0.867-3.731,1.543-5.02C102.729,108.352,104.08,108.917,105.31,111.263z"/>
	<path fill-rule="evenodd" clip-rule="evenodd" fill="#6CFFCC" d="M274.262,42.009c2.124-1.089,3.756-0.659,4.802,1.279
		c1.089,2.009,0.496,3.719-1.691,4.859c-2.234,1.172-3.657,0.775-4.768-1.315C271.436,44.628,271.925,43.204,274.262,42.009z"/>
	<path fill-rule="evenodd" clip-rule="evenodd" fill="#6CFFCC" d="M287.93,69.092c2.114-1.078,3.521-0.649,4.518,1.369
		c1.184,2.396,0.767,3.908-1.38,4.967c-2.093,1.029-3.588,0.434-4.823-1.935C285.23,71.552,285.742,70.202,287.93,69.092z"/>
	<path fill-rule="evenodd" clip-rule="evenodd" fill="#6CFFCC" d="M159.898,7.596c1.208,2.246,0.845,3.419-1.45,4.634
		c-2.069,1.099-3.421,0.696-4.491-1.34c-1.282-2.438-1.017-3.81,0.925-4.836C157.322,4.763,158.575,5.149,159.898,7.596z"/>
	<path fill-rule="evenodd" clip-rule="evenodd" fill="#6CFFCC" d="M163.706,151.875c1.826-1.341,3.936-0.366,4.84,1.7
		c0.832,1.881,0.272,3.673-1.597,4.594c-2.218,1.087-3.965,0.548-4.996-1.547C161.024,154.742,161.707,152.899,163.706,151.875z"/>
	<path fill-rule="evenodd" clip-rule="evenodd" fill="#6CFFCC" d="M172.877,63.321c1.046,2.074,0.521,3.649-1.563,4.7
		c-2.233,1.121-3.621,0.638-4.87-1.698c-1.067-1.99-0.501-3.399,1.818-4.577C170.497,60.618,171.726,61.034,172.877,63.321z"/>
	<path fill-rule="evenodd" clip-rule="evenodd" fill="#6CFFCC" d="M22.607,158.855c-1.056-2.088-0.637-3.894,1.265-4.806
		c1.975-0.943,3.695-0.852,5.011,1.906c0.968,2.033,0.498,3.549-1.466,4.58C25.211,161.699,23.795,161.206,22.607,158.855"/>
	<path fill-rule="evenodd" clip-rule="evenodd" fill="#6CFFCC" d="M177.023,12.159c2.213-1.147,3.963-0.703,4.961,1.347
		c0.784,1.6,0.875,3.54-1.579,4.732c-2.283,1.11-3.883,0.724-4.977-1.406C174.354,14.722,174.837,13.299,177.023,12.159z"/>
	<path fill-rule="evenodd" clip-rule="evenodd" fill="#6CFFCC" d="M122.27,78.242c1.21,2.32,0.861,3.484-1.385,4.669
		c-2.136,1.12-3.646,0.67-4.738-1.424c-1.115-2.15-0.618-4.061,1.486-4.978C119.513,75.684,121.17,75.659,122.27,78.242z"/>
	<path fill-rule="evenodd" clip-rule="evenodd" fill="#6CFFCC" d="M386.8,69.094c-0.125,0.589-0.338,1.247-0.397,1.92
		c-0.184,2.09-2.021,3.847-4.065,3.76c-1.847-0.082-2.496-1.508-3.069-2.931c-0.521-1.3-0.211-2.233,0.906-3.131
		c0.435-0.345,0.854-0.749,1.348-0.968c1.116-0.492,2.213-0.793,3.295,0.254C385.338,68.5,386.119,68.731,386.8,69.094z"/>
	<path fill-rule="evenodd" clip-rule="evenodd" fill="#6CFFCC" d="M323.702,79.758c2.174-1.146,3.357-0.801,4.462,1.3
		c1.207,2.284,0.849,3.642-1.235,4.723c-2.541,1.324-3.664,0.997-5.026-1.468C320.837,82.391,321.402,80.964,323.702,79.758z"/>
	<path fill-rule="evenodd" clip-rule="evenodd" fill="#6CFFCC" d="M114.002,91.006c-0.047,0.105-0.246,0.383-0.279,0.68
		c-0.279,2.444-1.387,3.687-3.699,4.096c-0.231,0.038-0.475,0.039-0.707,0.01c-1.274-0.155-2.563-1.623-2.972-3.374
		c-0.255-1.089,0.271-2.153,1.495-2.92c0.531-0.338,1.075-0.675,1.655-0.915c1.076-0.432,1.996-0.2,2.762,0.718
		C112.713,89.849,113.281,90.307,114.002,91.006z"/>
	<path fill-rule="evenodd" clip-rule="evenodd" fill="#6CFFCC" d="M53.18,142.39c-2.217,1.125-3.307,0.6-4.65-1.589
		c-1.184-1.915-0.042-3.979,1.578-4.807c2.154-1.1,3.778-0.521,4.866,1.75C55.969,139.827,55.415,141.261,53.18,142.39z"/>
	<path fill-rule="evenodd" clip-rule="evenodd" fill="#6CFFCC" d="M217.853,126.586c1.148,2.214,0.73,3.846-1.224,4.797
		c-2.398,1.17-3.614,0.766-4.882-1.605c-1.117-2.087-0.636-3.67,1.448-4.764C215.318,123.894,216.696,124.357,217.853,126.586z"/>
	<path fill-rule="evenodd" clip-rule="evenodd" fill="#6CFFCC" d="M348.222,96.207c2.155-1.118,3.744-0.658,4.789,1.379
		c1.042,2.034,0.517,3.677-1.547,4.791c-2.066,1.116-3.595,0.631-4.716-1.511C345.562,98.602,345.944,97.389,348.222,96.207z"/>
	<path fill-rule="evenodd" clip-rule="evenodd" fill="#6CFFCC" d="M209.257,173.264c2.047-1.087,3.339-0.729,4.337,1.189
		c1.304,2.514,1.065,3.834-0.883,4.826c-2.656,1.359-3.683,1.069-5.04-1.43C206.511,175.717,206.933,174.495,209.257,173.264z"/>
	<path fill-rule="evenodd" clip-rule="evenodd" fill="#6CFFCC" d="M103.039,184.669c-2.201,1.174-3.42,0.765-4.617-1.536
		c-1.108-2.13-0.794-3.464,1.035-4.432c2.602-1.369,3.891-1.034,5.12,1.318C105.713,182.192,105.289,183.471,103.039,184.669z"/>
	<path fill-rule="evenodd" clip-rule="evenodd" fill="#6CFFCC" d="M75.473,44.504c1.05,2.174,0.555,3.701-1.518,4.695
		c-2.227,1.062-3.697,0.417-4.896-2.14c-0.845-1.812-0.144-3.271,2.072-4.322C73.201,41.758,74.379,42.238,75.473,44.504z"/>
	<path fill-rule="evenodd" clip-rule="evenodd" fill="#6CFFCC" d="M120.367,135.374c2.122-1.082,3.165-0.638,4.449,1.898
		c0.972,1.92,0.496,3.339-1.437,4.304c-2.302,1.144-3.768,0.877-4.612-1.047C117.625,137.918,117.356,136.825,120.367,135.374z"/>
</svg>
