<?xml version="1.0" encoding="utf-8"?>
<!-- Generator: Adobe Illustrator 16.0.0, SVG Export Plug-In . SVG Version: 6.00 Build 0)  -->
<!DOCTYPE svg PUBLIC "-//W3C//DTD SVG 1.1//EN" "http://www.w3.org/Graphics/SVG/1.1/DTD/svg11.dtd">
<svg version="1.1" id="Calque_1" xmlns="http://www.w3.org/2000/svg" xmlns:xlink="http://www.w3.org/1999/xlink" x="0px" y="0px"
	 width="370.832px" height="394.475px" viewBox="0 0 370.832 394.475" enable-background="new 0 0 370.832 394.475"
	 xml:space="preserve">
<g>
	<path fill="#6CFFCC" d="M70.448,120.288c-0.243-1.106-0.63-2.11-0.636-3.112c-0.005-0.923,0.388-1.853,0.643-2.908
		c1.67-0.596,3.297-1.638,5.32-0.913c1.052,0.376,1.887,0.841,1.932,2.098c0.032,0.95,0.188,1.916,0.094,2.852
		c-0.282,2.645-2.461,3.871-4.989,2.89C72.074,120.904,71.344,120.628,70.448,120.288z"/>
	<path fill="#6CFFCC" d="M257.181,26.694c0,1.989,0,3.799,0,5.448c-2.461,1.632-4.758,1.681-7.24,0.439
		c-0.133-0.746-0.454-1.604-0.41-2.444c0.066-1.226,0.404-2.437,0.625-3.646c1.737-0.427,3.357-2.142,5.289-0.374
		C255.81,26.451,256.468,26.468,257.181,26.694z"/>
	<path fill="#6CFFCC" d="M50.12,120.205c-0.217-0.896-0.454-1.734-0.62-2.589c-0.443-2.24,0.254-3.644,2.405-4.311
		c1.102-0.34,2.362-0.47,3.491-0.289c1.112,0.183,2.069,1.009,1.986,2.336c-0.089,1.411-0.255,2.832-0.575,4.204
		c-0.238,1.016-2.661,1.718-4.177,1.336C51.862,120.705,51.104,120.479,50.12,120.205z"/>
	<path fill="#6CFFCC" d="M70.448,149.889c1.97-0.716,3.955-0.409,5.908,0.244c0.923,2.231,1.239,4.422-0.525,6.887
		c-1.189,0.095-2.749,0.301-4.304,0.29c-0.459-0.006-1.012-0.562-1.344-1.001C68.567,154.159,69.12,152.047,70.448,149.889z"/>
	<path fill="#6CFFCC" d="M70.729,172.092c-0.907-3.7-0.907-3.7,0.57-6.893c1.593-0.181,3.363-0.375,5.011-0.562
		c2.295,4.521,2.036,3.646,0.547,7.476C74.513,172.777,74.513,172.777,70.729,172.092z"/>
	<path fill="#6CFFCC" d="M137.665,291.674c1.919-0.559,1.919-0.559,2.932-2.24c2.186-0.666,3.285,1.085,4.065,2.371
		c0.636,1.054,0.52,2.791,0.231,4.118c-0.354,1.632-3.076,2.367-4.879,1.567c-0.785-0.349-1.554-0.717-2.39-1.099
		C136.984,294.484,136.99,293.691,137.665,291.674z"/>
	<path fill="#6CFFCC" d="M272.674,181.94c-0.604,0.063-1.146,0.169-1.698,0.169c-0.707,0.002-1.422-0.068-2.156-0.112
		c-0.582-1.031-0.504-2.515-2.146-2.601c-0.255-0.012-0.614-0.709-0.67-1.126c-0.088-0.695,0.033-1.419,0.061-2.077
		c0.913-0.607,1.732-1.194,2.59-1.717c1.459-0.898,3.591-0.739,4.707,0.314c1.218,1.147,1.384,3.203,0.438,4.814
		C273.404,180.278,273.117,181.012,272.674,181.94z"/>
	<path fill="#6CFFCC" d="M250.333,134.471c0.248,0.066,1.267,0.011,1.53,0.438c0.697,1.105,1.341,2.387,1.507,3.66
		c0.369,2.931-1.4,4.525-4.311,3.992c-1.062-0.193-2.118-0.664-3.063-1.203c-1.229-0.705-0.946-4.058,0.314-4.722
		c0.394-0.204,1.051-0.439,1.078-0.716C247.568,134.207,248.8,134.523,250.333,134.471z"/>
	<path fill="#6CFFCC" d="M225.138,281.099c1.034-0.417,2.307-0.417,2.461-1.933c0.033-0.327,0.785-0.726,1.262-0.822
		c0.687-0.141,1.416-0.033,2.156-0.033c0.316,0.697,0.433,1.39,0.842,1.801c1.271,1.298,1.504,2.613,0.791,4.325
		c-0.598,1.437-1.116,2.124-2.584,2.288C226.742,287.108,224.552,284.732,225.138,281.099z"/>
	<path fill="#6CFFCC" d="M55.69,207.758c-0.758,0.1-1.388,0.199-2.023,0.255c-0.315,0.027-0.78,0.116-0.93-0.044
		c-0.939-1.041-2.384-1.704-2.998-2.844c-0.52-0.963-0.144-2.428-0.088-3.667c0.012-0.279,0.293-0.764,0.471-0.774
		c1.466-0.097,2.604-1.324,4.309-0.794c3.181,0.979,4.093,3.277,2.174,6.096C56.26,206.494,56.039,207.084,55.69,207.758z"/>
	<path fill="#6CFFCC" d="M336.628,237.115c0.459,1.307,0.719,2.178,2.073,2.32c1.129,0.122,1.097,1.438,1.034,2.367
		c-0.05,0.935-0.321,1.856-0.509,2.829c-1.748,0.426-3.264,1.618-5.227,0.897c-1.4-0.517-1.678-0.956-2.132-2.463
		c-0.651-2.169,0.517-3.685,1.677-5.069C334.068,237.373,335.411,237.432,336.628,237.115z"/>
	<path fill="#6CFFCC" d="M143.655,159.923c0.072,0.904,0.188,1.928,0.222,2.954c0.017,0.461-0.139,0.932-0.238,1.498
		c-0.968,0.465-2.483,0.25-2.611,1.92c-0.017,0.213-0.763,0.509-1.184,0.531c-0.625,0.034-1.255-0.14-1.925-0.228
		c-0.249-0.501-0.365-1.149-0.752-1.434c-1.405-1.021-1.416-2.281-1.09-3.818c0.53-2.504,2.545-3.701,4.905-2.711
		C141.835,158.996,142.654,159.441,143.655,159.923z"/>
	<path fill="#6CFFCC" d="M266.13,128.676c-0.088-0.408-0.176-0.716-0.228-1.025c-0.42-3.021,2.22-4.639,4.72-4.603
		c2.444,0.036,4.132,2.501,3.336,4.821c-0.355,1.032-0.887,2.031-1.467,2.961c-0.548,0.862-3.363,0.782-3.955-0.074
		c-0.343-0.492-0.466-1.178-0.886-1.57C267.292,128.855,266.651,128.834,266.13,128.676z"/>
	<path fill="#6CFFCC" d="M265.324,304.333c1.725-0.669,3.411-0.977,5.182,0.148c1.428,0.91,2.352,2.522,1.941,4.113
		c-0.1,0.387-0.46,0.805-0.813,1.018c-1.194,0.705-1.211,0.673-1.703,2.07c-1.262,0-2.578,0-3.854,0
		C264.482,309.434,263.957,307.107,265.324,304.333z"/>
	<path fill="#6CFFCC" d="M124.423,52c0.044,2.116-0.857,3.283-3.026,3.469c-1.228,0.107-2.521-0.086-3.723-0.393
		c-1.162-0.293-1.82-1.668-1.764-3.087c0.061-1.479,0.725-2.554,2.002-2.86c0.769-0.176,1.233-0.397,1.549-1.205
		c0.299-0.744,1.09-0.755,1.411,0.02c0.293,0.693,0.686,0.901,1.36,1.102C123.858,49.522,124.39,50.338,124.423,52z"/>
	<path fill="#6CFFCC" d="M117.016,92.313c1.256,0.104,2.567,0.213,3.877,0.326c0.006,1.654,2.24,1.497,2.412,2.752
		c0.177,1.283-0.222,2.643-0.36,3.897c-1.753,0.625-3.229,1.398-5.011,1.004c-1.105-0.243-1.637-0.628-2.085-1.833
		C114.997,96.166,116.131,94.492,117.016,92.313z"/>
	<path fill="#6CFFCC" d="M275.949,155.504c0.608-0.232,1.188-0.274,1.454-0.587c1.023-1.192,2.22-1.313,3.674-1.032
		c2.731,0.526,3.859,2.448,2.794,4.99c-0.332,0.791-0.677,1.569-1.129,2.602c-1.423,0-2.966,0-4.58,0
		c-0.383-1.051-0.306-2.354-1.814-2.523c-0.248-0.024-0.57-0.749-0.598-1.17C275.701,157.082,275.861,156.366,275.949,155.504z"/>
	<path fill="#6CFFCC" d="M292.316,140.84c-0.619,0.044-1.261,0.158-1.886,0.106c-0.36-0.023-0.974-0.286-0.995-0.488
		c-0.155-1.671-1.565-1.798-2.832-2.251c0-1.375,0-2.693,0-3.937c0.912-0.451,1.703-0.794,2.449-1.215
		c1.66-0.938,3.668-0.716,4.797,0.578c1.063,1.221,1.117,3.508,0.109,4.932C293.472,139.255,292.968,139.936,292.316,140.84z"/>
	<path fill="#6CFFCC" d="M67.561,94.293c-0.244-1.078-0.371-2.043-1.726-2.301c-1.261-0.238-0.869-1.505-0.918-2.408
		c-0.044-0.828,0.033-1.566,1.067-1.853c0.586-0.166,1.156-0.506,1.648-0.882c1.599-1.22,3.042-0.017,4.491,0.318
		c0.856,0.202,1.438,2.509,1.173,3.665C72.671,93.577,70.724,94.821,67.561,94.293z"/>
	<path fill="#6CFFCC" d="M287.769,269.322c-1.166,0.098-2.478,0.211-3.832,0.326c-0.471-1.321-0.631-2.412-2.068-2.899
		c-1.316-0.454-0.477-1.956-0.653-3.106c0.582-0.279,1.283-0.407,1.647-0.827c1.24-1.41,2.578-1.502,4.293-0.957
		c2.269,0.724,3.246,2.892,2.024,5.037C288.753,267.641,288.318,268.377,287.769,269.322z"/>
	<path fill="#6CFFCC" d="M128.018,176c0.404,0.713,0.752,1.408,1.173,2.065c1.526,2.406,0.581,4.627-2.124,5.466
		c-1.277,0.397-2.334,0.402-3.368-0.374c-2.225-1.665-2.214-1.682-2.19-4.082c1.195-0.521,2.284-1.206,2.578-2.749
		c0.065-0.329,1.034-0.65,1.599-0.673C126.464,175.621,127.26,175.875,128.018,176z"/>
	<path fill="#6CFFCC" d="M68.202,292.35c-0.007,2.361-1.771,4.242-4.154,4.132c-0.77-0.032-1.854-0.559-2.179-1.181
		c-0.498-0.955-0.708-1.988-1.903-2.396c-0.072-0.021,0.05-1.298,0.243-1.347c1.057-0.271,1.178-1.007,1.443-1.896
		c0.359-1.214,1.81-1.733,3.143-1.387C67.212,288.9,68.208,290.087,68.202,292.35z"/>
	<path fill="#6CFFCC" d="M219.429,223.636c0.022-0.987,0.039-1.96,1.377-2.091c0.223-0.021,0.504-0.145,0.625-0.313
		c1.633-2.138,3.523-0.856,5.156-0.21c1.853,0.741,1.735,4.479-0.101,5.465c-0.69,0.368-1.276,0.492-1.638,1.402
		c-0.426,1.089-2.146,0.933-2.595-0.219c-0.31-0.791-0.586-1.366-1.426-1.718C219.462,225.393,219.408,225.182,219.429,223.636z"/>
	<path fill="#6CFFCC" d="M97.308,341.918c-1.848,0.706-3.385,1.539-5.25,0.896c-1.178-0.405-1.93-0.938-2.067-2.278
		c-0.155-1.44-0.608-2.896,0.923-3.898c0.52-0.344,1.14-0.563,1.599-0.975c1.411-1.238,1.383-1.255,2.622,0.273
		c0.182,0.225,0.47,0.407,0.741,0.521c2.023,0.849,2.334,1.448,1.813,3.545C97.54,340.61,97.441,341.235,97.308,341.918z"/>
	<path fill="#6CFFCC" d="M205.48,205.344c-1.328,0.611-2.805,0.243-2.96,1.889c-0.005,0.093-1.267,0.27-1.333,0.122
		c-0.397-0.849-1.101-1.01-1.881-1.27c-1.493-0.492-1.936-1.704-1.654-4.007c0.173-1.414,1.085-2.371,2.347-2.664
		c1.863-0.43,3.38,0.537,4.967,1.173c0.321,0.13,0.604,0.782,0.62,1.206C205.628,202.968,205.523,204.148,205.48,205.344z"/>
	<path fill="#6CFFCC" d="M162.224,223.802c-1.2-0.921-1.958-1.858-2.92-2.154c-1.482-0.454-1.626-1.331-1.427-2.544
		c0.1-0.634,0.238-1.25,0.387-2.036c1.245-0.464,2.517-1.229,3.855-1.392c2.737-0.323,4.685,1.887,3.91,4.509
		c-0.349,1.188-1.398,2.229-2.317,3.161C163.303,223.764,162.445,223.741,162.224,223.802z"/>
	<path fill="#6CFFCC" d="M268.758,212.996c-2.815,0.584-3.386-1.722-4.464-3.033c-1.029-1.242-0.039-2.741,0.553-3.994
		c0.238-0.5,0.93-0.865,1.488-1.115c1.836-0.826,5.836,1.251,6.013,3.535c0.071,0.969,0.089,1.651-1.073,2.021
		C270.052,210.789,269.035,211.58,268.758,212.996z"/>
	<path fill="#6CFFCC" d="M154.414,192.508c-1.372,0.487-2.484,1.182-3.597,1.192c-1.105,0.009-2.212-0.669-3.507-1.112
		c-0.16-0.967-0.454-2.037-0.47-3.116c-0.011-0.907,0.017-1.961,1.388-2.132c0.35-0.039,0.863-0.471,0.936-0.803
		c0.198-0.879,0.686-1.191,1.504-1.177c0.841,0.013,1.593,0.069,1.753,1.168c0.044,0.31,0.448,0.794,0.708,0.806
		c1.818,0.086,1.698,1.377,1.647,2.572C154.74,190.766,154.541,191.617,154.414,192.508z"/>
	<path fill="#6CFFCC" d="M154.619,330.344c0.31,1.61,1.305,2.974,0.752,4.938c-0.525,1.854-1.76,2.005-3.108,2.366
		c-1.294,0.344-2.329-0.008-3.125-1.114c-0.486-0.673-1.062-1.283-1.582-1.934c-0.642-0.802-0.547-1.638,0.459-2.088
		c0.68-0.308,0.901-0.646,1.095-1.331c0.344-1.258,1.721-1.955,2.942-1.634C152.882,329.764,153.689,330.054,154.619,330.344z"/>
	<path fill="#6CFFCC" d="M288.113,120.368c-0.637,0.047-1.344,0.103-2.053,0.154c-1.199,0.082-2.156-0.02-2.422-1.58
		c-0.111-0.68-0.77-1.427-1.389-1.821c-0.875-0.56-0.682-1.263-0.427-1.863c1.111-2.658,4.314-3.648,6.716-2.152
		c1.311,0.816,1.754,3.354,0.856,4.959C289.025,118.742,288.644,119.416,288.113,120.368z"/>
	<path fill="#6CFFCC" d="M229.364,115.661c-0.148-0.667-0.358-1.434-0.486-2.21c-0.242-1.527,0.117-2.062,1.633-2.883
		c0.342-0.188,0.652-0.622,0.773-1.007c0.287-0.885,0.975-1.092,1.682-0.932c0.531,0.121,1.013,0.559,1.438,0.945
		c0.365,0.34,0.581,1.135,0.919,1.168c1.837,0.185,1.588,1.483,1.511,2.647c-0.052,0.78-0.288,1.544-0.421,2.213
		C234.126,117.11,231.865,117.326,229.364,115.661z"/>
	<path fill="#6CFFCC" d="M211.951,333.592c-0.293,0.787-0.403,2.112-1.117,2.773c-0.797,0.731-2.151,1.155-3.258,1.147
		c-0.752,0-1.775-0.822-2.168-1.555c-0.378-0.705-0.459-1.33-1.39-1.633c-0.879-0.293-0.863-1.401-0.172-1.677
		c1.107-0.437,1.229-1.229,1.566-2.127c0.402-1.078,1.643-1.533,2.81-1.302C210.707,329.717,211.917,331.05,211.951,333.592z"/>
	<path fill="#6CFFCC" d="M355.838,260.464c-0.198,1.452-0.409,2.901-0.563,4.007c-2.429,1.734-4.652,1.648-6.992,0.424
		c-0.153-0.758-0.414-1.59-0.479-2.444c-0.101-1.187-0.194-2.439,1.438-2.814c0.293-0.07,0.652-0.474,0.72-0.775
		c0.216-1.027,0.918-1.204,1.774-1.178c0.818,0.033,1.644,0.101,1.704,1.211C353.521,260.193,354.865,259.623,355.838,260.464z"/>
	<path fill="#6CFFCC" d="M144.978,150.287c-0.027,2.334-1.813,3.972-4.304,3.658c-1.117-0.142-2.323-0.642-3.197-1.341
		c-0.553-0.448-0.773-1.563-0.773-2.379c0.006-0.813,0.237-1.969,0.802-2.354c0.984-0.689,2.285-1.203,3.468-1.236
		C143.595,146.559,145.005,148.003,144.978,150.287z"/>
	<path fill="#6CFFCC" d="M336.915,213.365c-1.593,0-2.913,0-4.182,0c-0.52-1.043-0.984-1.938-1.41-2.848
		c-0.42-0.873,0.271-4.043,0.984-4.59c1.007-0.786,3.518-0.811,4.535,0.008c0.288,0.226,0.397,0.65,0.637,0.943
		c0.31,0.379,0.625,0.793,1.023,1.057c1.199,0.793,1.354,2.582,0.088,2.945C337.269,211.251,337.126,212.137,336.915,213.365z"/>
	<path fill="#6CFFCC" d="M110.722,292.736c-0.321,3.209-2.622,4.883-5.288,3.742c-1.576-0.675-2.113-2.503-1.765-5.142
		c0.183-1.354,0.459-2.444,1.919-2.891c1.394-0.426,2.882-0.409,3.756,0.697C110.102,290.104,110.285,291.52,110.722,292.736z"/>
	<path fill="#6CFFCC" d="M172.081,177.087c-0.078-1.327,0.437-2.511,1.637-2.921c1.333-0.453,2.815-1.463,4.248-0.066
		c0.337,0.329,0.703,0.816,1.101,0.863c1.277,0.163,1.511,0.954,1.521,2.021c0.011,1.129-0.21,1.932-1.527,2.318
		c-0.719,0.215-1.315,1.07-1.809,1.747c-0.835,1.14-1.25,1.173-2.002,0.058c-0.267-0.402-0.664-0.813-1.09-0.983
		C172.606,179.492,172.086,178.801,172.081,177.087z"/>
	<path fill="#6CFFCC" d="M34.018,202.121c0.592-0.359,1.117-0.572,1.499-0.935c2.069-1.946,2.811-2.11,5.228-0.883
		c0.996,0.506,1.487,1.336,1.538,2.508c0.088,2.354-1.571,4.824-3.597,5.114c-0.885,0.13-1.67,0.194-2.03-1.04
		c-0.227-0.771-0.906-1.484-1.543-2.038C33.968,203.855,33.913,203.914,34.018,202.121z"/>
	<path fill="#6CFFCC" d="M171.572,289.258c0.432,0.918,0.797,1.688,1.156,2.467c0.697,1.504,0.277,3.646-0.885,4.588
		c-0.874,0.705-3.855,0.845-4.818,0.226c-1.084-0.695-1.676-3.17-1.084-4.589c0.332-0.797,0.687-1.588,1.117-2.58
		C168.463,288.757,170.062,288.748,171.572,289.258z"/>
	<path fill="#6CFFCC" d="M292.832,294.857c0-1.317-0.117-2.967,0.031-4.591c0.161-1.659,1.317-2.376,3.247-2.296
		c2.19,0.095,3.197,0.85,3.353,2.531c0.032,0.39,0.056,0.791,0.039,1.187c-0.072,1.416,0.061,3.122-1.263,3.86
		C296.636,296.439,294.75,296.664,292.832,294.857z"/>
	<path fill="#6CFFCC" d="M183.055,93.932c-0.055-0.549-0.127-1.096-0.155-1.644c-0.005-0.228,0.088-0.462,0.171-0.824
		c1.151-0.397,2.246-0.948,2.479-2.435c0.139-0.909,0.985-0.986,1.687-0.929c0.78,0.068,1.55,0.326,2.225,0.476
		c0.459,0.752,0.846,1.43,1.271,2.071c1.487,2.256,0.593,4.351-1.937,5.334c-1.691,0.656-2.859,0.437-4.021-0.843
		C184.377,94.697,183.78,94.429,183.055,93.932z"/>
	<path fill="#6CFFCC" d="M2.401,269.156c0.122-2.343,1.897-3.739,4.497-3.371c0.99,0.141,2.059,0.42,2.871,0.965
		c1.185,0.791,1.307,2.201,0.996,3.466c-0.276,1.167-0.896,2.271-2.355,2.329c-1.167,0.047-2.367,0.189-3.496-0.016"/>
	<path fill="#6CFFCC" d="M239.923,182.814c0-1.092-0.012-2.035,0-2.977c0.006-0.965,0.266-1.637,1.416-1.828
		c0.509-0.082,1.045-0.646,1.361-1.125c0.944-1.443,1.504-1.479,2.434-0.094c0.237,0.354,0.586,0.722,0.967,0.877
		c1.582,0.646,1.881,1.012,1.909,2.715c0.038,1.837-0.454,2.307-1.814,3.098c-1.665,0.963-3.054,1.035-4.535-0.236
		C241.345,182.973,240.769,183.008,239.923,182.814z"/>
	<path fill="#6CFFCC" d="M112.514,379.914c-0.314,0.556-0.796,1.139-0.996,1.815c-0.441,1.527-1.35,2.367-2.776,2.34
		c-2.313-0.044-3.38-0.734-3.641-2.526c-0.144-1.004-0.183-2.062-0.05-3.06c0.31-2.225,2.771-3.547,4.801-2.595
		c0.835,0.394,1.632,0.874,1.693,2.085C111.579,378.622,112.16,379.244,112.514,379.914z"/>
	<path fill="#6CFFCC" d="M166.964,92.416c0.314,1.432,0.592,2.469,2.075,2.84c0.983,0.24,0.929,2.033-0.078,2.447
		c-0.764,0.317-1.079,0.631-1.289,1.436c-0.282,1.067-1.543,1.641-2.666,1.404c-0.853-0.174-1.676-0.447-2.456-0.66
		c-1.731-2.396-1.405-4.687,0.62-7.169C164.132,92.643,165.515,92.529,166.964,92.416z"/>
	<path fill="#6CFFCC" d="M162.097,337.082c1.3-0.404,2.406-0.424,2.7-1.933c0.192-0.988,2.301-1.004,2.716-0.005
		c0.354,0.835,0.786,1.128,1.593,1.446c1.084,0.435,1.229,1.58,1.04,2.666c-0.144,0.854-0.381,1.693-0.563,2.453
		c-2.417,1.425-4.691,1.264-7.125-0.494C162.352,340.033,162.224,338.569,162.097,337.082z"/>
	<path fill="#6CFFCC" d="M47.664,333c0.039,2.396-1.997,4.499-4.276,4.235c-1.022-0.12-2.329-0.317-2.329-1.901
		c0-0.777-0.524-0.996-1.167-1.289c-0.863-0.404-0.874-1.183-0.021-1.604c0.652-0.33,0.874-0.711,1.084-1.384
		c0.559-1.753,1.25-2.083,3.308-1.911c2.257,0.191,2.821,0.628,3.169,2.472C47.515,332.09,47.592,332.564,47.664,333z"/>
	<path fill="#6CFFCC" d="M200.535,69.303c-0.896,0.207-1.81,0.514-2.744,0.605c-1.023,0.103-2.118,0.145-2.435-1.28
		c-0.071-0.296-0.453-0.564-0.752-0.753c-1.665-1.039-1.688-2.856-0.039-3.789c0.312-0.176,0.771-0.406,0.813-0.678
		c0.322-1.754,1.621-1.517,2.789-1.371c0.768,0.102,1.51,0.45,2.117,0.642C201.867,64.895,201.591,67.064,200.535,69.303z"/>
	<path fill="#6CFFCC" d="M78.07,269.402c-0.077-1.676-1.554-3.004-0.968-4.959c0.592-1.958,1.106-2.526,3.379-2.539
		c2.435-0.016,3.055,0.597,3.651,2.539c0.603,1.955-0.791,3.298-0.952,4.986C81.433,270.039,79.818,270.125,78.07,269.402z"/>
	<path fill="#6CFFCC" d="M76.903,239.193c-1.155,0-2.239,0-3.435,0c-0.382-1.389-0.907-2.515-2.489-2.896
		c-0.796-0.193-0.913-1.792-0.154-2.215c0.823-0.457,1.178-1.061,1.609-1.831c0.687-1.241,2.03-1.479,3.353-1.309
		c1.167,0.148,1.964,0.722,2.423,1.952c0.658,1.763,0.99,3.303-0.681,4.716C77.168,237.912,77.129,238.593,76.903,239.193z"/>
	<path fill="#6CFFCC" d="M124.439,17.211c-0.011,2.307-1.422,3.687-4.06,3.551c-1.189-0.061-2.495-0.551-3.475-1.236
		c-0.548-0.385-0.708-1.563-0.735-2.396c-0.066-2.179,1.698-3.813,4.093-3.59C123.029,13.793,124.572,14.354,124.439,17.211z"/>
	<path fill="#6CFFCC" d="M122.476,224.471c-0.669,0.875-1.549,1.535-1.698,2.329c-0.319,1.729-1.338,1.966-2.742,1.839
		c-0.625-0.058-1.25-0.113-2.015-0.18c-0.492-1.493-1.211-2.923-1.404-4.42c-0.255-1.993,0.808-3.152,2.716-3.548
		c1.925-0.391,3.507,0.45,4.204,2.156C121.834,223.387,122.266,224.073,122.476,224.471z"/>
	<path fill="#6CFFCC" d="M312.097,213.381c-1.506,0-3.049,0-4.486,0c-1.442-2.465-1.947-4.776-0.11-7.357
		c0.613-0.1,1.537-0.354,2.467-0.384c1.184-0.042,2.457-0.11,2.604,1.673c0.027,0.345,0.742,0.65,1.168,0.931
		c1.033,0.68,1.161,2.346,0.044,2.627C312.351,211.224,312.582,212.344,312.097,213.381z"/>
	<path fill="#6CFFCC" d="M216.111,259.56c-2.45,1.845-4.763,1.383-7.258-0.37c-0.061-1.147-0.143-2.551-0.215-3.884
		c1.172-0.696,2.521-0.548,2.876-2.157c0.243-1.101,1.858-1.039,2.352,0.069c0.286,0.642,0.51,1.009,1.229,1.222
		c1.25,0.365,1.875,1.494,1.637,2.718C216.564,258.008,216.298,258.84,216.111,259.56z"/>
	<path fill="#6CFFCC" d="M247.224,291.19c-0.437,0.098-1.062,0.21-1.664,0.37c-2.146,0.578-2.731,0.274-3.574-1.729
		c-0.147-0.37-0.559-0.674-0.918-0.904c-1.299-0.829-1.276-1.543,0.013-2.389c0.547-0.359,1.261-0.895,1.35-1.435
		c0.248-1.477,1.211-1.551,2.289-1.463c0.791,0.066,1.566,0.288,2.169,0.41C248.64,286.37,249.138,288.668,247.224,291.19z"/>
	<path fill="#6CFFCC" d="M76.809,304.422c0.078,1.211,0.188,2.237,0.194,3.26c0.005,0.46-0.177,0.924-0.194,1.017
		c-1.354,0.942-2.438,1.694-3.688,2.565c-0.925-0.52-2.136-1.134-3.264-1.875c-0.343-0.225-0.625-0.779-0.646-1.2
		c-0.062-1.099-0.149-2.265,0.133-3.306c0.271-1.012,1.178-1.516,2.323-1.711C73.545,302.854,74.972,303.945,76.809,304.422z"/>
	<path fill="#6CFFCC" d="M165.471,320.863c-0.033,2.313-1.449,3.511-4.138,3.493c-2.649-0.011-4.227-1.433-4.165-3.738
		c0.061-2.103,1.743-3.469,4.275-3.469C164.381,317.146,165.504,318.184,165.471,320.863z"/>
	<path fill="#6CFFCC" d="M224.883,86.408c0-1.511,0-2.979,0-4.568c1.776-0.191,2.998-1.555,4.829-1.269
		c1.958,0.303,2.971,1.218,3.048,3.239c0.104,2.524-0.653,3.661-2.805,3.854c-0.896,0.078-1.831-0.201-2.723-0.408
		C226.554,87.097,225.907,86.784,224.883,86.408z"/>
	<path fill="#6CFFCC" d="M164.94,77.304c1.854,2.491,2.085,4.876,0.018,7.536c-1.278,0.545-2.882,0.354-4.585-0.166
		c-0.344-1.128-0.243-2.426-1.766-2.871c-0.597-0.171-0.52-1.045,0.161-1.534c0.487-0.354,1.272-0.761,1.305-1.191
		c0.155-2.029,1.55-1.929,2.927-1.916C163.707,77.168,164.415,77.262,164.94,77.304z"/>
	<path fill="#6CFFCC" d="M152.981,58.852c-1.682-2.586-1.315-4.814,0.376-6.597c0.946-0.995,2.489-1.388,4.094-0.583
		c0.254,0.953,0.408,1.969,1.863,2.24c1.035,0.192,1.128,2.354,0.14,2.979c-0.62,0.394-1.04,0.711-1.377,1.416
		c-0.549,1.146-1.76,1.443-3.054,1.06c-0.376-0.113-0.74-0.276-1.123-0.367C153.523,58.9,153.131,58.873,152.981,58.852z"/>
	<path fill="#6CFFCC" d="M326.87,181.736c-0.536-1.718-1.211-3.396-0.657-5.284c0.358-1.236,1.034-2.003,2.317-1.998
		c1.156,0.009,2.383-0.397,3.424,0.569c1,0.94,1.449,3.084,0.847,4.642C331.644,182.665,330.383,183.107,326.87,181.736z"/>
	<path fill="#6CFFCC" d="M118.792,197.918c-2.373,1.313-4.442,1.347-6.322-0.398c-0.857-0.791-1.14-2.104-0.869-4.137
		c0.902-0.443,2.135-0.545,2.368-2.089c0.122-0.818,2.229-0.835,2.926-0.104c0.21,0.223,0.222,0.718,0.448,0.816
		C120.424,193.407,119.483,195.732,118.792,197.918z"/>
	<path fill="#6CFFCC" d="M165.123,207.86c-0.902,0-1.914,0-2.744,0c-0.636-0.933-1.146-1.706-1.683-2.449
		c-1.056-1.457-0.896-3.55,0.383-4.787c1.448-1.396,3.235-1.58,4.772-0.479c1.593,1.138,2.091,3.202,1.123,4.87
		C166.472,205.891,165.875,206.719,165.123,207.86z"/>
	<path fill="#6CFFCC" d="M196.131,249.063c-1.034,0.036-2.202,0.116-3.368,0.098c-0.359-0.007-0.979-0.238-1.022-0.456
		c-0.312-1.6-1.781-2.785-1.405-4.657c0.349-1.728,1.306-2.785,3.175-2.921c2.285-0.163,3.723,0.648,3.955,2.492
		c0.121,0.962-0.154,2.003-0.376,2.97C196.917,247.341,196.535,248.043,196.131,249.063z"/>
	<path fill="#6CFFCC" d="M42.011,155.564c1.543,1.185,2.805,2.148,4.392,3.368c0,0.711,0,1.858,0,2.829
		c-0.935,0.619-1.697,1.148-2.488,1.635c-1.179,0.729-3.96,0.277-4.906-0.764c-1.178-1.303-1.261-3.146-0.177-4.635
		c0.227-0.306,0.586-0.765,0.852-0.746C40.999,157.354,41.651,156.576,42.011,155.564z"/>
	<path fill="#6CFFCC" d="M152.61,373.221c-0.231-0.738-0.426-1.416-0.651-2.08c-0.521-1.522-0.145-2.701,1.261-3.33
		c0.597-0.266,0.99-0.428,1.338-1.104c0.703-1.377,2.02-1.176,2.811,0.257c0.281,0.512,0.669,1.17,1.155,1.339
		c0.824,0.285,1.639,0.556,1.488,1.516c-0.155,0.974-0.481,2.02-1.045,2.802c-0.481,0.652-1.372,1.088-2.168,1.414
		c-0.525,0.215-1.229,0.189-1.81,0.065C154.231,373.938,153.518,373.566,152.61,373.221z"/>
	<path fill="#6CFFCC" d="M143.711,350.598c0,1.057,0,2.151,0,3.175c-0.968,0.589-1.831,1.112-2.688,1.632
		c-1.521,0.912-3.655,0.563-4.757-0.791c-1.211-1.479-1.123-3.602,0.205-5.009c1.233-1.303,3.263-1.507,4.779-0.503
		C141.952,349.571,142.698,349.988,143.711,350.598z"/>
	<path fill="#6CFFCC" d="M271.867,195.391c-0.835,0.426-1.395,1.187-1.626,2.373c-0.243,1.244-1.627,1.744-3.368,1.617
		c-1.429-0.105-2.605-0.921-2.838-2.124c-0.312-1.638-0.604-3.136,0.973-4.604c0.908-0.847,1.25-2.21,2.865-1.751
		c0.354,0.104,0.741,0.303,0.969,0.581C269.847,192.721,270.804,194.004,271.867,195.391z"/>
	<path fill="#6CFFCC" d="M177.386,150.049c-0.017-2.184,0.796-3.244,3.031-3.435c1.222-0.104,2.521,0.103,3.711,0.435
		c1.206,0.338,1.753,1.756,1.582,3.371c-0.171,1.679-0.669,2.254-2.163,2.66c-1.217,0.33-2.345,0.569-3.667,0.104
		C177.938,152.492,177.402,152.047,177.386,150.049z"/>
	<path fill="#6CFFCC" d="M342.834,146.676c1.078-0.305,2.306-0.244,2.766-1.754c0.193-0.625,1.188-0.486,1.726,0.268
		c0.388,0.54,0.842,1.343,1.355,1.416c1.555,0.244,1.688,1.24,1.647,2.427c-0.021,0.788-0.127,1.579-0.211,2.473
		c-0.651,0.246-1.448,0.326-1.919,0.758c-1.87,1.723-3.406-0.102-5.083-0.352c-0.26-1.277-0.586-2.547-0.752-3.842
		C342.308,147.651,342.652,147.182,342.834,146.676z"/>
	<path fill="#6CFFCC" d="M233.811,201.699c0.421-0.084,0.735-0.218,1.04-0.194c1.224,0.077,2.838-0.575,3.49,0.814
		c0.818,1.742,1.825,3.615,0.774,5.688c-0.549,1.079-2.202,1.851-3.694,1.671c-1.521-0.183-2.938-1.319-3.01-2.646
		c-0.062-1.159-0.32-2.38,0.618-3.434C233.418,203.156,233.518,202.459,233.811,201.699z"/>
	<path fill="#6CFFCC" d="M100.234,267.984c0.477,0.527,0.857,1.218,1.443,1.558c1.256,0.731,1.615,2.475,0.598,3.512
		c-0.476,0.487-0.945,0.979-1.416,1.467c-0.779,0.806-1.692,1.197-2.814,0.9c-0.841-0.221-1.683-0.461-2.5-0.693
		c-0.924-2.182-1.316-4.393,0.465-6.229C97.098,267.381,98.652,267.074,100.234,267.984z"/>
	<path fill="#6CFFCC" d="M226.974,128.773c-0.863,0.536-1.991,0.494-2.157,1.931c-0.122,1.034-1.454,1.069-2.423,0.96
		c-0.863-0.095-1.709-0.321-2.517-0.481c-1.272-2.37-1.565-4.668,0.498-7.237c1.04-0.058,2.589-0.148,4.064-0.237
		c0.691,1.001,0.371,2.239,1.814,2.556C227.433,126.516,226.941,127.818,226.974,128.773z"/>
	<path fill="#6CFFCC" d="M196.231,108.537c1.648,2.721,2.308,5.058-0.314,7.787c-0.945,0.486-2.562,0.245-4.287-0.367
		c-0.088-0.453-0.038-1.023-0.293-1.349c-1.449-1.809-0.248-3.479,0.249-5.151c0.122-0.396,0.791-0.835,1.245-0.882
		C194.007,108.451,195.197,108.537,196.231,108.537z"/>
	<path fill="#6CFFCC" d="M202.664,146.385c-1.526,0-3.004,0-4.554,0c-0.221-0.655-0.26-1.383-0.635-1.801
		c-1.754-1.922-0.09-3.551,0.433-5.229c0.114-0.379,1.045-0.658,1.625-0.714c0.856-0.074,1.736,0.064,2.6,0.164
		c1.234,0.141,0.952,1.229,1.262,1.982c0.172,0.426,0.779,0.666,1.189,0.998c0.719,0.59,0.697,1.155-0.039,1.727
		C203.156,144.593,203.162,144.596,202.664,146.385z"/>
	<path fill="#6CFFCC" d="M181.346,67.848c0.238,1.778,1.245,3.313,0.653,5.175c-0.51,1.587-0.931,2.139-2.646,2.188
		c-1.149,0.033-2.389,0.379-3.362-0.708c-0.83-0.924-1.229-3.187-0.687-4.488C176.517,67.135,177.424,66.785,181.346,67.848z"/>
	<path fill="#6CFFCC" d="M173.331,258.622c2.355-1.819,4.568-2.489,7.157-0.451c0.149,0.487,0.542,1.369,0.637,2.282
		c0.071,0.648-0.057,1.521-0.454,1.989c-0.879,1.047-2.518,1.177-3.236,2.623c-0.188,0.385-1.277,0.071-1.632-0.811
		c-0.21-0.534-0.669-1.088-1.167-1.358c-1.743-0.945-1.814-0.971-1.565-2.82C173.143,259.523,173.265,258.984,173.331,258.622z"/>
	<path fill="#6CFFCC" d="M247.236,130.617c-0.817,0.463-1.433,0.797-2.034,1.137c-0.066,0.042-0.117,0.119-0.185,0.158
		c-1.139,0.719-3.639,0.479-4.701-0.445c-0.719-0.633-1.194-3.554-0.607-4.464c0.304-0.479,0.835-1.016,1.345-1.117
		c0.807-0.166,1.194-0.427,1.51-1.226c0.338-0.85,1.25-0.896,1.631-0.107c0.531,1.12,1.278,1.689,2.439,2.041
		c0.426,0.125,0.88,0.91,0.918,1.424C247.617,128.869,247.357,129.75,247.236,130.617z"/>
	<path fill="#6CFFCC" d="M177.225,274.375c-0.028-2.607,0.99-3.582,3.817-3.673c2.334-0.069,4.23,1.552,4.159,3.673
		c-0.027,0.847-0.083,2.074-0.604,2.428c-0.985,0.673-2.301,1.109-3.501,1.17C178.393,278.117,177.253,276.931,177.225,274.375z"/>
	<path fill="#6CFFCC" d="M286.558,169.074c1.494-1.229,2.655-2.121,3.744-3.099c0.919-0.832,1.328-0.846,2.23,0.113
		c0.26,0.279,0.563,0.522,0.861,0.764c1.886,1.508,2.245,3.197,1.102,5.226c-0.73,1.303-3.573,2.16-4.918,1.104
		C288.223,172.115,286.625,170.938,286.558,169.074z"/>
	<path fill="#6CFFCC" d="M262.718,235.794c-0.16,0.517-0.211,1.057-0.349,1.081c-1.428,0.264-1.444,1.685-2.175,2.498
		c-0.72,0.788-1.626,0.893-2.799,0.729c-2.329-0.327-2.865-1.941-3.229-3.729c-0.398-1.908,2.638-4.896,4.542-4.498
		c0.44,0.092,1.026,0.56,1.145,0.966c0.293,1.023,0.808,1.635,1.849,1.944C262.115,234.917,262.408,235.471,262.718,235.794z"/>
	<path fill="#6CFFCC" d="M90.521,177.745c-1.604,0-3.164,0-4.702,0c-0.503-1.36-1.271-2.528-1.277-3.704
		c-0.012-1.179,0.735-2.363,1.238-3.774c1.488,0,3.037,0,4.657,0c0.592,0.951,0.398,2.37,1.976,2.694
		c0.758,0.147,0.714,1.961-0.088,2.147C90.858,175.443,90.886,176.608,90.521,177.745z"/>
	<path fill="#6CFFCC" d="M231.355,256.111c0,1.584,0,3.121,0,4.775c-1.809,0.183-3.037,1.547-4.885,1.203
		c-1.857-0.343-2.826-1.185-2.97-3.063c-0.243-3.367,1.466-4.597,5.249-3.782C229.507,255.408,230.232,255.734,231.355,256.111z"/>
	<path fill="#6CFFCC" d="M304.884,88.233c0.026,1.942,0.221,3.677,0.032,5.368c-0.188,1.676-1.395,2.243-3.688,2.11
		c-1.743-0.101-2.794-0.94-2.855-2.536c-0.043-1.09,0.084-2.218,0.339-3.283c0.442-1.877,1.145-2.406,2.959-2.27
		C302.671,87.697,303.656,87.987,304.884,88.233z"/>
	<path fill="#6CFFCC" d="M88.131,289.32c0.631,0.866,1.162,1.615,1.709,2.357c1.217,1.648,1.007,3.797-0.503,5.146
		c-1.482,1.323-3.402,1.27-4.929-0.14c-1.511-1.394-1.632-3.473-0.288-5.102c0.198-0.241,0.592-0.416,0.646-0.673
		C85.25,288.757,86.771,289.094,88.131,289.32z"/>
	<path fill="#6CFFCC" d="M202.748,303.166c-0.742-0.34-2.146-0.83-3.381-1.604c-0.979-0.617-0.498-3.718,0.614-4.08
		c1.261-0.412,2.107-1.635,3.705-1.442c2.435,0.285,3.597,1.282,3.579,3.59C207.25,301.984,205.917,303.225,202.748,303.166z"/>
	<path fill="#6CFFCC" d="M85.941,206.218c0.741-0.113,1.444-0.252,2.152-0.327c1.095-0.113,1.98-0.061,2.345,1.367
		c0.178,0.705,1.045,1.271,1.683,1.806c0.813,0.688,0.83,1.153,0,1.858c-0.438,0.373-0.94,0.789-1.151,1.295
		c-0.603,1.465-1.56,2.074-3.069,1.764c-3.318-0.68-4.37-3.098-2.661-6.033C85.548,207.415,85.709,206.801,85.941,206.218z"/>
	<path fill="#6CFFCC" d="M149.436,269.585c-0.852-0.118-2.052,0.08-2.6-0.432c-0.907-0.848-1.665-2.068-1.964-3.27
		c-0.311-1.22-0.547-2.697,0.586-3.82c1.035-1.03,2.903-1.43,4.197-0.858c1.478,0.646,2.175,1.795,2.048,3.406
		c-0.095,1.171,0.021,2.37-1.229,3.161C150.027,268.061,149.861,268.808,149.436,269.585z"/>
	<path fill="#6CFFCC" d="M97.369,373.849c-1.162,0.749-1.997,1.339-2.876,1.839c-1.683,0.957-3.923,0.523-4.974-0.93
		c-1.145-1.57-0.896-3.604,0.531-5c1.018-0.992,2.318-0.935,3.385-0.633c1.3,0.367,2.671,1.062,3.584,2.021
		C97.568,371.719,97.297,373.066,97.369,373.849z"/>
	<path fill="#6CFFCC" d="M333.74,96.619c-2.307,0.811-4.138-0.172-6.256-1.509c0-0.749-0.028-1.684,0.018-2.618
		c0.012-0.293,0.139-0.646,0.325-0.859c1.123-1.262,5.172-1.947,6.677-1.17"/>
	<path fill="#6CFFCC" d="M121.292,367.883c-0.343-0.83-0.687-1.623-0.996-2.428c-0.105-0.288-0.194-0.614-0.188-0.928
		c0.027-1.7,2.479-4.109,4.188-4.124c0.863-0.006,1.455,0.228,1.792,1.206c0.216,0.64,0.913,1.194,1.525,1.594
		c1.257,0.813,1.438,1.804,0.188,2.485c-0.625,0.345-0.89,0.65-1.112,1.328c-0.53,1.584-1.72,2.021-3.368,1.46
		C122.653,368.251,121.967,368.076,121.292,367.883z"/>
	<path fill="#6CFFCC" d="M199.041,317.301c-0.039-0.652-0.105-1.363-0.121-2.07c-0.022-1.022,0.16-1.795,1.442-2.065
		c1.106-0.232,1.81-1.369,3.203-1.351c1.709,0.03,2.977,1.131,3.479,2.429c0.559,1.448,0.122,3.119-1.028,4.147
		c-1.134,1.008-2.876,1.195-4.226,0.454C200.971,318.396,200.158,317.932,199.041,317.301z"/>
	<path fill="#6CFFCC" d="M186.158,130.283c0.785,0.649,1.721,1.584,2.821,2.266c0.547,0.342,1.288,0.475,1.155,1.235
		c-0.138,0.818-0.337,1.798-0.874,2.343c-1.371,1.377-3.02,2.127-5.111,1.635c-1.57-0.377-2.278-1.234-2.428-3.518
		c-0.094-1.524,0.691-2.628,2.069-3.045C184.554,130.969,185.29,130.626,186.158,130.283z"/>
	<path fill="#6CFFCC" d="M200.673,226.767c0.248,0.895,0.563,1.712,0.696,2.563c0.459,2.979-1.753,5.291-4.813,4.643
		c-0.365-0.074-0.659-0.553-0.963-0.867c-0.332-0.359-0.576-0.854-0.975-1.09c-1.078-0.645-1.687-1.875-1.027-2.896
		c0.641-0.998,1.492-2.002,2.494-2.588c0.702-0.412,1.813-0.187,2.743-0.14C199.451,226.421,200.058,226.631,200.673,226.767z"/>
	<path fill="#6CFFCC" d="M228.263,316.057c-0.415-1.567-0.951-2.965-1.117-4.406c-0.16-1.317,0.349-2.704,1.765-3.053
		c1.5-0.367,3.274-0.802,4.514,0.539c1.079,1.164,1.229,2.722,0.691,4.268c-0.287,0.812-0.604,1.609-1,2.652
		C231.66,316.057,230.105,316.057,228.263,316.057z"/>
	<path fill="#6CFFCC" d="M95.654,247.08c1.289,0,2.385,0,3.363,0c0.874,1.438,1.676,2.758,2.528,4.156
		c-0.238,0.481-0.658,1.106-0.863,1.796c-0.409,1.378-1.51,2.372-2.771,2.346c-2.163-0.05-3.215-0.847-3.612-2.595
		c-0.349-1.531-0.525-2.953,0.835-4.162C95.433,248.355,95.438,247.762,95.654,247.08z"/>
	<path fill="#6CFFCC" d="M185.871,299.535c1.333,0.786,2.545,1.424,3.662,2.2c0.387,0.269,0.729,0.863,0.769,1.333
		c0.077,0.942-0.071,1.899-0.122,2.728c-0.885,0.518-1.615,0.968-2.367,1.374c-1.149,0.631-4.147,0.107-4.928-0.838
		c-0.642-0.773-0.808-3.633-0.21-4.565c0.193-0.31,0.509-0.616,0.841-0.755c0.498-0.213,1.139-0.152,1.57-0.432
		C185.5,300.314,185.716,299.756,185.871,299.535z"/>
	<path fill="#6CFFCC" d="M281.458,105.417c-0.415-0.907-0.537-1.603-0.945-2c-1.594-1.552-0.631-3.309-0.422-4.944
		c0.128-0.94,2.207-1.615,3.768-1.458c1.179,0.116,2.162,1.09,2.507,2.13c0.713,2.188-0.345,3.938-1.289,5.703
		c-0.173,0.317-0.791,0.497-1.229,0.545C283.074,105.48,282.277,105.417,281.458,105.417z"/>
	<path fill="#6CFFCC" d="M109.15,146.125c-0.491-1.031-0.968-1.9-2.246-1.84c-0.376,0.02-0.89-0.593-1.161-1.023
		c-0.647-1.037-0.293-3.779,0.486-4.479c1.001-0.896,3.623-1.257,4.729-0.643c0.741,0.418,1.477,0.85,2.334,1.338
		c0.065,0.501,0.144,1.126,0.236,1.748c0.199,1.227,0.051,2.05-1.427,2.525C111.092,144.081,110.318,145.148,109.15,146.125z"/>
	<path fill="#6CFFCC" d="M231.183,139.451c0,0.916,0,1.854,0,2.758c-0.807,0.584-1.549,1.134-2.301,1.656
		c-1.123,0.784-3.822,0.737-4.769-0.068c-1.173-0.99-1.599-3.117-0.93-4.617c0.863-1.94,3.789-2.529,5.803-1.178
		C229.629,138.434,230.277,138.852,231.183,139.451z"/>
	<path fill="#6CFFCC" d="M337.525,106.805c2.057,0.454,2.023,1.896,1.72,3.51c-0.935,0.647-1.704,1.156-2.449,1.704
		c-1.672,1.217-3.724,0.984-5.134-0.603c-1.301-1.463-1.207-3.41,0.237-4.924c1.321-1.377,3.413-1.529,4.939-0.328"/>
	<path fill="#6CFFCC" d="M211.458,149.883c1.438,2.506,1.328,4.808-0.271,7.222c-1.41,0.296-3.219,0.999-4.522-0.316
		c-1.609-1.61-1.595-5.283,0.006-6.707C208.119,148.794,209.96,149.399,211.458,149.883z"/>
	<path fill="#6CFFCC" d="M219.789,17.928c-0.326-0.877-0.375-1.524-0.729-1.859c-1.277-1.229-1.289-2.553-0.818-4.153
		c0.536-1.81,1.063-2.342,3.17-2.416c1.863-0.064,2.565,0.725,3.258,2.383c0.996,2.391-0.547,3.975-1.599,5.563
		C222.676,18.029,221.017,17.777,219.789,17.928z"/>
	<path fill="#6CFFCC" d="M66.421,341.764c-0.542,0.086-1.167,0.205-1.798,0.282c-1.2,0.148-2.142,0.075-2.495-1.479
		c-0.16-0.684-1.095-1.217-1.731-1.76c-0.719-0.616-0.813-1.269,0.056-1.645c0.791-0.345,1.033-0.756,1.188-1.547
		c0.105-0.521,0.604-1.07,1.073-1.38c0.856-0.575,3.911-0.118,4.486,0.551c0.918,1.063,1.2,3.566,0.536,4.701
		C67.35,340.16,66.963,340.829,66.421,341.764z"/>
	<path fill="#6CFFCC" d="M305.271,270.604c3.104,0.076,4.719,1.412,4.773,3.492c0.083,3.275-3.043,3.844-5.492,3.256
		c-0.433-0.104-0.786-0.524-1.189-0.783c-0.569-0.364-1.422-0.592-1.653-1.104c-0.306-0.67-0.149-1.563-0.121-2.356
		c0.011-0.296,0.133-0.737,0.342-0.854C303.152,271.599,304.413,271.021,305.271,270.604z"/>
	<path fill="#6CFFCC" d="M253.105,196.303c-0.056,2.725-1.129,3.711-4.127,3.531c-0.996-0.056-1.996-0.435-2.953-0.782
		c-0.299-0.104-0.62-0.567-0.664-0.899c-0.127-1.015-0.198-2.049-0.145-3.068c0.021-0.409,0.338-1.007,0.686-1.156
		c1.572-0.708,3.17-1.413,4.99-1.034C252.435,193.219,253.143,194.278,253.105,196.303z"/>
	<path fill="#6CFFCC" d="M69.325,207.435c-1.052-0.78-1.87-1.771-2.898-2.063c-1.344-0.391-1.604-1.119-1.538-2.266
		c0.044-0.714,0.094-1.419,0.133-1.943c0.918-0.564,1.644-1.019,2.378-1.449c1.162-0.678,4.055-0.266,4.956,0.69
		c1.112,1.191,1.189,3.576,0.127,4.921c-0.183,0.234-0.509,0.553-0.74,0.524C70.437,205.711,69.756,206.508,69.325,207.435z"/>
	<path fill="#6CFFCC" d="M355.744,214.227c1.245,0.412,2.522,0.765,3.729,1.287c0.344,0.142,0.57,0.738,0.69,1.17
		c0.843,2.854-1.065,4.992-4.226,4.742c-0.548-0.044-1.095-0.177-1.647-0.254c-1.185-0.172-1.848-0.865-1.976-2.041
		c-0.066-0.637-0.11-1.275-0.061-1.908C352.409,215.244,353.31,214.534,355.744,214.227z"/>
	<path fill="#6CFFCC" d="M298.296,244.912c0.209-2.977,2.5-4.375,5.242-3.176c1.128,0.492,2.063,2.774,1.771,4.387
		c-0.057,0.308-0.244,0.592-0.338,0.896c-0.254,0.865,0.026,1.955-1.244,2.353c-1.273,0.39-2.467,0.526-3.734-0.021
		c-1.471-0.637-1.172-2.144-1.676-3.25C298.168,245.77,298.296,245.311,298.296,244.912z"/>
	<path fill="#6CFFCC" d="M246.423,54.655c-2.401-0.017-3.144-0.669-3.259-3.054c-0.044-0.854,0.122-1.725,0.228-2.586
		c0.133-1.059,0.408-1.938,1.664-2.298c1.416-0.401,2.678-0.18,3.9,0.498c0.231,0.127,0.42,0.492,0.464,0.774
		c0.183,1.167,0.437,2.348,0.415,3.512C249.775,53.979,248.957,54.67,246.423,54.655z"/>
	<path fill="#6CFFCC" d="M61.161,360.474c0.242,0.786,0.242,1.333,0.491,1.502c1.836,1.223,1.582,2.936,1.233,4.704
		c-0.315,1.632-1.504,2.418-3.562,2.338c-1.594-0.065-2.583-1.115-3.016-2.483c-0.741-2.356,0.719-3.947,1.836-5.534
		C58.544,360.438,60.021,360.643,61.161,360.474z"/>
	<path fill="#6CFFCC" d="M275.019,67.638c1.444,0,2.922,0,4.586,0c0.033,1.737,1.671,2.859,1.217,4.743
		c-0.286,1.2-0.42,2.479-1.774,2.81c-1.526,0.376-3.236,0.694-4.491-0.615c-1.128-1.177-1.232-2.705-0.702-4.232
		C274.134,69.541,274.527,68.769,275.019,67.638z"/>
	<path fill="#6CFFCC" d="M242.103,235.504c-2.584,1.902-4.912,1.977-7.418,0.224c-0.658-1.383-0.479-2.998,0.018-4.583
		c2.39-1.336,4.724-1.673,7.4,0.448C242.573,232.594,242.285,234.146,242.103,235.504z"/>
	<path fill="#6CFFCC" d="M256.994,103.174c0.203,0.783,0.176,1.389,0.47,1.662c1.857,1.748,0.658,3.54,0.116,5.283
		c-0.228,0.739-2.738,1.403-3.884,1.104c-0.53-0.139-1.022-0.409-1.582-0.642c-0.305-1.292-0.056-2.894-1.741-2.938
		c0.807-1.313,1.416-2.451,2.174-3.481c0.32-0.445,0.912-0.86,1.442-0.951C254.908,103.061,255.876,103.174,256.994,103.174z"/>
	<path fill="#6CFFCC" d="M205.341,345.536c0.033,0.699,0.1,1.404,0.088,2.117c-0.011,0.464-0.133,0.928-0.215,1.527
		c-1.621,0.101-2.506,1.783-4.337,1.609c-2.003-0.193-3.003-0.554-3.54-2.201c-0.471-1.434-0.282-2.863,0.719-4.047
		c0.714-0.85,3.064-1.137,4.293-0.578C203.273,344.386,204.152,344.906,205.341,345.536z"/>
	<path fill="#6CFFCC" d="M173.171,14.221c-0.111-0.533-0.288-1.063-0.332-1.604c-0.199-2.557,0.033-2.906,1.582-3.597
		c1.377-0.612,2.644-1.563,4.126-0.219c0.597,0.545,1.94,0.053,2.069,1.25c0.127,1.17,0.032,2.371,0,3.557
		c-0.007,0.211-0.173,0.451-0.327,0.611c-0.653,0.688-3.877,1.162-4.834,0.78C174.736,14.711,173.984,14.495,173.171,14.221z"/>
	<path fill="#6CFFCC" d="M8.01,252.91c0.597-0.254,1.289-0.365,1.72-0.767c1.278-1.181,2.522-1.123,3.899-0.237
		c0.503,0.329,1.411,0.411,1.577,0.827c0.387,1,0.607,2.138,0.574,3.207c-0.017,0.604-0.559,1.5-1.084,1.707
		c-0.951,0.371-1.854,0.418-2.268,1.668c-0.216,0.646-1.007,0.326-1.494-0.311c-0.498-0.652-1.101-1.493-1.803-1.67
		c-1.538-0.382-1.593-1.344-1.443-2.527C7.766,254.18,7.899,253.559,8.01,252.91z"/>
	<path fill="#6CFFCC" d="M38.896,139.321c-0.026,1.69-1.128,3.244-2.456,3.671c-1.481,0.474-3.229-0.113-4.265-1.426
		c-0.907-1.151-0.929-2.932-0.028-4.217c0.321-0.451,0.907-0.832,0.996-1.311c0.228-1.24,0.962-1.491,2.047-1.479
		c1.045,0.011,1.748,0.202,2.113,1.416C37.669,137.198,39.312,137.896,38.896,139.321z"/>
	<path fill="#6CFFCC" d="M203.482,19.131c0.599-0.111,1.212-0.07,1.66-0.33c1.366-0.793,2.467-0.447,3.768,0.299
		c1.996,1.153,2.136,1.168,2.023,3.357c-0.049,1.073-0.453,1.516-1.531,2.008c-1.526,0.684-2.756,1.245-4.446,0.451
		c-1.941-0.904-2.718-1.982-2.191-4.002C202.918,20.311,203.228,19.744,203.482,19.131z"/>
	<path fill="#6CFFCC" d="M157.893,164.984c1.727-0.533,3.07-1.547,4.873-1.311c1.893,0.254,2.5,0.668,2.777,2.549
		c0.065,0.471,0.183,0.943,0.188,1.414c0.018,1.67-0.636,2.441-2.285,2.805c-0.586,0.134-1.172,0.284-1.936,0.474
		c-0.454-0.246-1.128-0.67-1.848-0.972c-1.919-0.782-1.997-0.847-1.932-2.891C157.755,166.422,157.827,165.797,157.893,164.984z"/>
	<path fill="#6CFFCC" d="M242.396,274.937c-0.99,0.059-1.781,0.161-2.561,0.128c-0.736-0.03-1.444-0.208-1.572-1.15
		c-0.043-0.305-0.127-0.7-0.342-0.871c-2.107-1.69-0.765-3.523-0.066-5.147c0.508-1.178,1.914-1.354,3.164-1.172
		c1.133,0.16,1.924,0.608,2.435,1.889c0.729,1.81,0.957,3.285-0.564,4.749C242.595,273.645,242.601,274.242,242.396,274.937z"/>
	<path fill="#6CFFCC" d="M303.899,191.139c0.011,1.217-0.525,1.686-1.609,2.312c-1.652,0.962-3.06,1.396-4.873,0.662
		c-1.228-0.488-1.742-1.004-1.979-2.563c-0.21-1.396,0.077-2.664,1.333-3.311c0.945-0.484,2.195-0.89,3.181-0.689
		c1.239,0.252,2.417,1.051,3.475,1.823C303.804,189.656,303.755,190.531,303.899,191.139z"/>
	<path fill="#6CFFCC" d="M262.718,167.465c-0.857,0.227-1.438,0.213-1.742,0.49c-1.481,1.385-2.932,1.071-4.574,0.271
		c-1.373-0.664-1.893-1.188-1.908-2.843c-0.012-1.699,0.631-2.172,1.804-2.974c2.223-1.524,3.898,0.063,5.741,0.654
		c0.32,0.105,0.613,0.75,0.652,1.164C262.785,165.25,262.718,166.281,262.718,167.465z"/>
	<path fill="#6CFFCC" d="M190.185,42.376c0.045,0.568,0.121,1.363,0.16,2.157c0.051,1.045-0.232,1.702-1.422,2.117
		c-1.019,0.36-1.81,1.348-2.82,2.155c-0.769-0.756-1.294-1.967-2.814-2.008c-0.376-0.012-0.94-1.524-1.001-2.373
		c-0.066-0.902,0.364-1.843,0.559-2.678C185.345,40.107,187.679,40.277,190.185,42.376z"/>
	<path fill="#6CFFCC" d="M173.354,126.325c-1.543-0.163-2.7-0.394-2.7-2.192c-1.907-1.787-0.26-3.502,0.172-5.211
		c0.083-0.326,0.702-0.658,1.117-0.732c0.774-0.137,1.582-0.125,2.373-0.095c1.129,0.044,1.538,0.646,2.107,1.72
		c1.101,2.072,0.199,3.701-0.531,5.313C175.593,125.777,174.232,125.938,173.354,126.325z"/>
	<path fill="#6CFFCC" d="M116.9,322.033c0-1.144,0-2.314,0-3.422c0.93-0.521,1.736-0.994,2.562-1.425
		c1.306-0.672,4.033-0.399,4.773,0.44c1.112,1.264,1.189,3.466,0.178,4.931c-0.901,1.307-3.628,1.729-5.217,0.81
		C118.526,322.979,117.852,322.59,116.9,322.033z"/>
	<path fill="#6CFFCC" d="M150.52,236.443c-1.88-0.283-3.54-0.07-4.198-1.946c-0.48-1.377-0.431-2.644,0.487-3.847
		c0.874-1.15,4.176-1.539,5.454-0.605c0.492,0.359,0.99,0.72,1.504,1.046c0.913,0.583,1.361,2.881,0.454,3.313
		C152.849,235.059,151.969,236.803,150.52,236.443z"/>
	<path fill="#6CFFCC" d="M185.556,326.796c-0.891,0.056-1.599,0.116-2.313,0.138c-1.04,0.037-1.721-0.224-2.08-1.442
		c-0.288-0.979-1.185-1.783-1.82-2.684c0.326-0.581,0.879-1.297,1.15-2.112c0.441-1.342,1.134-1.944,2.76-2.041
		c1.599-0.086,3.009,0.578,3.324,1.742c0.453,1.659,1.167,3.371-0.504,4.87C185.777,325.537,185.766,326.135,185.556,326.796z"/>
	<path fill="#6CFFCC" d="M288.687,189.295c-0.817,0.21-1.421,0.177-1.703,0.461c-1.653,1.689-3.336,0.86-5.026,0.175
		c-1.18-0.47-1.615-1.46-1.473-3.173c0.139-1.673,0.647-1.969,1.858-2.619c2.146-1.149,3.806,0.07,5.564,0.777
		c0.382,0.158,0.686,0.866,0.74,1.36C288.765,187.203,288.687,188.154,288.687,189.295z"/>
	<path fill="#6CFFCC" d="M53.998,180.268c-1.189-0.373-2.439-0.631-3.552-1.159c-1.228-0.589-1.271-4.295-0.05-4.896
		c1.715-0.84,3.563-1.383,5.493-0.74c0.487,0.16,1.04,0.539,1.268,0.977c0.735,1.412,0.746,2.923,0.021,4.353
		C56.531,180.076,55.292,180.107,53.998,180.268z"/>
	<path fill="#6CFFCC" d="M30.965,248.879c-0.891,0-1.759,0-2.533,0c-0.563-0.791-1.018-1.517-1.549-2.174
		c-1.366-1.695-1.283-3.67,0.254-5.128c1.455-1.381,3.535-1.44,4.967-0.145c1.582,1.443,1.748,3.371,0.448,5.154
		C32.055,247.274,31.579,247.988,30.965,248.879z"/>
	<path fill="#6CFFCC" d="M231.344,67.256c-0.155,1.007-0.315,1.994-0.47,2.984c-1.455,0.151-2.021,1.995-3.74,1.821
		c-1.582-0.166-3.152,0.099-4.093-1.735c-1.052-2.048,0.393-5.535,2.976-5.194c1.339,0.177,2.705-0.056,3.629,1.325
		C229.906,66.841,230.603,66.927,231.344,67.256z"/>
	<path fill="#6CFFCC" d="M127.968,73.725c-0.537,0-1.239,0-1.775,0c-0.702-0.821-1.3-1.531-1.902-2.233
		c-1.438-1.66-1.283-3.769,0.397-5.309c1.316-1.208,3.475-1.217,4.79-0.014c1.676,1.525,1.814,3.608,0.371,5.305
		C129.251,72.176,128.665,72.893,127.968,73.725z"/>
	<path fill="#6CFFCC" d="M72.55,353.67c-0.863,0.291-1.521,0.317-1.881,0.661c-1.766,1.65-3.558,0.563-5.122-0.113
		c-1.256-0.548-1.316-2.118-1.057-3.415c0.193-0.977,0.437-1.785,1.726-2.258c2.058-0.749,3.733-0.077,5.459,0.67
		c0.398,0.172,0.774,0.811,0.835,1.271C72.633,351.499,72.55,352.536,72.55,353.67z"/>
	<path fill="#6CFFCC" d="M324.669,84.18c-0.267,0.805-0.312,1.999-0.857,2.32c-1.106,0.651-2.479,1.02-3.772,1.125
		c-0.873,0.074-1.818-0.459-2.688-0.83c-0.299-0.127-0.559-0.545-0.674-0.887c-0.156-0.438-0.194-0.934-0.217-1.408
		c-0.145-3.034,2.854-4.891,5.619-3.482c0.204,0.105,0.389,0.368,0.593,0.377C324.586,81.443,324.47,82.813,324.669,84.18z"/>
	<path fill="#6CFFCC" d="M301.388,71.928c0.651,0,1.442-0.033,2.233,0.014c0.3,0.021,0.759,0.145,0.847,0.352
		c0.758,1.73,2.307,3.137,1.533,5.451c-0.683,2.035-2.468,3.267-4.476,2.426c-0.653-0.274-1.234-0.714-1.654-0.96
		C298.76,76.471,299.341,74.217,301.388,71.928z"/>
	<path fill="#6CFFCC" d="M115.34,213.389c-1.599,0-3.003,0-4.359,0c-0.454-0.986-0.802-1.853-1.238-2.66
		c-0.466-0.846-0.576-1.643,0-2.465c0.088-0.127,0.188-0.257,0.254-0.396c0.325-0.679,0.476-1.725,0.996-1.965
		c0.879-0.405,1.996-0.429,3.003-0.376c0.968,0.051,1.543,0.539,1.969,1.662c0.63,1.677,1.139,3.069-0.244,4.569
		C115.451,212.053,115.5,212.648,115.34,213.389z"/>
	<path fill="#6CFFCC" d="M263.88,42.672c-0.709-0.353-1.328-0.783-2.014-0.974c-1.468-0.412-2.341-1.402-2.291-2.811
		c0.089-2.343,0.842-3.045,2.532-3.646c2.313-0.815,3.756,0.634,5.316,1.667c0.486,0.32,0.514,1.443,0.598,2.216
		c0.095,0.874-0.604,1.048-1.283,1.407C265.671,41.084,264.781,41.973,263.88,42.672z"/>
	<path fill="#6CFFCC" d="M116.961,300.354c-0.05-0.963-0.105-2.053-0.155-3.039c1.908-1.203,3.612-2.297,5.83-1.893
		c0.824,0.152,1.477,0.318,1.925,1.159c0.78,1.479,0.691,3.847-0.326,4.934c-0.769,0.821-3.806,1.021-4.979,0.309
		C118.532,301.382,117.824,300.906,116.961,300.354z"/>
	<path fill="#6CFFCC" d="M115.241,109.555c1.172,0.633,2.218,1.199,3.269,1.764c1.443,1.287,0.868,2.982,0.415,4.531
		c-0.36,1.23-3.75,1.857-5.172,1.128c-0.691-0.352-1.383-0.708-2.257-1.159c-0.051-0.725-0.127-1.59-0.161-2.452
		c-0.044-1.144,0.254-1.888,1.593-2.225C113.825,110.924,114.561,110.049,115.241,109.555z"/>
	<path fill="#6CFFCC" d="M104.161,51.447c0.364-0.059,0.752-0.153,1.14-0.174c2.827-0.136,2.97-0.036,3.618,1.587
		c0.524,1.313,1.449,2.528,0.441,4.041c-0.281,0.43-0.249,1.073-0.393,1.772c-0.537,0.174-1.118,0.462-1.726,0.531
		c-1.262,0.144-2.859,0.495-3.479-0.842c-0.686-1.478-1.875-3.103-0.487-4.917C103.686,52.91,103.846,52.18,104.161,51.447z"/>
	<path fill="#6CFFCC" d="M261.058,273.123c1.074-0.066,2.086-0.128,3.17-0.197c0.244,0.625,0.299,1.311,0.664,1.59
		c1.564,1.192,1.351,2.717,1.067,4.334c-0.315,1.828-1.438,2.703-3.292,2.451c-3.181-0.43-4.523-3.659-2.615-6.281
		c0.227-0.314,0.453-0.628,0.636-0.965C260.832,273.791,260.916,273.493,261.058,273.123z"/>
	<path fill="#6CFFCC" d="M14.874,185.508c0.231,0.645,0.26,1.234,0.563,1.5c1.41,1.241,1.41,2.677,0.962,4.348
		c-0.47,1.75-1.271,2.444-3.401,2.488c-1.594,0.033-2.622-0.838-2.977-2.414c-0.358-1.602-0.652-3.119,0.918-4.354
		c0.365-0.285,0.409-0.979,0.637-1.568C12.656,185.508,13.674,185.508,14.874,185.508z"/>
	<path fill="#6CFFCC" d="M132.244,53.97c0-0.653,0-1.364,0-2.188c0.581-0.397,1.354-0.714,1.819-1.283
		c1.079-1.353,2.329-1.407,3.861-0.986c1.831,0.5,2.649,1.305,2.727,3.066c0.095,1.978-0.625,2.766-2.506,3.481
		c-1.748,0.666-3.053,0.396-4.253-1.018C133.511,54.589,132.858,54.357,132.244,53.97z"/>
	<path fill="#6CFFCC" d="M211.968,171.193c-0.592-0.288-1.168-0.684-1.799-0.854c-1.492-0.408-2.461-1.43-2.444-2.729
		c0.028-2.278,0.985-3.318,2.743-3.813c2.086-0.584,3.519,0.58,5.012,1.499c1.15,0.702,0.804,3.066-0.358,3.78
		C214.009,169.764,212.941,170.532,211.968,171.193z"/>
	<path fill="#6CFFCC" d="M83.585,190.984c0.381-0.139,0.459-0.192,0.536-0.192c1.3,0.035,2.909-0.719,3.789,0.622
		c1.25,1.907,1.715,4.135,0.664,6.306c-0.608,1.271-2.059,1.073-3.215,1.125c-1.057,0.039-2.097-0.281-2.494-1.463
		c-0.593-1.729-1.366-3.463,0.337-5.08C83.496,192.029,83.469,191.427,83.585,190.984z"/>
	<path fill="#6CFFCC" d="M169.586,150.071c-0.111,1.171,0.531,2.341-0.664,3.167c-2.738,1.896-4.492,2.294-6.207,1.242
		c-1.268-0.774-1.753-1.987-1.582-3.481c0.166-1.41,0.863-2.033,2.307-2.622c1.766-0.719,3.176-0.581,4.476,0.882
		C168.253,149.635,168.884,149.742,169.586,150.071z"/>
	<path fill="#6CFFCC" d="M262.563,265.865c-0.725,0.237-1.32,0.258-1.593,0.563c-1.283,1.469-2.782,1.211-4.375,0.752
		c-1.648-0.471-2.391-1.481-2.313-3.336c0.071-1.77,0.879-2.348,2.379-2.994c2.282-0.994,3.731,0.684,5.509,1.294
		c0.261,0.089,0.47,0.658,0.487,1.016C262.696,264.021,262.607,264.887,262.563,265.865z"/>
	<path fill="#6CFFCC" d="M170.775,227.215c-0.017-1.623,2.347-4.677,3.646-4.693c1.383-0.021,3.688,2.812,3.761,4.615
		c0.083,2.017-1.481,3.613-3.579,3.638C172.142,230.811,170.809,229.568,170.775,227.215z"/>
	<path fill="#6CFFCC" d="M120.772,159.61c0.222-0.063,0.382-0.148,0.525-0.142c1.095,0.078,2.5-0.204,3.203,0.369
		c0.885,0.721,1.25,2.123,1.715,3.282c0.148,0.37-0.062,0.924-0.188,1.362c-0.216,0.755-0.498,1.491-0.823,2.436
		c-0.608,0.207-1.338,0.559-2.103,0.686c-1.239,0.213-2.671,0-3.136-1.162c-0.537-1.352-1.781-2.793-0.525-4.458
		C119.948,161.306,120.28,160.501,120.772,159.61z"/>
	<path fill="#6CFFCC" d="M32.597,176.973c-0.017,2-0.42,2.581-2.052,3.22c-0.409,0.163-0.874,0.338-1.15,0.653
		c-1.111,1.256-1.022,1.223-1.979,0.014c-0.708-0.896-1.594-1.655-2.435-2.438c-0.891-0.83-0.901-1.707,0.018-2.512
		c0.343-0.295,0.69-0.604,0.989-0.948c1.355-1.603,3.342-2.056,5.063-1.04C32.248,174.631,32.79,175.734,32.597,176.973z"/>
	<path fill="#6CFFCC" d="M92.319,233.725c-0.193,0.022-0.509,0.051-0.823,0.092c-1.245,0.16-1.958,0-2.767-1.395
		c-0.769-1.318-1.223-2.383-1.134-3.885c0.083-1.48,0.708-2.479,2.024-2.898c1.427-0.463,2.859-0.184,4.032,0.799
		c0.896,0.758,1.007,4.088,0.238,5.158C93.403,232.279,92.894,232.948,92.319,233.725z"/>
	<path fill="#6CFFCC" d="M58.533,160.711c-0.007,1.621-0.62,2.722-2.003,3.167c-1.564,0.503-3.362,0.752-4.408-0.694
		c-0.619-0.863-1.98-0.891-2.08-2.37c-0.105-1.609,1.421-1.507,1.94-2.42c1.068-1.855,2.938-1.313,4.53-1.111
		C57.726,157.439,58.539,159.08,58.533,160.711z"/>
	<path fill="#6CFFCC" d="M292.826,233.184c-1.112,0.838-1.771,1.365-2.463,1.839c-1.521,1.031-3.91,0.782-5.056-0.501
		c-1.244-1.394-1.149-3.776,0.216-5.202c0.708-0.746,3.392-1.137,4.508-0.545c0.881,0.469,1.952,0.936,2.424,1.719
		C292.925,231.271,292.748,232.437,292.826,233.184z"/>
	<path fill="#6CFFCC" d="M134.628,278.371c0.603,0.933,1.118,1.704,1.604,2.495c1.377,2.242,0.127,5.415-2.307,5.862
		c-1.361,0.246-3.258-0.302-3.601-1.325c-0.487-1.477-1.073-3.047-0.166-4.604c0.31-0.534,0.625-1.087,1.045-1.521
		c0.403-0.409,0.918-0.844,1.443-0.957C133.317,278.176,134.053,278.347,134.628,278.371z"/>
	<path fill="#6CFFCC" d="M192.508,84.859c-0.364-0.906-0.459-1.623-0.857-2.044c-1.554-1.638-0.607-3.396-0.122-4.943
		c0.377-1.18,1.854-1.411,3.088-1.304c1.218,0.11,2.189,0.541,2.81,1.83c1.096,2.293,0.078,4.107-1.006,5.941
		c-0.166,0.272-0.652,0.473-1.013,0.498C194.472,84.906,193.527,84.859,192.508,84.859z"/>
	<path fill="#6CFFCC" d="M58.926,96.896c2.566,0.296,3.684,1.384,3.844,3.941c0.039,0.578-0.182,1.327-0.559,1.745
		c-0.835,0.924-1.803,1.75-2.811,2.492c-0.802,0.586-1.715,0.295-2.124-0.647c-0.498-1.137-1.167-1.964-2.34-2.497
		c-0.891-0.404-0.874-1.469,0.028-1.799c0.813-0.298,1.045-0.672,1.239-1.465C56.52,97.385,57.676,96.749,58.926,96.896z"/>
	<path fill="#6CFFCC" d="M85.681,111.537c-0.646-2.085-0.642-2.728,0.005-4.624c2.412-1.636,4.757-1.444,7.208,0.077
		c0.072,0.291,0.243,0.74,0.282,1.2c0.282,3.039-0.293,3.874-3.291,4.571c-0.575,0.132-1.261,0.003-1.842-0.183
		C87.235,112.322,86.483,111.899,85.681,111.537z"/>
	<path fill="#6CFFCC" d="M318.872,117.166c-2.887-0.057-4.813-2.752-3.977-4.926c0.441-1.148,1.145-2.249,1.941-3.191
		c0.725-0.866,2.881-0.353,3.457,0.663c0.271,0.474,0.541,0.954,0.867,1.383c1.167,1.516,0.995,4.118-0.503,5.271
		C320.006,116.858,319.126,117.058,318.872,117.166z"/>
	<path fill="#6CFFCC" d="M233.617,48.834c0.608,1.919-1.111,2.951-1.848,4.325c-0.524,0.989-2.827,0.283-3.527-0.759
		c-0.849-1.244-1.589-2.396-1.435-4.052c0.238-2.63,2.633-4.106,5.051-3.009C233.423,46.049,233.894,47.219,233.617,48.834z"/>
	<path fill="#6CFFCC" d="M90.029,151.602c-0.364-0.645-0.569-1.434-1.084-1.819c-1.863-1.414-1.184-3.102-0.636-4.746
		c0.382-1.158,1.858-1.878,3.346-1.808c1.461,0.075,2.368,0.781,2.827,2.105c0.575,1.662,0.886,3.211-0.758,4.533
		c-0.441,0.358-0.603,1.063-0.957,1.733C91.887,151.602,90.953,151.602,90.029,151.602z"/>
	<path fill="#6CFFCC" d="M226.947,31.117c0.077,0.784,0.222,1.645,0.232,2.508c0.016,1.173-0.188,2.124-1.715,2.365
		c-0.841,0.135-1.576,0.897-2.318,1.35c-0.746-0.401-1.604-0.853-2.461-1.303c-0.338-0.175-0.773-0.24-1.018-0.501
		c-0.67-0.714-0.614-3.836,0.017-4.583c0.758-0.894,3.745-1.55,4.862-1.034C225.315,30.268,226.062,30.674,226.947,31.117z"/>
	<path fill="#6CFFCC" d="M95.063,41.92c-1.14-0.293-2.307-0.501-3.391-0.927c-0.42-0.161-0.885-0.788-0.918-1.233
		c-0.088-1.09,0.017-2.201,0.16-3.291c0.039-0.299,0.447-0.697,0.769-0.794c1.504-0.445,2.998-1.021,4.635-0.653
		c1.333,0.299,2.036,1.009,2.186,2.4c0.026,0.238,0.017,0.477,0.021,0.717C98.636,40.916,97.933,41.66,95.063,41.92z"/>
	<path fill="#6CFFCC" d="M72.411,324.021c0.056,0.332,0.104,0.644,0.166,0.949c0.708,3.709-1.555,4.619-5.422,4.289
		c-1.735-0.148-2.683-0.951-2.571-2.635c0.061-1.043,0.243-2.608,0.896-2.963c1.278-0.687,2.732-1.775,4.432-0.912
		C70.674,323.137,71.432,323.523,72.411,324.021z"/>
	<path fill="#6CFFCC" d="M100.571,319.711c2.528-1.539,4.847-2.211,7.457-0.039c0.282,1.308,0.842,2.976-0.083,4.5
		c-1.289,0.53-2.417,0.998-3.688,1.521c-0.514-0.308-1.255-1.021-2.103-1.175c-1.35-0.244-1.709-1.002-1.697-2.153
		C100.466,321.491,100.533,320.617,100.571,319.711z"/>
	<path fill="#6CFFCC" d="M123.814,388.213c-0.841,0-1.555,0-2.234,0c-0.427-0.636-0.752-1.264-1.206-1.777
		c-1.478-1.694-1.776-3.051-0.797-4.903c0.69-1.316,1.892-1.854,3.396-1.736c1.443,0.11,2.445,0.805,2.854,2.1
		c0.536,1.726,0.879,3.382-0.974,4.665C124.395,386.877,124.202,387.574,123.814,388.213z"/>
	<path fill="#6CFFCC" d="M163.651,251.293c-1.632,0.271-2.648-0.774-3.291-2.113c-0.669-1.408-0.343-2.796,0.73-3.979
		c0.514-0.573,0.99-1.18,1.51-1.748c0.614-0.669,1.859-0.599,2.495,0.124c0.41,0.457,0.791,0.938,1.223,1.375
		c1.174,1.164,1.644,2.776,1.008,4.137C166.688,250.43,165.736,251.514,163.651,251.293z"/>
	<path fill="#6CFFCC" d="M177.082,237.412c0.575-0.078,1.123-0.187,1.676-0.211c0.786-0.033,1.577-0.009,2.295-0.009
		c0.525,1.001,0.968,1.81,1.377,2.637c0.597,1.214,0.017,4.021-0.979,4.861c-0.907,0.765-3.457,0.832-4.592,0.119
		c-0.847-0.534-1.487-3.694-0.979-4.811C176.246,239.218,176.605,238.44,177.082,237.412z"/>
	<path fill="#6CFFCC" d="M110.888,38.084c-0.205-0.709-0.232-1.422-0.581-1.898c-1.267-1.735,0.299-3.183,0.409-4.765
		c0.017-0.202,0.443-0.448,0.719-0.545c0.371-0.133,0.78-0.181,1.173-0.193c1.089-0.039,2.539-0.54,3.086,0.598
		c0.714,1.473,1.804,2.986,0.847,4.9C115.229,38.8,114.627,39.084,110.888,38.084z"/>
	<path fill="#6CFFCC" d="M134.081,237.566c0.11,1.115-0.033,2.103-1.571,2.347c-0.57,0.092-1.04,0.705-1.604,0.998
		c-1.056,0.543-3.859-0.146-4.546-1.067c-0.924-1.239-0.901-3.239,0.044-4.458c1.073-1.381,3.75-1.812,5.161-0.827
		c0.389,0.271,0.726,0.749,1.135,0.815C133.992,235.581,134.152,236.419,134.081,237.566z"/>
	<path fill="#6CFFCC" d="M25.832,200.418c0.1,0.42,0.304,0.824,0.26,1.19c-0.127,1.068-0.022,2.726-0.614,3.058
		c-1.338,0.747-2.754,1.836-4.635,1.152c-2.207-0.802-3.081-1.697-2.92-3.628c0.205-2.495,2.716-3.887,5.299-2.909
		C24.028,199.588,24.809,199.971,25.832,200.418z"/>
	<path fill="#6CFFCC" d="M21.202,238.941c-1.947,0.809-2.507-0.495-3.563-1.494c-1.543-1.444-1.433-2.869-1.018-4.534
		c0.354-1.402,1.582-2.195,3.264-2.22c1.759-0.019,2.622,0.67,3.169,2.244c0.62,1.8,0.769,3.373-1.089,4.6
		C21.572,237.797,21.445,238.465,21.202,238.941z"/>
	<path fill="#6CFFCC" d="M128.3,142.054c-0.703,0.614-1.333,1.173-1.969,1.724c-0.99,0.867-4.198,0.904-5.166,0.063
		c-1.135-0.986-1.511-3.49-0.72-4.842c0.714-1.224,4.077-2.086,5.376-1.112C127.177,138.898,128.964,139.877,128.3,142.054z"/>
	<path fill="#6CFFCC" d="M130.762,308.785c-0.05-2.192,1.798-4.387,3.822-4.482c0.371-0.021,0.935,0.027,1.095,0.26
		c0.697,1.002,1.538,2.021,1.82,3.164c0.271,1.082-0.062,2.323-0.205,3.49c-0.033,0.252-0.376,0.476-0.592,0.694
		c-1.294,1.282-2.805,0.856-4.237,0.423C130.695,311.795,130.922,310.166,130.762,308.785z"/>
	<path fill="#6CFFCC" d="M218.539,289.094c0.071,1.184-0.349,2.563-1.947,3.067c-1.377,0.432-2.832,0.545-4.026-0.667
		c-1.046-1.075-1.261-4.174-0.32-5.373c0.426-0.542,0.862-1.073,1.301-1.607c0.47-0.565,1.947-0.787,2.644-0.395
		C217.15,284.658,218.617,287.507,218.539,289.094z"/>
	<path fill="#6CFFCC" d="M152.849,283.889c0.205-0.055,0.438-0.188,0.652-0.168c1.073,0.097,2.141,0.238,3.214,0.361
		c0.332,1.567,2.03,2.758,1.3,4.612c-0.382,0.955,0.089,2.187-1.327,2.809c-1.494,0.653-2.799,0.229-4.121-0.199
		c-0.397-0.127-0.752-0.767-0.891-1.239C151.045,287.908,151.073,287.891,152.849,283.889z"/>
	<path fill="#6CFFCC" d="M20.555,283.057c0.039,0.791,0.072,1.499,0.116,2.21c0.065,1.147-0.343,1.709-1.521,2.266
		c-1.582,0.756-2.915,1.288-4.663,0.566c-1.35-0.556-1.952-1.081-2.068-2.696c-0.116-1.62,0.503-2.903,1.698-3.305
		c1.658-0.56,3.323-1.17,4.861,0.397C19.315,282.838,19.968,282.86,20.555,283.057z"/>
	<path fill="#6CFFCC" d="M119.173,335.486c0.021,2.07-1.698,3.599-4.027,3.578c-2.737-0.026-4.115-1.223-4.093-3.537
		c0.022-2.354,1.388-3.479,4.143-3.416C117.509,332.161,119.151,333.555,119.173,335.486z"/>
	<path fill="#6CFFCC" d="M155.708,273.678c-0.018-2.961,2.81-4.765,5.299-3.418c1.012,0.553,1.94,1.303,2.81,2.074
		c0.664,0.592,0.37,2.166-0.371,2.705c-0.559,0.409-1.155,0.788-1.643,1.274c-1.189,1.188-2.655,1.203-3.982,0.646
		C156.472,276.383,155.503,275.258,155.708,273.678z"/>
	<path fill="#6CFFCC" d="M107.928,21.684c0,0.635,0,1.344,0,2.162c-0.553,0.326-1.361,0.533-1.693,1.045
		c-1.427,2.216-3.279,1.453-5.044,0.803c-1.704-0.633-2.301-3.35-1.211-4.929c1.156-1.667,4.11-2.091,5.664-0.824
		C106.302,20.477,106.993,20.969,107.928,21.684z"/>
	<path fill="#6CFFCC" d="M136.664,378.735c-0.481-0.891-0.713-1.601-1.167-2.097c-1.472-1.623-0.752-3.43-0.161-4.941
		c0.448-1.158,1.985-1.505,3.33-1.401c1.223,0.091,2.234,1.063,2.688,2.029c1.096,2.325-0.293,4.076-1.25,5.919
		c-0.138,0.271-0.664,0.437-1.022,0.468C138.295,378.788,137.499,378.735,136.664,378.735z"/>
	<path fill="#6CFFCC" d="M306.305,264.938c-0.354-0.568-0.563-1.292-1.034-1.587c-1.709-1.07-1.67-2.547-1.283-4.219
		c0.394-1.656,1.404-2.463,3.265-2.496c2.034-0.037,2.692,0.533,3.302,2.354c0.62,1.875,0.37,3.174-1.245,4.606
		C308.384,264.422,307.837,265.281,306.305,264.938z"/>
	<path fill="#6CFFCC" d="M173.348,347.586c0.835-0.105,1.51-0.062,2.085-0.279c1.991-0.771,3.187,1.021,4.801,1.451
		c0.228,0.059,0.371,0.833,0.371,1.278c0,0.781-0.144,1.572-0.231,2.34c-0.669,0.349-1.312,0.622-1.893,0.986
		c-1.256,0.779-4.176,0.806-5.161,0.003c-0.918-0.734-1.2-3.469-0.504-4.897C172.949,348.188,173.138,347.932,173.348,347.586z"/>
	<path fill="#6CFFCC" d="M60.154,258.11c0.498-0.076,1.046-0.166,1.594-0.246c1.033-0.16,1.487,0.193,2.15,1.188
		c1.067,1.591,1.482,3.01,1.034,4.83c-0.337,1.374-1.167,2.25-2.527,2.292c-0.31,0.006-0.625-0.089-0.935-0.133
		c-1.106-0.149-2.511-0.178-2.777-1.405c-0.32-1.471-0.974-3.094,0.155-4.585C59.308,259.443,59.7,258.785,60.154,258.11z"/>
	<path fill="#6CFFCC" d="M259.21,295.248c-0.254-0.57-0.342-1.281-0.719-1.508c-1.863-1.135-1.398-2.896-1.289-4.5
		c0.09-1.321,1.416-2.289,2.844-2.326c2.074-0.056,3.436,0.706,3.844,2.08C264.732,291.832,262.546,295.524,259.21,295.248z"/>
	<path fill="#6CFFCC" d="M149.01,213.245c-0.625,0.039-1.095,0.089-1.571,0.089c-0.393-0.003-0.791-0.069-1.261-0.116
		c-0.266-0.569-0.371-1.353-0.808-1.659c-2.002-1.399-1.416-3.156-0.791-4.897c0.454-1.283,1.525-1.748,2.837-1.789
		c1.494-0.052,2.815,0.526,3.175,1.655c0.536,1.695,1.416,3.479-0.625,4.942C149.519,211.791,149.375,212.545,149.01,213.245z"/>
	<path fill="#6CFFCC" d="M260.792,254c-0.166-1.191-0.32-2.313,1.233-2.674c0.193-0.048,0.326-0.329,0.498-0.49
		c1.753-1.691,3.054-1.937,5.115-0.835c1.057,0.56,1.555,1.484,1.588,2.749c0.045,1.416-0.37,2.545-1.588,3.258
		c-1.747,1.032-3.396,0.742-4.967-0.683C262.16,254.86,261.535,254.518,260.792,254z"/>
	<path fill="#6CFFCC" d="M243.779,254.545c-0.237-0.818-0.231-1.51-0.575-1.834c-1.658-1.573-0.862-3.169-0.193-4.793
		c0.471-1.146,1.51-1.67,3.131-1.581c1.538,0.085,1.976,0.728,2.66,1.842c1.373,2.226-0.082,3.907-0.779,5.733
		c-0.121,0.317-0.769,0.565-1.194,0.607C245.886,254.609,244.929,254.545,243.779,254.545z"/>
	<path fill="#6CFFCC" d="M51.834,249.761c-0.853,0.497-1.576,0.942-2.323,1.35c-1.151,0.62-4.309,0.329-5.012-0.447
		c-1.001-1.105-1.179-3.045-0.42-4.506c0.74-1.433,3.889-2.074,5.525-1.125c0.675,0.391,1.355,0.766,2.229,1.262
		C51.834,247.359,51.834,248.604,51.834,249.761z"/>
	<path fill="#6CFFCC" d="M72.334,220.704c-0.531,0.119-1.128,0.083-1.411,0.361c-1.787,1.766-3.545,0.56-5.266-0.039
		c-0.403-0.135-0.847-0.786-0.891-1.243c-0.127-1.236-0.044-2.488-0.044-3.689c1.112-0.406,1.947-0.633,2.71-1.012
		c0.879-0.436,1.632-0.359,2.489,0.067c2.849,1.4,2.865,1.375,2.627,4.601C72.533,219.979,72.45,220.209,72.334,220.704z"/>
	<path fill="#6CFFCC" d="M195.363,363.834c-1.028,0.678-2.053,1.574-3.196,1.825c-1.078,0.242-2.439,0.042-3.457-0.436
		c-1.322-0.621-1.703-1.979-1.482-3.473c0.232-1.505,0.818-2.018,2.289-2.584c1.672-0.64,3.026-0.578,4.305,0.783
		c0.394,0.411,1.078,0.547,1.691,0.844"/>
	<path fill="#6CFFCC" d="M67.538,242.785c0.237,1.718,0.625,3.395,0.652,5.077c0.028,1.558-0.818,2.248-2.368,2.398
		c-0.625,0.058-1.271,0.1-1.901,0.041c-1.383-0.13-2.235-0.871-2.308-2.257c-0.056-1.159,0.062-2.364,0.344-3.487
		c0.52-2.055,0.951-2.307,2.937-2.146C65.674,242.476,66.448,242.628,67.538,242.785z"/>
	<path fill="#6CFFCC" d="M187.199,334.59c1.676-0.602,3.645-0.965,4.661,0.521c1.289,1.891,1.322,4.411-0.049,6.301
		c-1.106,1.526-3.049,0.735-4.586,0.539C185.639,339.498,185.439,337.137,187.199,334.59z"/>
	<path fill="#6CFFCC" d="M42.719,267.521c1.494,0,2.971,0,4.392,0c0.432,1.011,0.797,1.864,1.156,2.717
		c0.343,0.829-0.354,4.078-0.99,4.644c-0.619,0.537-3.545,0.662-4.408,0.184c-0.93-0.521-1.843-3.828-1.345-4.93
		C41.873,269.363,42.232,268.592,42.719,267.521z"/>
	<path fill="#6CFFCC" d="M134.827,203.748c-1.565,0-3.108,0-4.746,0c-0.166-0.664-0.139-1.342-0.453-1.683
		c-1.781-1.881-0.028-3.557,0.271-5.291c0.056-0.296,0.703-0.622,1.123-0.698c0.691-0.127,1.422-0.09,2.135-0.09
		c1.123,0,2.024,0.187,2.119,1.651c0.044,0.66,0.697,1.271,0.796,1.944c0.083,0.566-0.21,1.206-0.393,1.795
		C135.469,202.047,135.203,202.703,134.827,203.748z"/>
	<path fill="#6CFFCC" d="M262.928,120.311c0.071,2.193-1.184,3.373-3.733,3.516c-2.219,0.122-4.192-1.288-4.231-3.026
		c-0.062-2.469,1.5-4.034,4.021-4.034C261.556,116.765,262.857,117.929,262.928,120.311z"/>
	<path fill="#6CFFCC" d="M79.209,67.975c0.729,0.91,1.753,1.437,2.893,1.922c1.631,0.695,1.355,2.382,1.189,3.814
		c-0.155,1.276-1.084,2.162-2.323,2.37c-1.731,0.302-3.369,0.355-4.375-1.514c-0.166-0.317-0.625-0.465-0.913-0.728
		c-0.796-0.708-0.84-1.756-0.104-2.456C76.742,70.281,77.92,69.184,79.209,67.975z"/>
	<path fill="#6CFFCC" d="M159.84,142.911c-0.774,0.208-1.538,0.257-2.118,0.607c-1.881,1.141-3.158-0.589-4.657-1.004
		c-1.09-0.299-0.603-1.809-0.657-2.807c-0.028-0.468,0.065-0.938,0.104-1.411c0.863-0.448,1.671-0.896,2.5-1.288
		c1.753-0.842,3.363-0.006,4.685,0.854c1.096,0.715,1.058,2.228,0.664,3.527C160.205,141.912,160.012,142.424,159.84,142.911z"/>
	<path fill="#6CFFCC" d="M173.231,105.976c1.351-0.521,2.423-0.939,3.597-1.394c0.581,0.295,1.365,0.953,2.239,1.098
		c1.399,0.232,1.648,1.076,1.638,2.193c-0.012,0.868-0.105,1.733-0.155,2.529c-3.806,1.772-3.806,1.772-7.396,0.29
		C172.794,109.111,172.302,107.502,173.231,105.976z"/>
	<path fill="#6CFFCC" d="M271.695,138.627c1.373,0.103,1.966,0.57,2.711,1.875c1.023,1.793,0.837,3.167,0.282,4.893
		c-0.454,1.414-1.564,1.47-2.604,1.654c-1.307,0.234-2.557-0.468-3.099-1.312c-1.466-2.29-0.603-4.381,0.594-6.34
		C269.886,138.898,270.965,138.867,271.695,138.627z"/>
	<path fill="#6CFFCC" d="M236.406,156.701c-0.497,0.188-1.018,0.219-1.2,0.483c-1.238,1.8-2.965,1.549-4.729,1.223
		c-1.561-0.282-2.329-1.464-2.329-3.604c0.005-1.392,1.023-2.738,2.346-2.874c1.627-0.168,3.356-0.658,4.553,1.156
		c0.249,0.379,0.945,0.462,1.555,0.735C236.533,154.757,236.477,155.622,236.406,156.701z"/>
	<path fill="#6CFFCC" d="M194.273,178.953c-2.672-0.038-4.563-2.938-3.396-5.125c0.608-1.138,1.543-2.17,2.539-3
		c0.52-0.439,1.494-0.523,2.067,0.42c0.316,0.521,0.81,0.942,1.256,1.375c1.296,1.242,1.562,3.569,0.505,5.006
		C196.463,178.686,195.369,179.078,194.273,178.953z"/>
	<path fill="#6CFFCC" d="M195.583,25.5c0,1.172,0,2.414,0,3.672c-0.824,0.471-1.615,0.943-2.422,1.378
		c-1.195,0.647-3.988,0.166-4.879-0.815c-0.951-1.049-1.04-3.409-0.173-4.727c0.521-0.791,3.49-1.402,4.58-0.916
		C193.621,24.507,194.527,24.979,195.583,25.5z"/>
	<path fill="#6CFFCC" d="M155.681,96.418c0.044,2.401-2.24,4.718-4.348,4.564c-1.096-0.08-2.008-0.683-2.296-1.798
		c-0.178-0.688-0.453-0.99-1.102-1.336c-1.178-0.619-1.105-1.726,0.127-2.274c1.023-0.466,1.638-1.112,2.052-2.14
		c0.37-0.918,1.438-1.237,2.142-0.692c0.968,0.752,1.896,1.577,2.766,2.455C155.387,95.57,155.542,96.146,155.681,96.418z"/>
	<path fill="#6CFFCC" d="M27.679,265.029c-0.199-0.698-0.238-1.388-0.563-1.895c-1.151-1.775,0.265-3.213,0.586-4.773
		c0.071-0.327,0.918-0.719,1.389-0.701c1.15,0.044,2.893-0.085,3.324,0.56c0.891,1.346,1.853,2.973,0.957,4.881
		C32.138,265.721,31.258,266.092,27.679,265.029z"/>
	<path fill="#6CFFCC" d="M329.067,274.677c-0.841,0.044-1.544,0.08-2.351,0.124c-0.345-0.603-0.543-1.427-1.046-1.736
		c-2.009-1.235-1.428-2.996-1.084-4.677c0.248-1.22,1.608-1.997,3.142-2.009c1.676-0.017,2.871,0.631,3.209,1.89
		c0.492,1.852,0.995,3.721-1.135,5.03C329.459,273.51,329.36,274.107,329.067,274.677z"/>
	<path fill="#6CFFCC" d="M44.732,320.933c0-0.814,0-1.523,0-2.364c0.537-0.335,1.328-0.563,1.665-1.09
		c1.289-1.982,3.07-1.339,4.735-0.977c1.217,0.263,1.958,1.695,1.93,3.229c-0.021,1.781-0.619,2.646-2.035,3.101
		c-1.863,0.593-3.567,0.729-4.879-1.138C45.911,321.361,45.341,321.251,44.732,320.933z"/>
	<path fill="#6CFFCC" d="M171.528,311.709c-1.481,0-2.893,0-4.209,0c-1.383-2.447-2.058-4.773-0.266-7.435
		c0.443-0.077,1.134-0.246,1.826-0.315c1.105-0.115,2.578-0.417,2.998,0.774c0.524,1.498,2.119,2.998,0.597,4.849
		C172.003,310.154,171.838,310.984,171.528,311.709z"/>
	<path fill="#6CFFCC" d="M27.17,305.981c0.138,1.502-0.433,2.704-1.792,3.327c-1.737,0.797-3.436,0.42-4.585-0.794
		c-0.42-0.445-0.891-0.854-1.355-1.253c-0.852-0.722-0.681-1.617-0.193-2.337c0.465-0.681,1.194-1.184,1.842-1.729
		c1.554-1.308,3.197-0.559,4.707,0C26.938,303.622,27.297,304.756,27.17,305.981z"/>
	<path fill="#6CFFCC" d="M223.562,299.025c0.199,0.647,0.204,1.307,0.541,1.665c1.742,1.881,0.271,3.555-0.319,5.235
		c-0.134,0.377-0.892,0.7-1.39,0.744c-0.935,0.083-1.892-0.033-2.838-0.13c-0.293-0.028-0.791-0.232-0.813-0.398
		c-0.149-1.452-1.517-2.642-0.869-4.271C219.191,298.586,219.513,298.4,223.562,299.025z"/>
	<path fill="#6CFFCC" d="M218.505,59.617c0.033,0.896-0.271,1.78-1.194,2.674c-2.312,2.24-2.234,2.319-4.497,0.018
		c-1.3-1.328-1.627-3.889-0.68-5.401c0.663-1.075,2.478-1.615,4.082-1.212c1.25,0.308,2.041,1.304,2.179,2.717
		C218.423,58.727,218.451,59.045,218.505,59.617z"/>
	<path fill="#6CFFCC" d="M60.076,273.042c1.028,0,2.047,0,2.909,0c0.57,0.854,1.035,1.564,1.511,2.263
		c0.708,1.045,0.603,4.132-0.178,4.975c-1.145,1.24-3.213,1.458-4.828,0.513c-1.444-0.843-1.882-3.933-0.803-5.578
		C59.108,274.566,59.518,273.916,60.076,273.042z"/>
	<path fill="#6CFFCC" d="M52.996,145.148c-0.16-1.311,0.314-2.363,1.494-2.985c1.682-0.89,3.794-0.709,4.923,0.328
		c0.441,0.406,0.891,0.818,1.36,1.2c0.907,0.728,0.901,2.068-0.021,2.787c-0.486,0.385-0.99,0.752-1.427,1.183
		c-1.106,1.069-3.147,1.465-4.642,0.68C53.466,147.701,52.875,146.581,52.996,145.148z"/>
	<path fill="#6CFFCC" d="M31.031,345.616c0.155,0.486,0.149,1.019,0.404,1.22c1.626,1.262,1.283,2.935,1.045,4.583
		c-0.227,1.576-1.665,2.438-3.811,2.34c-1.39-0.063-2.313-1.126-2.716-2.453c-0.669-2.202,0.537-3.78,1.516-5.441
		c0.183-0.312,0.813-0.479,1.245-0.493C29.416,345.343,30.124,345.509,31.031,345.616z"/>
	<path fill="#6CFFCC" d="M47.968,352.893c-0.216-0.858-0.183-1.463-0.465-1.744c-1.831-1.801-0.459-3.534,0.088-5.253
		c0.111-0.358,0.675-0.769,1.063-0.802c1.096-0.094,2.207-0.059,3.303,0.033c0.343,0.03,0.752,0.329,0.957,0.625
		c1.062,1.555,0.823,5.282-0.448,6.629c-0.288,0.302-0.846,0.459-1.289,0.49C50.159,352.943,49.13,352.893,47.968,352.893z"/>
	<path fill="#6CFFCC" d="M18.713,218.55c-0.056-0.771-0.133-1.399-0.133-2.032c0.005-0.672,0.192-1.233,0.983-1.425
		c0.365-0.086,0.72-0.317,1.023-0.554c1.582-1.22,3.49-1.47,4.979-0.471c1.239,0.829,1.587,2.104,1.384,3.563
		c-0.205,1.44-0.736,1.903-2.119,2.47c-1.727,0.699-3.164,0.719-4.486-0.766C20.007,218.967,19.376,218.857,18.713,218.55z"/>
	<path fill="#6CFFCC" d="M139.191,224.198c-0.371,0.04-0.69,0.133-0.996,0.097c-1.078-0.13-2.771,0.058-3.103-0.521
		c-0.77-1.347-1.881-2.874-1.04-4.688c0.404-0.871-0.044-2.342,1.405-2.461c1.311-0.113,2.705-0.088,3.955,0.258
		c0.984,0.275,1.609,3.675,1.067,4.834C140.115,222.494,139.689,223.243,139.191,224.198z"/>
	<path fill="#6CFFCC" d="M260.832,219.266c0.869-0.201,1.643-0.36,2.405-0.561c1.837-0.484,3.119,0.82,4.598,1.46
		c0.228,0.097,0.31,0.702,0.327,1.079c0.049,0.866,0.016,1.732,0.016,2.71c-1.83,0.47-3.113,1.955-5.193,1.421
		c-2.565-0.658-3.551-2.065-2.82-4.646C260.312,220.207,260.617,219.729,260.832,219.266z"/>
	<path fill="#6CFFCC" d="M242.927,99.824c-0.338,0.071-0.736,0.264-1.102,0.225c-1.084-0.122-2.156-0.338-3.23-0.518
		c-0.232-1.594-1.875-2.873-0.973-4.737c0.304-0.625,0.348-1.374,0.52-2.107c0.438-0.204,0.846-0.476,1.3-0.589
		c1.454-0.365,3.182-0.531,3.944,0.82c0.791,1.416,1.726,3.146,0.475,4.938C243.463,98.42,243.253,99.117,242.927,99.824z"/>
	<path fill="#6CFFCC" d="M285.501,208.106c-0.438-1.933-1.604-3.134-1.333-4.896c0.31-2.005,1.306-3.089,3.439-3.113
		c2.201-0.024,2.954,0.758,3.396,2.773c0.365,1.653-0.48,2.932-0.857,4.351c-0.1,0.382-0.803,0.794-1.267,0.849
		C287.802,208.195,286.697,208.106,285.501,208.106z"/>
	<path fill="#6CFFCC" d="M144.496,82.791c-2.755-0.125-3.955-1.179-3.872-3.399c0.094-2.563,1.416-3.688,4.259-3.628
		c1.842,0.041,4.243,2.369,4.147,4.016C148.954,81.023,146.183,82.868,144.496,82.791z"/>
	<path fill="#6CFFCC" d="M130.131,255.602c-3.28-0.014-4.757-1.525-4.663-4.298c0.039-1.179,0.703-1.999,1.759-2.29
		c0.809-0.221,1.372-0.355,1.743-1.274c0.332-0.826,1.184-0.746,1.632,0.071c0.658,1.192,1.478,2.142,2.754,2.72
		c0.726,0.323,0.835,1.253,0.276,1.563c-1.012,0.557-1.172,1.585-1.792,2.318C131.32,255.023,130.485,255.367,130.131,255.602z"/>
	<path fill="#6CFFCC" d="M100.157,156.291c0.216-2.222,0.758-2.795,3.368-3.474c2.645-0.684,5.127,1.161,4.974,3.694
		c-0.127,2.058-1.383,3.142-3.973,3.051c-1.14-0.05-2.39-0.421-3.352-1.027C100.599,158.17,100.483,157.066,100.157,156.291z"/>
	<path fill="#6CFFCC" d="M238.613,164.779c0.375,0.904,0.498,1.574,0.873,2.039c1.478,1.839,0.122,3.466-0.342,5.136
		c-0.095,0.33-0.774,0.717-1.168,0.699c-1.311-0.076-3.086,0.129-3.8-0.619c-0.808-0.853-0.857-2.607-0.868-3.972
		c-0.012-0.874,0.574-1.789,1.039-2.607c0.188-0.335,0.747-0.61,1.156-0.647C236.515,164.716,237.544,164.779,238.613,164.779z"/>
	<path fill="#6CFFCC" d="M18.171,336.398c-0.41-2.977,1.797-5.092,4.762-4.328c0.918,0.238,1.803,0.613,2.887,0.996
		c0.145,0.562,0.404,1.033,0.36,1.478c-0.111,1.066-0.017,2.699-0.63,3.065c-1.328,0.791-2.882,1.935-4.641,1.041
		C19.863,338.115,18.409,338.157,18.171,336.398"/>
	<path fill="#6CFFCC" d="M40.722,118.975c0.044,0.76,0.083,1.465,0.133,2.271c-0.592,0.397-1.36,0.657-1.709,1.188
		c-1.294,1.986-3.092,1.363-4.762,0.988c-1.312-0.293-1.931-1.699-1.854-3.529c0.066-1.635,0.637-2.385,2.074-2.793
		c1.854-0.529,3.602-0.767,4.878,1.188C39.704,118.631,40.28,118.742,40.722,118.975z"/>
	<path fill="#6CFFCC" d="M302.654,123.504c2.041,0.02,2.972,0.969,3.386,3.475c0.46,2.799-1.608,4.926-4.381,4.538
		c-1.056-0.146-1.581-0.587-1.931-1.706c-0.47-1.5-0.797-2.788-0.033-4.328C300.48,123.9,300.823,123.49,302.654,123.504z"/>
	<path fill="#6CFFCC" d="M153.446,69.131c-0.906,1.377-1.963,2.971-3.069,4.635c-1.355-0.801-2.728-1.365-3.768-2.301
		c-1.188-1.07-0.88-2.705-0.587-4.079c0.238-1.137,1.195-1.679,2.435-1.952C151.194,64.839,152.461,66.305,153.446,69.131z"/>
	<path fill="#6CFFCC" d="M134.125,343.821c-0.979,0.51-1.731,0.928-2.513,1.295c-1.205,0.572-4.126-0.024-4.917-0.986
		c-0.58-0.7-0.663-3.479-0.139-4.417c0.36-0.646,3.125-1.521,4.166-1.231c0.913,0.259,1.825,0.587,2.661,1.023
		c0.348,0.188,0.675,0.725,0.708,1.129C134.191,341.725,134.125,342.837,134.125,343.821z"/>
	<path fill="#6CFFCC" d="M150.658,304.178c0.918,2.396,1.371,4.314,0.332,6.387c-0.371,0.732-0.681,1.233-1.478,1.289
		c-0.796,0.049-1.599,0.068-2.395,0.017c-0.365-0.024-0.819-0.166-1.068-0.414c-1.466-1.473-1.565-5.324-0.16-6.84
		c0.293-0.318,0.83-0.554,1.268-0.564C148.324,304.018,149.491,304.125,150.658,304.178z"/>
	<path fill="#6CFFCC" d="M243.497,306.357c-0.305-0.782-0.415-1.463-0.791-1.925c-1.493-1.857-0.178-3.487,0.408-5.125
		c0.146-0.406,1.068-0.747,1.638-0.761c1.168-0.021,2.335,0.197,3.414,0.307c0.326,1.112,0.508,1.961,0.829,2.765
		c0.663,1.679-0.77,2.84-1.106,4.265c-0.088,0.384-1.688,0.474-2.6,0.592C244.751,306.54,244.188,306.41,243.497,306.357z"/>
	<path fill="#6CFFCC" d="M100.488,123.762c1.704,0,3.259,0,4.862,0c0.221,0.818,0.243,1.504,0.57,2.005
		c1.195,1.849-0.216,3.354-0.592,4.983c-0.066,0.271-0.604,0.59-0.94,0.614c-1.035,0.076-2.085,0.095-3.103-0.036
		c-0.35-0.041-0.736-0.541-0.93-0.918c-0.885-1.75-1.443-3.534-0.193-5.388C100.328,124.779,100.323,124.422,100.488,123.762z"/>
	<path fill="#6CFFCC" d="M92.711,351.563c0,0.614,0,1.324,0,2.021c-0.791,0.653-1.561,1.305-2.345,1.928
		c-1.123,0.887-3.807,0.738-4.891-0.258c-1.156-1.051-1.472-3.255-0.653-4.605c1.067-1.762,4.227-2.182,5.881-0.78
		C91.284,350.359,91.871,350.85,92.711,351.563z"/>
	<path fill="#6CFFCC" d="M85.244,319.154c2.185,0.041,3.744,1.799,3.645,4.113c-0.11,2.596-1.416,3.892-3.905,3.863
		c-1.858-0.014-3.004-1.538-3.015-3.991C81.953,320.74,83.286,319.124,85.244,319.154z"/>
	<path fill="#6CFFCC" d="M192.287,291.21c-0.293-0.758-0.337-1.386-0.652-1.593c-1.67-1.084-1.51-2.646-1.322-4.269
		c0.193-1.73,1.201-2.697,2.926-2.764c2.207-0.076,3.132,0.771,3.669,2.522c0.745,2.411-0.625,3.94-1.98,5.409
		C194.445,291.041,193.316,290.964,192.287,291.21z"/>
	<path fill="#6CFFCC" d="M316.847,132.886c0-1.247,0-2.263,0-3.38c0.615-0.258,1.354-0.343,1.71-0.755
		c1.549-1.807,3.424-1.021,5.077-0.542c1.561,0.451,1.416,2.168,1.487,3.463c0.066,1.172-0.586,2.309-1.748,2.547
		c-1.631,0.34-3.424,1.043-4.879-0.67C318.187,133.188,317.506,133.137,316.847,132.886z"/>
	<path fill="#6CFFCC" d="M47.774,135.887c-0.791-0.418-1.521-0.922-2.329-1.201c-1.526-0.526-2.278-1.649-2.019-3.264
		c0.47-2.92,1.914-3.927,4.856-3.279c0.504,0.113,0.968,0.486,1.394,0.816c0.232,0.188,0.437,0.508,0.498,0.796
		c0.238,1.107,2.141,1.444,1.549,2.702c-0.404,0.862-1.549,1.377-2.351,2.058C48.787,135.004,48.211,135.514,47.774,135.887z"/>
	<path fill="#6CFFCC" d="M216.531,41.682c-0.266,0.797-0.31,2.027-0.846,2.301c-1.211,0.625-2.649,0.895-4.026,1.079
		c-0.646,0.089-1.41-0.255-2.035-0.573c-0.438-0.224-0.72-0.739-1.058-1.133c-0.05-0.051-0.045-0.151-0.05-0.231
		c-0.044-1.325-0.729-3.031,0.592-3.784c1.479-0.847,3.176-1.723,5.14-0.553C215.447,39.505,216.775,39.813,216.531,41.682z"/>
	<path fill="#6CFFCC" d="M193.509,51.038c1.627-1.037,2.926-1.878,4.287-2.743c0.559,0.248,1.217,0.627,1.92,0.829
		c1.498,0.426,2.428,1.662,2.383,3.32c-0.043,1.657-1.155,2.694-2.633,3.153c-2.262,0.696-3.883-0.583-5.398-1.687
		C193.455,53.467,193.654,51.909,193.509,51.038z"/>
	<path fill="#6CFFCC" d="M240.167,75.898c-0.083-0.252-0.193-0.47-0.21-0.698c-0.293-3.772,1.813-5.475,5.515-4.474
		c0.604,0.16,1.229,0.249,1.913,0.382c0.172,0.569,0.398,1.085,0.477,1.62c0.199,1.342,0.593,2.993-0.852,3.683
		c-1.477,0.711-3.17,1.676-4.939,0.352C241.527,76.357,240.808,76.181,240.167,75.898z"/>
	<path fill="#6CFFCC" d="M313.888,284.238c0.184,0.403,0.26,0.998,0.592,1.22c2.031,1.354,1.212,3.285,0.984,5.015
		c-0.148,1.147-2.029,1.895-3.821,1.771c-1.339-0.099-2.163-1.063-2.572-2.339c-0.734-2.295,0.509-3.922,1.62-5.604
		c0.194-0.297,0.83-0.432,1.256-0.426C312.572,283.889,313.197,284.1,313.888,284.238z"/>
	<path fill="#6CFFCC" d="M273.366,61.154c-3.042-0.39-4.311-1.02-4.231-3.782c0.078-2.824,2.932-4.571,5.371-3.105
		c1.034,0.619,1.881,1.588,2.688,2.503c0.238,0.27,0.267,1.096,0.039,1.341c-0.95,1.017-2.019,1.929-3.086,2.836
		C273.935,61.125,273.548,61.11,273.366,61.154z"/>
	<path fill="#6CFFCC" d="M126.243,120.459c0.242-0.719,0.293-1.867,0.769-2.082c1.383-0.633,2.821-1.836,4.447-1.023
		c1.051,0.522,2.644,0.285,2.81,2.352c0.267,3.425-1.736,5.237-5.044,4.13c-0.227-0.072-0.432-0.213-0.653-0.299
		C126.386,122.697,126.386,122.699,126.243,120.459z"/>
	<path fill="#6CFFCC" d="M18.912,145.605c0.747-0.891,1.321-1.502,1.797-2.183c0.714-1.009,1.609-1.386,2.859-1.319
		c3.086,0.16,4.465,2.041,3.523,4.986c-0.608,1.911-3.877,2.93-5.653,1.557C20.389,147.837,19.692,146.57,18.912,145.605z"/>
	<path fill="#6CFFCC" d="M347.691,224.229c3.324-0.158,3.928,1.892,3.662,4.206c-0.062,0.516-0.299,1.081-0.631,1.485
		c-1.366,1.664-4.635,1.768-5.885,0.023c-0.576-0.802-1.871-0.854-1.894-2.244c-0.021-1.437,1.434-1.349,1.864-2.264
		C345.384,224.229,346.534,224.162,347.691,224.229z"/>
	<path fill="#6CFFCC" d="M216.99,242.633c-2.743,0.033-4.017-1.075-4.05-3.531c-0.032-2.533,1.372-3.813,4.121-3.748
		c1.429,0.033,3.844,2.338,3.883,3.701C220.978,240.158,218.263,242.615,216.99,242.633z"/>
	<path fill="#6CFFCC" d="M215.791,81.519c0.69,2.34-1.107,3.309-2.347,4.286c-1.366,1.079-3.17,0.479-4.568-0.162
		c-1.543-0.703-1.372-2.403-1.233-3.831c0.121-1.3,1.178-2.132,2.589-2.325c1.62-0.217,3.182-0.409,4.237,1.327
		C214.706,81.206,215.397,81.322,215.791,81.519z"/>
	<path fill="#6CFFCC" d="M100.577,85.551c0-1.496,0-3.039,0-4.68c1.311-0.465,2.532-1.23,3.777-1.25
		c1.167-0.021,2.346,0.744,3.729,1.241c0,1.464,0,3.01,0,4.634c-1.283,0.453-2.512,1.214-3.756,1.24
		C103.155,86.768,101.971,86.026,100.577,85.551z"/>
	<path fill="#6CFFCC" d="M342.839,167.609c-0.082-0.678-0.177-1.295-0.209-1.918c-0.066-1.169,0.204-1.853,1.504-2.511
		c1.691-0.852,3.119-1.253,4.899-0.556c1.179,0.462,1.798,1.131,1.92,2.619c0.134,1.626-0.471,2.915-1.688,3.323
		c-1.73,0.581-3.49,1.211-5.055-0.479C343.941,167.794,343.36,167.78,342.839,167.609z"/>
	<path fill="#6CFFCC" d="M98.116,62.264c0.906,0.987,1.46,1.607,2.019,2.21c1.04,1.112,1.051,4.151,0.027,5.347
		c-0.969,1.132-3.475,1.419-4.823,0.556c-1.836-1.185-1.87-4.941-0.055-6.167C96.24,63.563,97.192,62.9,98.116,62.264z"/>
	<path fill="#6CFFCC" d="M106.557,359.053c1.582,0.176,2.732,0.749,3.158,2.104c0.459,1.463,1.173,3.049-0.448,4.387
		c-0.52,0.432-0.874,1.063-1.311,1.602c-0.608,0.752-2.02,0.762-2.678,0c-0.349-0.405-0.613-0.891-0.989-1.27
		c-1.604-1.584-1.843-3.803-0.315-5.459C104.593,359.738,105.677,359.494,106.557,359.053z"/>
	<path fill="#6CFFCC" d="M86.859,15.617c3.451-0.396,5.217,1.944,3.973,5.258c-1.046,2.778-1.102,2.808-5.089,2.266
		c-1.755-2.5-1.965-4.843,0.017-7.34"/>
	<path fill="#6CFFCC" d="M162.324,36.336c1.521,0,2.843,0,4.087,0c0.459,0.938,0.835,1.703,1.211,2.475
		c0.779,1.613,0.021,3.138-0.481,4.578c-0.161,0.475-1.339,0.76-2.08,0.838c-0.763,0.08-1.587-0.125-2.34-0.352
		c-0.403-0.125-0.94-0.501-1.022-0.857c-0.41-1.709-1.422-3.463,0.165-5.151C162.146,37.563,162.141,36.991,162.324,36.336z"/>
	<path fill="#6CFFCC" d="M99.83,222.461c-0.809-0.398-1.626-0.775-2.417-1.206c-0.404-0.219-0.736-0.551-1.117-0.808
		c-0.924-0.614-1.25-2.59-0.404-3.265c1.659-1.313,3.313-2.613,5.747-1.646c1.499,0.595,2.196,1.372,2.157,3.452
		c-0.022,1.647-0.918,2.766-2.406,3c-0.47,0.071-0.946,0.112-1.421,0.169C99.924,222.262,99.875,222.363,99.83,222.461z"/>
	<path fill="#6CFFCC" d="M87.302,250.27c-0.686,0.57-1.328,1.106-1.969,1.642c-1.172,0.976-4.243,0.871-5.394-0.104
		c-1.466-1.238-0.968-2.781-0.62-4.206c0.288-1.17,1.201-1.657,2.507-1.767C85.222,245.555,87.103,247.014,87.302,250.27z"/>
	<path fill="#6CFFCC" d="M256.766,316.524c-0.575,0.536-1.217,0.993-1.681,1.594c-0.892,1.157-1.933,1.454-3.358,1.17
		c-2.301-0.466-3.054-1.111-3.146-3.138c-0.11-2.36,0.387-2.848,2.799-3.623c1.173-0.379,2.329-0.592,3.092,0.324
		C255.383,313.947,257.331,314.516,256.766,316.524z"/>
	<path fill="#6CFFCC" d="M103.11,183.03c1.499-0.065,4.183,1.502,4.515,2.8c0.133,0.517-0.105,1.24-0.398,1.732
		c-0.348,0.584-0.946,1.021-1.433,1.521c-1.019,1.051-4.188,1.082-5.343,0.047c-1.102-0.99-1.351-3.625-0.525-4.854
		C100.715,183.097,101.899,183.061,103.11,183.03z"/>
	<path fill="#6CFFCC" d="M171.882,57.75c-0.145-1.226,0.42-2.342,1.637-3.004c1.211-0.658,3.944-0.271,4.757,0.483
		c0.442,0.415,0.94,0.762,1.41,1.146c0.682,0.549,0.968,2.307,0.282,2.791c-1.543,1.069-2.771,2.766-5.177,2.116
		C172.772,60.737,171.893,60.049,171.882,57.75z"/>
	<path fill="#6CFFCC" d="M132.471,129.221c0.133-0.014,0.525-0.021,0.902-0.106c3.684-0.886,4.547,1.848,4.026,5.32
		c-0.094,0.622-0.293,1.227-0.459,1.917c-1.521,1.016-3.152,0.453-4.702,0.331C130.446,134.252,130.208,131.887,132.471,129.221z"/>
	<path fill="#6CFFCC" d="M83.928,129.199c1.576,0,3.098,0,4.547,0c0.415,0.858,0.713,1.572,1.089,2.248
		c1.007,1.858-0.293,3.338-0.862,4.887c-0.276,0.747-3.208,0.894-4.287,0.302c-0.354-0.19-0.614-0.663-0.774-1.062
		c-0.631-1.563-1.101-3.138-0.094-4.764C83.778,130.443,83.767,129.924,83.928,129.199z"/>
	<path fill="#6CFFCC" d="M267.265,102.223c-2.263,0.343-3.772-1.259-3.568-3.839c0.173-2.141,1.799-3.353,4.109-3.206
		c2.031,0.128,2.744,1.881,4.062,2.885c0.192,0.146,0.153,0.789,0.032,1.138C271.441,100.491,268.73,102.215,267.265,102.223z"/>
	<path fill="#6CFFCC" d="M280.728,254.396c-1.449-2.729-0.99-5.021,0.575-7.352c1.228,0,2.55,0,3.806,0
		c1.019,1.942,2.054,3.695,1.068,5.921c-0.582,1.319-1.118,1.972-2.506,1.964c-0.56-0.003-1.117-0.111-1.666-0.213
		C281.546,254.631,281.093,254.49,280.728,254.396z"/>
	<path fill="#6CFFCC" d="M310.321,63.633c0,2.423-1.267,3.584-3.966,3.635c-1.443,0.024-3.806-2.146-3.938-3.623
		c-0.101-1.176,2.688-3.688,4.064-3.668C309.291,60.023,310.321,61.003,310.321,63.633z"/>
	<path fill="#6CFFCC" d="M222.826,322.069c0.11,1.399-0.276,2.521-1.727,3.046c-0.282,0.104-0.563,0.281-0.786,0.488
		c-1.554,1.521-1.53,1.52-2.692-0.135c-0.215-0.311-0.599-0.498-0.863-0.777c-1.133-1.188-1.205-4.021-0.154-5.325
		c1.029-1.287,3.457-1.455,5.027-0.487C222.914,319.672,222.587,320.946,222.826,322.069z"/>
	<path fill="#6CFFCC" d="M310.525,171.683c-0.221,2.02-0.69,2.87-2.051,3.395c-1.938,0.746-3.419,0.479-4.598-0.842
		c-0.365-0.408-0.67-0.874-1.052-1.261c-1.022-1.057-1.001-1.248,0.146-2.373c0.387-0.379,0.646-0.896,1.018-1.297
		c1.383-1.502,4.227-1.533,5.537,0.049C310.044,169.979,310.198,170.902,310.525,171.683z"/>
	<path fill="#6CFFCC" d="M296.835,147.648c2.156,0.127,3.629,1.773,3.522,3.938c-0.094,1.994-1.92,3.538-4.055,3.425
		c-2.019-0.104-3.539-1.945-3.379-4.094C293.063,148.963,294.783,147.527,296.835,147.648z"/>
	<path fill="#6CFFCC" d="M35.224,279.328c-0.642,0.789-1.178,1.354-1.599,1.993c-1.307,1.97-4.791,2.103-6.151,0.173
		c-0.856-1.218-0.703-2.646-0.249-3.9c0.438-1.202,1.587-1.795,2.887-1.771c1.511,0.023,3.06-0.013,3.729,1.877
		C34.057,278.311,34.721,278.759,35.224,279.328z"/>
	<path fill="#6CFFCC" d="M117.625,80.59c-1.938-0.004-2.799-0.498-3.226-1.846c-0.747-2.328-0.371-3.777,1.223-4.834
		c0.376-0.252,0.729-0.552,1.035-0.886c0.657-0.732,1.228-0.903,1.907,0.012c0.36,0.482,0.918,0.82,1.399,1.214
		c1.223,1.018,1.647,3.676,0.786,5.009C120.103,80.26,119.317,80.598,117.625,80.59z"/>
	<path fill="#6CFFCC" d="M329.365,250.034c2.523,0,3.646,1.027,3.651,3.347c0.005,2.346-1.167,3.545-3.485,3.557
		c-2.644,0.013-4.076-1.225-3.864-3.605C325.892,250.742,327.009,249.874,329.365,250.034z"/>
	<path fill="#6CFFCC" d="M235.824,325.363c0.93,0.622,1.76,1.171,2.577,1.727c0.134,0.086,0.249,0.199,0.35,0.323
		c0.818,1.022,0.658,4.18-0.255,5.214c-0.779,0.894-3.634,1.22-4.734,0.548c-1.858-1.12-2.014-4.71-0.266-6.063
		C234.232,326.539,234.984,325.994,235.824,325.363z"/>
	<path fill="#6CFFCC" d="M143.113,22.184c-0.476,0.631-0.939,1.153-1.3,1.736c-1.111,1.799-3.839,2.379-5.563,1.188
		c-1.549-1.062-1.229-2.641-1.123-4.106c0.088-1.211,1.028-1.978,2.412-2.262c1.979-0.409,3.347,0.221,4.336,1.91
		C142.173,21.172,142.638,21.603,143.113,22.184z"/>
	<path fill="#6CFFCC" d="M252.906,62.742c0.007-2.097,1.521-3.656,3.563-3.667c2.195-0.018,3.732,1.56,3.717,3.803
		c-0.018,2.052-1.594,3.642-3.611,3.646C254.289,66.525,252.9,65.099,252.906,62.742z"/>
	<path fill="#6CFFCC" d="M293.798,211.84c1.377,1.33,2.722,2.619,4.221,4.068c-1.178,0.483-1.729,1.321-1.819,2.518
		c-0.021,0.334-0.382,0.693-0.669,0.951c-1.268,1.11-2.788,0.658-4.109,0.346c-0.968-0.227-1.521-1.188-1.648-2.387
		c-0.299-2.832-0.271-2.924,2.544-4.146C292.892,212.943,293.306,212.303,293.798,211.84z"/>
	<path fill="#6CFFCC" d="M300.48,104.291c-0.199-1.476,0.404-2.545,1.693-3.111c1.531-0.675,3.743-0.221,4.635,0.813
		c0.056,0.062,0.117,0.128,0.133,0.198c0.217,1.165,2.788,1.388,1.316,3.197c-2.035,2.506-4.408,3.209-6.494,1.959
		C300.597,106.652,300.281,105.553,300.48,104.291z"/>
	<path fill="#6CFFCC" d="M217.261,181.426c-0.006-2.53,1.123-3.691,3.578-3.676c2.069,0.012,3.552,1.553,3.508,3.679
		c-0.051,2.677-1.615,3.723-3.712,3.751C218.594,185.204,217.273,183.658,217.261,181.426z"/>
	<path fill="#6CFFCC" d="M44.174,222.488c-0.072,2.287-1.577,3.73-3.8,3.644c-2.119-0.083-3.596-1.756-3.496-3.969
		c0.088-2.056,1.654-3.434,3.822-3.371C42.808,218.854,44.234,220.375,44.174,222.488z"/>
	<path fill="#6CFFCC" d="M197.946,217.413c-0.032,2.293-1.312,3.579-3.557,3.56c-2.257-0.014-3.634-1.504-3.557-3.857
		c0.064-2.169,1.548-3.659,3.611-3.635C196.546,213.506,197.979,215.109,197.946,217.413z"/>
	<path fill="#6CFFCC" d="M311.4,228.006c0.011,2.299-1.472,3.836-3.674,3.815c-2.013-0.014-3.557-1.604-3.59-3.69
		c-0.027-2.23,1.521-3.817,3.713-3.795C309.961,224.363,311.388,225.834,311.4,228.006z"/>
	<path fill="#6CFFCC" d="M278.841,42.807c0.051-2.369,1.345-3.518,3.861-3.418c1.936,0.078,3.313,1.557,3.279,3.629
		c-0.044,2.326-0.995,3.631-3.688,3.673C280.042,46.721,278.792,45.241,278.841,42.807z"/>
	<path fill="#6CFFCC" d="M292.134,53.657c2.185,0.014,3.617,1.578,3.567,3.888c-0.045,2.092-1.588,3.582-3.686,3.567
		c-2.195-0.02-3.528-1.513-3.484-3.909C288.578,55.001,289.965,53.638,292.134,53.657z"/>
	<path fill="#6CFFCC" d="M112.193,255.563c2.534,0.004,3.606,1.088,3.602,3.642c-0.006,2.094-1.473,3.545-3.59,3.569
		c-2.202,0.027-3.623-1.328-3.662-3.489C108.498,256.996,109.914,255.563,112.193,255.563z"/>
	<path fill="#6CFFCC" d="M257.109,88.182c-2.395,0.008-3.684-1.137-3.729-3.3c-0.043-2.636,1.112-3.804,3.729-3.762
		c2.229,0.027,3.476,1.321,3.451,3.579C260.533,87.158,259.533,88.176,257.109,88.182z"/>
	<path fill="#6CFFCC" d="M80.188,366.406c-0.006,2.325-1.095,3.577-3.136,3.604c-2.661,0.041-3.828-1.111-3.817-3.742
		c0.018-2.506,1.091-3.54,3.718-3.592C79.115,362.631,80.194,363.875,80.188,366.406z"/>
	<path fill="#6CFFCC" d="M40.042,294.611c-0.454-0.313-0.968-0.802-1.577-1.063c-1.953-0.857-1.903-2.562-1.66-4.516
		c0.183-1.449,1.328-2.119,3.181-2.184c1.322-0.039,2.562,0.014,3.28,1.386c0.763,1.455,0.719,2.933-0.056,4.33
		c-0.232,0.433-0.808,0.695-1.255,0.978C41.319,293.934,40.656,294.274,40.042,294.611z"/>
	<path fill="#6CFFCC" d="M43.543,185.749c0.266,2.734-1.499,3.703-3.319,3.64c-2.422-0.086-3.728-1.076-3.573-3.938
		c0.134-2.299,1.224-3.431,3.602-3.387C42.525,182.102,43.565,183.266,43.543,185.749z"/>
	<path fill="#6CFFCC" d="M42.536,304.869c0.011,2.581-1.123,3.646-3.872,3.611c-2.036-0.021-3.037-1.238-3.026-3.67
		c0.011-2.331,1.09-3.659,3.114-3.618C41.928,301.255,42.592,302.467,42.536,304.869z"/>
	<path fill="#6CFFCC" d="M220.01,107.775c-2.483,0.015-3.646-1.032-3.694-3.335c-0.057-2.396,1.161-3.552,3.729-3.54
		c2.429,0.015,3.688,1.148,3.728,3.33C223.804,106.529,222.5,107.765,220.01,107.775z"/>
	<path fill="#6CFFCC" d="M337.325,192.561c0.365,1.983-1.813,3.82-3.739,3.654c-1.976-0.164-3.406-1.508-3.431-3.505
		c-0.021-2.5,1.396-3.979,3.756-3.899C335.976,188.874,337.347,190.381,337.325,192.561z"/>
	<path fill="#6CFFCC" d="M363.179,171.633c0.016,2.195-1.544,3.717-3.789,3.709c-2.107-0.012-3.607-1.505-3.612-3.604
		c-0.005-2.263,1.454-3.688,3.772-3.668C361.707,168.09,363.166,169.52,363.179,171.633"/>
	<path fill="#6CFFCC" d="M208.687,125.551c-0.038,2.29-1.315,3.568-3.518,3.518c-2.34-0.052-3.662-1.418-3.611-3.75
		c0.049-2.289,1.455-3.584,3.851-3.545C207.488,121.807,208.726,123.23,208.687,125.551z"/>
	<path fill="#6CFFCC" d="M313.219,196.23c-2.301,0.025-3.646-1.237-3.646-3.421c-0.005-2.438,1.295-3.812,3.579-3.792
		c2.124,0.021,3.463,1.467,3.662,3.532C317.019,194.646,315.376,196.529,313.219,196.23z"/>
	<path fill="#6CFFCC" d="M111.513,238.488c0.011,2.341-1.09,3.777-2.932,3.842c-2.732,0.089-4.065-1.18-4.088-3.739
		c-0.018-2.234,1.637-3.67,3.534-3.584C110.39,235.122,111.501,236.104,111.513,238.488z"/>
	<path fill="#6CFFCC" d="M148.468,6.975c2.45,0.009,3.772,1.176,3.706,3.272c-0.078,2.624-1.102,3.679-3.596,3.697
		c-2.474,0.021-3.689-1.17-3.695-3.602C144.883,8.025,146.006,6.97,148.468,6.975z"/>
	<path fill="#6CFFCC" d="M57.643,69.612c1.245-0.044,2.557-0.103,3.733,0.217c1.311,0.354,1.809,2.088,1.481,4.123
		c-0.205,1.292-1.193,2.141-2.6,2.284c-1.937,0.196-3.673,0.101-4.397-2.195"/>
	<path fill="#6CFFCC" d="M178.426,27.242c-0.028,2.354-1.367,3.661-3.739,3.64c-2.063-0.015-3.551-1.549-3.535-3.647
		c0.018-2.276,1.438-3.641,3.794-3.641C177.042,23.597,178.453,25.074,178.426,27.242z"/>
	<path fill="#6CFFCC" d="M185.859,160.984c-0.011-2.277,1.25-3.702,3.335-3.766c2.201-0.07,3.579,1.385,3.591,3.794
		c0.012,2.438-1.102,3.653-3.38,3.703C187.066,164.769,185.876,163.518,185.859,160.984z"/>
	<path fill="#6CFFCC" d="M109.411,170.762c0.171,2.438-0.57,3.573-3.973,3.771c-1.77,0.1-2.965-1.434-3.003-3.543
		c-0.044-2.755,1.162-3.632,3.009-3.748C108.105,167.086,109.411,168.363,109.411,170.762z"/>
	<path fill="#6CFFCC" d="M5.338,299.928c0.017-2.453,1.018-3.422,3.507-3.396c2.03-0.253,3.507,1.096,3.507,3.504
		c-0.005,2.446-1.261,3.684-3.673,3.593"/>
	<path fill="#6CFFCC" d="M239.47,28.398c-0.891-0.869-1.488-1.452-2.098-2.02c-0.873-0.821-1.283-3.392-0.603-4.762
		c0.574-1.146,1.549-1.678,2.941-1.639c3.131,0.08,4.852,2.854,3.363,5.661c-0.204,0.392-0.642,0.841-1.033,0.916
		C240.908,26.764,240.056,27.311,239.47,28.398z"/>
	<path fill="#6CFFCC" d="M220.292,210.958c-0.57,2.224-0.791,4.796-3.769,4.395c-2.6-0.355-3.429-0.88-3.59-2.716
		c-0.204-2.328,0.338-3.656,1.82-4.203C217.3,207.501,218.406,208.004,220.292,210.958z"/>
	<path fill="#6CFFCC" d="M55.74,231.908c-2.225-0.022-3.529-1.233-3.529-3.262c-0.006-2.654,1.11-3.77,3.771-3.767
		c2.246,0.006,3.54,1.294,3.54,3.524C59.523,230.766,58.262,231.93,55.74,231.908z"/>
	<path fill="#6CFFCC" d="M340.428,135.618c0.011-2.373,1.179-3.493,3.579-3.446c2.384,0.039,3.634,1.217,3.672,3.465
		c0.033,2.307-1.321,3.571-3.777,3.58C342.032,139.217,340.118,138.082,340.428,135.618z"/>
	<path fill="#6CFFCC" d="M102.087,307.524c-0.315,0.223-0.83,0.456-1.178,0.842c-1.565,1.709-3.221,2.123-5.244,1.238
		c-1.36-0.592-1.908-2.189-1.499-4.376c0.227-1.213,1.095-1.952,2.511-2.063c0.714-0.054,1.433-0.054,2.146-0.018
		c0.99,0.059,1.55,0.661,1.914,1.55C101.103,305.572,101.551,306.404,102.087,307.524z"/>
	<path fill="#6CFFCC" d="M281.154,295.096c0.007,2.317-1.243,3.695-3.352,3.695c-2.418,0-3.729-1.263-3.756-3.615
		c-0.021-2.465,1.104-3.592,3.649-3.64C279.943,291.494,281.143,292.73,281.154,295.096z"/>
	<path fill="#6CFFCC" d="M275.872,233.321c-0.057,2.245-1.146,3.431-3.108,3.395c-2.805-0.059-3.883-1.087-3.872-3.678
		c0.011-2.49,1.229-3.523,4.032-3.422C275.058,229.688,275.933,230.785,275.872,233.321z"/>
	<path fill="#6CFFCC" d="M256.932,154.07c-2.163,0.031-3.623-1.344-3.694-3.479c-0.071-2.315,1.295-3.742,3.629-3.783
		c2.146-0.028,3.65,1.383,3.693,3.478C260.611,152.588,259.222,154.035,256.932,154.07z"/>
	<path fill="#6CFFCC" d="M318.751,233.479c0.005-2.334,1.159-3.711,3.059-3.637c2.793,0.113,3.684,1.088,3.827,3.715
		c0.109,2.024-0.663,3.592-3.895,3.637C319.796,237.219,318.74,235.865,318.751,233.479z"/>
	<path fill="#6CFFCC" d="M132.111,269.178c0,2.377-1.045,3.641-3.098,3.615c-2.782-0.039-3.822-1.15-3.789-3.714
		c0.033-2.347,0.653-3.482,3.889-3.623C131.021,265.373,132.111,266.828,132.111,269.178z"/>
	<path fill="#6CFFCC" d="M244.415,223.518c-0.394-0.388-0.901-0.949-1.46-1.455c-1.136-1.028-1.517-3.071-0.765-4.84
		c0.581-1.348,1.715-1.671,3.125-1.615c2.978,0.11,4.619,2.826,3.17,5.49c-0.266,0.5-0.885,0.862-1.416,1.164
		C246.24,222.727,245.349,223.083,244.415,223.518z"/>
	<path fill="#6CFFCC" d="M178.426,192.483c-0.022,2.344-1.25,3.635-3.43,3.614c-2.356-0.023-3.756-1.402-3.701-3.645
		c0.055-2.456,1.405-3.688,3.988-3.629C177.23,188.869,178.448,190.287,178.426,192.483z"/>
	<path fill="#6CFFCC" d="M153.723,248.099c-0.299,0.35-0.658,0.669-0.891,1.063c-1.256,2.125-2.876,2.805-5.15,2.067
		c-0.299-0.094-0.57-0.287-0.813-0.485c-1.438-1.161-1.128-2.769-0.869-4.222c0.244-1.33,1.321-1.818,2.688-1.916
		c2.601-0.188,2.987-0.03,4.121,2.19C153.048,247.26,153.413,247.662,153.723,248.099z"/>
	<path fill="#6CFFCC" d="M158.009,357.234c-0.062,2.427-1.007,3.253-3.673,3.203c-2.262-0.041-3.424-1.309-3.348-3.647
		c0.083-2.429,1.224-3.43,3.872-3.412C157.002,353.396,158.064,354.705,158.009,357.234z"/>
	<path fill="#6CFFCC" d="M199.777,2.426c2.246-0.064,3.733,1.463,3.578,3.504c-0.192,2.486-1.045,3.463-3.551,3.46
		c-2.461-0.006-3.701-1.104-3.756-3.335C195.988,3.692,197.265,2.498,199.777,2.426"/>
	<path fill="#6CFFCC" d="M133.998,326.127c0.039-2.343,1.128-3.565,3.181-3.537c2.677,0.024,3.761,1.146,3.7,3.824
		c-0.055,2.438-1.185,3.496-3.75,3.532C135.054,329.974,133.959,328.641,133.998,326.127z"/>
	<path fill="#6CFFCC" d="M277.775,83.631c0.011-2.316,1.09-3.471,3.246-3.471c2.693,0,3.828,0.987,3.89,3.386
		c0.056,2.329-1.384,3.612-4.005,3.579C278.66,87.097,277.763,86.096,277.775,83.631z"/>
	<path fill="#6CFFCC" d="M85.001,52.57c-0.365-0.319-0.691-0.66-1.068-0.939c-1.682-1.241-2.317-3.001-1.726-4.912
		c0.088-0.288,0.254-0.572,0.441-0.81c0.803-1.021,2.854-1.462,4.414-0.976c1.134,0.354,1.88,1.488,1.97,2.978
		c0.138,2.337-0.388,3.084-2.578,3.83C85.969,51.909,85.543,52.255,85.001,52.57z"/>
	<path fill="#6CFFCC" d="M83.214,88.018c-0.394-2.627,1.709-3.528,3.479-3.543c2.146-0.016,3.519,1.245,3.496,3.102
		c-0.039,2.956-0.939,3.964-3.557,3.975C84.188,91.553,83.236,90.568,83.214,88.018z"/>
	<path fill="#6CFFCC" d="M359.002,200.803c-0.338,0.716-0.741,1.43-1.019,2.188c-0.575,1.604-1.876,2.257-4.116,1.978
		c-1.504-0.19-2.434-1.137-2.594-2.644c-0.354-3.414,1.728-5.146,5.006-4.095c0.554,0.181,1.046,0.643,1.478,1.063
		C358.244,199.771,358.632,200.35,359.002,200.803z"/>
	<path fill="#6CFFCC" d="M153.462,28.605c2.5-0.02,3.567,0.965,3.601,3.327c0.039,2.458-1.256,3.851-3.551,3.819
		c-2.235-0.033-3.424-1.313-3.496-3.646C149.944,29.795,151.372,28.254,153.462,28.605z"/>
	<path fill="#6CFFCC" d="M132.238,97.949c-2.399,0.008-3.522-0.99-3.507-3.129c0.018-2.651,0.979-3.667,3.501-3.687
		c2.723-0.025,3.711,0.949,3.745,3.682C136.011,96.998,134.888,97.938,132.238,97.949z"/>
	<path fill="#6CFFCC" d="M217.195,196.576c-0.012-2.364,1.141-3.602,3.369-3.632c2.328-0.032,3.552,1.271,3.539,3.777
		c-0.005,2.307-1.237,3.615-3.435,3.654C218.428,200.412,217.201,199.074,217.195,196.576z"/>
	<path fill="#6CFFCC" d="M115.904,279.813c-0.011,2.388-1.145,3.638-3.346,3.673c-2.285,0.042-3.529-1.271-3.535-3.738
		c-0.011-2.522,0.996-3.604,3.363-3.626C114.881,276.098,115.921,277.188,115.904,279.813z"/>
	<path fill="#6CFFCC" d="M85.57,279.473c-0.017,2.373-1.045,3.424-3.296,3.379c-2.672-0.053-3.821-1.119-3.771-3.512
		c0.05-2.332,1.267-3.385,3.938-3.391C84.63,275.943,85.593,277.02,85.57,279.473z"/>
	<path fill="#6CFFCC" d="M214.147,274.743c0,2.511-0.988,3.527-3.4,3.515c-2.353-0.014-3.607-1.186-3.636-3.396
		c-0.032-2.646,1.041-3.74,3.718-3.797C212.968,271.012,214.152,272.328,214.147,274.743z"/>
	<path fill="#6CFFCC" d="M199.119,194.146c-2.552,0.038-3.425-0.824-3.446-3.421c-0.022-2.343,0.957-3.356,3.258-3.369
		c2.755-0.016,3.852,0.853,3.866,3.048C202.819,193.164,201.9,194.099,199.119,194.146z"/>
	<path fill="#6CFFCC" d="M69.297,131.082c0.349,2.237-1.488,3.662-3.739,3.513c-2.052-0.127-3.385-1.449-3.341-3.532
		c0.056-2.469,1.339-3.771,3.673-3.723C67.986,127.382,69.308,128.836,69.297,131.082z"/>
	<path fill="#6CFFCC" d="M323.978,169.221c-2.445-0.044-3.801-1.36-3.711-3.604c0.088-2.259,1.426-3.357,4.031-3.322
		c2.08,0.026,3.291,1.35,3.27,3.557C327.546,168.309,326.532,169.263,323.978,169.221z"/>
	<path fill="#6CFFCC" d="M143.678,180.004c-2.323-0.027-3.479-1.219-3.452-3.553c0.033-2.498,1.102-3.509,3.75-3.541
		c2.257-0.03,3.247,1.121,3.226,3.723C147.173,179.137,146.238,180.035,143.678,180.004z"/>
	<path fill="#6CFFCC" d="M128.079,2.622c2.34,0.023,3.75,1.228,3.684,3.335c-0.072,2.188-0.946,3.673-3.999,3.569
		c-2.251-0.076-3.38-1.19-3.391-3.409C124.356,3.623,125.446,2.594,128.079,2.622"/>
	<path fill="#6CFFCC" d="M187.181,207.246c0,2.491-1.199,3.842-3.479,3.782c-1.781-0.041-3.545-0.854-3.475-3.58
		c0.066-2.538,1.146-3.78,3.54-3.771C186.136,203.695,187.176,204.779,187.181,207.246z"/>
	<path fill="#6CFFCC" d="M178.442,366.84c0.012,2.528-0.968,3.541-3.38,3.513c-2.572-0.023-3.844-1.179-3.828-3.462
		c0.018-2.258,1.467-3.447,4.177-3.419C177.463,363.488,178.437,364.575,178.442,366.84z"/>
	<path fill="#6CFFCC" d="M153.739,128.211c-2.616,0.006-3.49-0.84-3.507-3.379c-0.011-2.412,1.084-3.546,3.446-3.551
		c2.423,0,3.889,1.32,3.734,3.61C157.279,126.941,156.538,128.424,153.739,128.211z"/>
	<path fill="#6CFFCC" d="M313.423,154.098c-2.444-0.016-3.435-1.033-3.4-3.524c0.027-2.398,1.184-3.621,3.434-3.638
		c2.419-0.012,3.485,1.197,3.523,3.771C317.013,152.752,315.791,154.422,313.423,154.098z"/>
	<path fill="#6CFFCC" d="M40.036,367.232c-0.466-0.381-0.951-0.873-1.521-1.235c-1.77-1.125-2.484-3.564-1.466-5.34
		c0.924-1.603,2.489-1.521,4.016-1.375c1.395,0.136,2.08,0.842,2.362,2.245c0.105,0.546,0.271,1.104,0.238,1.644
		c-0.078,1.217-0.315,2.329-1.743,2.808C41.236,366.209,40.672,366.796,40.036,367.232z"/>
	<path fill="#6CFFCC" d="M112.602,348.445c2.412,0.033,3.353,1.058,3.309,3.612c-0.039,2.394-1.211,3.585-3.501,3.554
		c-2.313-0.023-3.431-1.219-3.475-3.604C108.896,349.917,109.964,348.127,112.602,348.445z"/>
	<path fill="#6CFFCC" d="M59.628,306.313c0.017,2.458-0.835,3.35-3.208,3.362c-2.583,0.02-3.623-0.924-3.623-3.271
		c-0.005-2.864,0.802-3.711,3.618-3.785C58.61,302.558,59.617,303.717,59.628,306.313z"/>
	<path fill="#6CFFCC" d="M146.216,114.994c-0.072-0.092-0.228-0.396-0.476-0.562c-2.041-1.375-2.634-2.93-1.932-5.17
		c0.072-0.224,0.184-0.438,0.315-0.633c0.725-1.061,2.622-1.527,4.363-1.084c1.084,0.274,1.787,1.231,1.903,2.672
		c0.055,0.627,0.105,1.266,0.05,1.891c-0.11,1.154-0.74,1.864-1.907,2.121C147.837,114.383,147.168,114.676,146.216,114.994z"/>
	<path fill="#6CFFCC" d="M128.615,37.342c0.021-2.486,0.989-3.211,3.551-3.396c2.246-0.168,3.551,1.796,3.541,3.615
		c-0.018,2.418-1.278,3.593-3.795,3.514C129.605,40.998,128.588,39.846,128.615,37.342z"/>
	<path fill="#6CFFCC" d="M353.587,251.398c-2.451,0.066-3.446-0.83-3.496-3.158c-0.056-2.458,0.906-3.646,3.015-3.708
		c2.815-0.09,4.044,0.959,4.077,3.468C357.21,250.309,356.132,251.328,353.587,251.398z"/>
	<path fill="#6CFFCC" d="M328.618,289.169c-2.295,0.021-3.616-1.12-3.635-3.143c-0.021-2.802,1.063-4.135,3.496-4.008
		c2.572,0.14,3.662,1.211,3.447,3.814C331.932,288.195,330.991,289.146,328.618,289.169"/>
	<path fill="#6CFFCC" d="M342.878,123.617c-0.145,2.832-1.052,3.635-3.916,3.454c-2.225-0.136-3.025-1.226-2.933-3.954
		c0.083-2.201,1.549-3.262,4.203-3.025C342.165,120.264,342.994,121.367,342.878,123.617z"/>
	<path fill="#6CFFCC" d="M66.808,190.791c-2.495,0-3.75-1.123-3.695-3.295c0.066-2.668,0.984-3.563,3.674-3.596
		c2.366-0.029,3.551,1.126,3.562,3.479C70.365,189.781,69.319,190.791,66.808,190.791z"/>
	<path fill="#6CFFCC" d="M198.05,263.139c-0.138,2.707-1.045,3.563-3.689,3.468c-2.36-0.086-3.258-1.22-3.157-4.011
		c0.071-2.005,1.594-3.271,3.712-3.094C197.166,259.692,198.162,260.848,198.05,263.139z"/>
	<path fill="#6CFFCC" d="M286.575,278.291c-0.038,2.521-0.963,3.588-3.088,3.537c-3.041-0.062-3.756-0.802-3.743-3.895
		c0.012-2.202,1.155-3.105,3.86-3.031C285.717,274.959,286.603,275.971,286.575,278.291z"/>
	<path fill="#6CFFCC" d="M33.736,320.504c0,2.428-1.139,3.626-3.429,3.615c-2.285-0.013-3.501-1.234-3.54-3.579
		c-0.039-2.35,1.095-3.481,3.512-3.49C32.834,317.039,33.736,317.938,33.736,320.504z"/>
	<path fill="#6CFFCC" d="M29.333,161.665c0.021,2.316-0.892,3.3-3.054,3.302c-2.832,0-3.894-0.82-3.877-3.006
		c0.018-2.984,0.747-3.762,3.591-3.816C28.42,158.098,29.311,159.035,29.333,161.665z"/>
	<path fill="#6CFFCC" d="M353.521,190.771c-2.533,0.021-3.463-0.824-3.474-3.143c-0.012-2.721,0.88-3.813,3.125-3.818
		c2.814-0.006,3.65,0.829,3.712,3.717C356.928,189.867,356.009,190.749,353.521,190.771z"/>
	<path fill="#6CFFCC" d="M333.105,221.971c-0.039,2.542-0.936,3.568-3.115,3.563c-3.003-0.013-3.794-0.847-3.723-3.914
		c0.051-2.148,1.09-2.976,3.723-2.966C332.12,218.663,333.138,219.75,333.105,221.971z"/>
	<path fill="#6CFFCC" d="M68.125,62.129c-0.028-2.495,0.896-3.389,3.49-3.392c2.4-0.004,3.439,0.891,3.456,2.959
		c0.018,2.939-0.874,3.931-3.528,3.938C69.093,65.644,68.152,64.678,68.125,62.129z"/>
	<path fill="#6CFFCC" d="M205.236,102.209c-2.411-0.069-3.54-1.212-3.469-3.51c0.084-2.466,1.334-3.476,4.154-3.36
		c1.998,0.085,2.971,1.38,2.883,3.83C208.72,101.457,207.753,102.281,205.236,102.209z"/>
	<path fill="#6CFFCC" d="M103.901,100.212c-0.017,2.382-0.891,3.103-3.732,3.075c-2.152-0.021-3.192-1.099-3.159-3.259
		c0.044-2.568,0.957-3.747,3.053-3.61C102.906,96.605,104.001,96.871,103.901,100.212z"/>
	<path fill="#6CFFCC" d="M325.273,149.396c0.021-2.215,1.111-3.188,3.523-3.145c2.272,0.041,3.379,1.043,3.396,3.076
		c0.022,2.92-0.862,3.885-3.546,3.864C326.173,153.18,325.25,152.141,325.273,149.396z"/>
	<path fill="#6CFFCC" d="M346.07,275.145c0.111,2.574-0.674,3.338-3.601,3.525c-1.976,0.133-3.169-0.962-3.221-2.938
		c-0.07-2.778,0.753-3.942,2.889-3.998C344.693,271.659,346.07,272.088,346.07,275.145z"/>
</g>
</svg>
