<?xml version="1.0" encoding="utf-8"?>
<!-- Generator: Adobe Illustrator 16.0.0, SVG Export Plug-In . SVG Version: 6.00 Build 0)  -->
<!DOCTYPE svg PUBLIC "-//W3C//DTD SVG 1.1//EN" "http://www.w3.org/Graphics/SVG/1.1/DTD/svg11.dtd">
<svg version="1.1" id="Calque_1" xmlns="http://www.w3.org/2000/svg" xmlns:xlink="http://www.w3.org/1999/xlink" x="0px" y="0px"
	 width="81.681px" height="107.241px" viewBox="0 0 81.681 107.241" enable-background="new 0 0 81.681 107.241"
	 xml:space="preserve">
<path fill="#6CFFCC" stroke="#6CFFCC" stroke-width="0.7554" stroke-miterlimit="10" d="M62.687,37.8
	c-3.881-0.85-6.349-4.648-5.495-8.544L61.8,8.22L26.779,0.546c-3.887-0.851-7.729,1.607-8.581,5.496l-17.65,80.56
	c-0.853,3.888,1.581,7.721,5.459,8.57l52.59,11.523c3.868,0.848,7.688-1.588,8.538-5.469l13.057-59.592L62.687,37.8z M34.569,90.594
	L22.251,71.365l3.206-2.054l8.895,13.888l8.486-38.729l3.505,0.768l-8.486,38.729l13.888-8.896l2.053,3.205L34.569,90.594z"/>
<path fill="#6CFFCC" stroke="#6CFFCC" stroke-width="0.7554" stroke-miterlimit="10" d="M65.305,8.988l-4.605,21.02
	c-0.425,1.939,0.812,3.861,2.7,4.275l17.56,3.848L65.305,8.988L65.305,8.988z"/>
</svg>
